<svg width="267" height="175" viewBox="0 0 267 175" fill="none" xmlns="http://www.w3.org/2000/svg">
<g clip-path="url(#clip0_169_2266)">
<path d="M246.347 84.5031H29.8392C26.9372 84.5031 24.5762 82.1403 24.5762 79.2356V5.26726C24.5762 2.36288 26.9372 0 29.8392 0H246.347C249.249 0 251.61 2.36288 251.61 5.26726V79.2356C251.61 82.1403 249.249 84.5031 246.347 84.5031ZM29.8392 0.627975C27.2832 0.627975 25.2036 2.70922 25.2036 5.26726V79.2356C25.2036 81.7938 27.2832 83.8752 29.8392 83.8752H246.347C248.903 83.8752 250.982 81.7938 250.982 79.2356V5.26726C250.982 2.70922 248.903 0.627975 246.347 0.627975H29.8392Z" fill="#3F3D56"/>
<path d="M267 172.868H0V173.397H267V172.868Z" fill="#E6E6E6"/>
<path d="M267 145.865H0V146.394H267V145.865Z" fill="#E6E6E6"/>
<path d="M121.679 87.2233C121.871 89.6347 123.27 91.4903 124.803 91.368C126.337 91.2456 127.424 89.1918 127.232 86.7796C127.168 85.8149 126.875 84.8795 126.376 84.0517L125.435 73.8447L120.658 74.3889L122.093 84.3933C121.731 85.2901 121.589 86.2605 121.679 87.2233Z" fill="#FFB6B6"/>
<path d="M115.973 39.6043C115.973 39.6043 120.438 37.2387 122.702 40.7737C124.967 44.3088 126.529 82.5407 126.529 82.5407L120.254 83.2112L119.064 56.2702L115.973 39.6043Z" fill="#E6E6E6"/>
<path d="M106.706 143.87L110.341 143.87L112.071 129.836L106.705 129.837L106.706 143.87Z" fill="#FFB6B6"/>
<path d="M119.161 143.788C119.274 143.979 119.334 144.594 119.334 144.816C119.334 145.498 118.782 146.051 118.1 146.051H106.842C106.377 146.051 106 145.674 106 145.209V144.74C106 144.74 105.443 143.33 106.59 141.592C106.59 141.592 108.015 142.953 110.145 140.821L110.772 139.683L115.318 143.01L117.838 143.32C118.389 143.388 118.878 143.31 119.161 143.788Z" fill="#2F2E41"/>
<path d="M127.743 143.268L131.266 142.367L129.471 128.342L124.272 129.671L127.743 143.268Z" fill="#FFB6B6"/>
<path d="M139.791 140.103C139.948 140.26 140.158 140.842 140.213 141.057C140.381 141.718 139.983 142.39 139.323 142.559L128.415 145.347C127.964 145.463 127.506 145.191 127.391 144.74L127.275 144.285C127.275 144.285 126.386 143.057 127.068 141.09C127.068 141.09 128.785 142.055 130.321 139.463L130.648 138.204L135.875 140.301L138.393 139.978C138.944 139.907 139.398 139.71 139.791 140.103Z" fill="#2F2E41"/>
<path d="M103.698 36.5874L103.526 35.3355L105.575 30.3281L111.204 29.7021L112.419 36.871L103.698 36.5874Z" fill="#FFB6B6"/>
<path opacity="0.1" d="M103.698 36.5874L103.526 35.3355L105.575 30.3281L111.204 29.7021L112.419 36.871L103.698 36.5874Z" fill="black"/>
<path d="M97.1313 71.9528L94.6296 78.838L96.5059 82.5936L105.887 137.05H112.124L110.891 88.853L125.276 137.05H131.449L126.485 104.501L122.774 74.4565L120.523 73.065L109.64 66.9453L97.1313 71.9528Z" fill="#2F2E41"/>
<path d="M113.08 76.6472L109.327 77.2731L104.324 65.3804H115.582L113.08 76.6472Z" fill="#E6E6E6"/>
<path d="M120.585 73.5176L113.08 76.6473L110.578 71.0139L109.327 77.2732L96.1932 73.0419L98.0695 65.3805L96.1932 40.3432L102.817 35.924L103.698 35.3357L111.829 35.9616L112.542 36.3497L117.458 39.0913L118.709 59.7471L120.585 73.5176Z" fill="#2F2E41"/>
<path d="M112.542 36.3497L109.015 51.297L102.817 35.924L103.698 35.3357L111.829 35.9616L112.542 36.3497Z" fill="#E6E6E6"/>
<path d="M106.513 35.3357L105.262 37.4917L106.513 38.2103L105.887 51.3359L108.389 54.7396L110.891 49.709L109.014 38.2103L109.64 35.3357H106.513Z" fill="#2F2E41"/>
<path d="M108.389 34.0836C111.671 34.0836 114.331 31.4214 114.331 28.1373C114.331 24.8532 111.671 22.1909 108.389 22.1909C105.108 22.1909 102.448 24.8532 102.448 28.1373C102.448 31.4214 105.108 34.0836 108.389 34.0836Z" fill="#FFB6B6"/>
<path d="M104.592 28.659L105.876 29.2197L106.436 25.8553C106.436 25.8553 108.677 24.7338 110.358 25.2946C112.039 25.8553 114.84 25.2946 114.84 25.2946C114.84 25.2946 114.84 19.6873 110.918 19.6873C106.996 19.6873 103.074 20.248 103.074 21.9302C103.074 23.6124 101.394 25.2946 101.394 25.2946C101.394 25.2946 99.1524 28.659 101.394 30.9019C103.635 33.1448 104.755 33.1448 104.755 33.1448L104.592 28.659Z" fill="#2F2E41"/>
<path d="M93.0632 87.0473C92.998 89.4655 94.1919 91.4592 95.7296 91.5004C97.2673 91.5417 98.5662 89.615 98.6311 87.196C98.6702 86.23 98.4776 85.2688 98.0695 84.3926L98.2163 74.1433L93.409 74.1769L93.7747 84.2773C93.3198 85.1305 93.0759 86.0804 93.0632 87.0473Z" fill="#FFB6B6"/>
<path d="M99.0107 39.0794C99.0107 39.0794 94.9454 37.8276 93.0691 41.5832C91.1928 45.3388 93.6945 83.5207 93.6945 83.5207H100.005L98.3305 56.6056L99.0107 39.0794Z" fill="#E6E6E6"/>
<path d="M254.96 110.212L239.8 105.568C239.464 105.465 239.112 105.427 238.763 105.457L161.928 112.002C160.833 112.095 160.558 113.574 161.546 114.056L164.007 115.256H163.942V172.7H166.261V116.354L173.974 120.115C174.564 120.403 175.223 120.52 175.876 120.454L176.697 120.371V172.7H179.016V120.137L238.444 114.129V172.7H240.763V113.895L250.619 112.898V172.7H252.938V112.664L254.736 112.482C255.999 112.355 256.173 110.584 254.96 110.212Z" fill="#3F3D56"/>
<path d="M184.234 111.774C185.683 111.774 207.135 109.163 207.135 109.163L210.324 113.515L188.002 117.867L184.234 111.774Z" fill="white"/>
<path d="M207.778 170.469L204.051 170.462L202.302 156.072L207.803 156.082L207.778 170.469Z" fill="#A0616A"/>
<path d="M195.009 170.363C194.892 170.558 194.83 171.189 194.83 171.417C194.828 172.116 195.394 172.684 196.092 172.685L207.635 172.705C208.111 172.705 208.498 172.319 208.499 171.842L208.5 171.361C208.5 171.361 209.073 169.917 207.901 168.133C207.901 168.133 206.437 169.526 204.258 167.337L203.616 166.169L198.95 169.572L196.366 169.886C195.801 169.954 195.3 169.873 195.009 170.363Z" fill="#2F2E41"/>
<path d="M227.781 163.777L224.84 165.997L214.886 155.702L219.226 152.426L227.781 163.777Z" fill="#A0616A"/>
<path d="M217.657 171.316C217.681 171.54 218.008 172.074 218.144 172.254C218.559 172.806 219.343 172.915 219.894 172.499L229.001 165.624C229.377 165.34 229.451 164.805 229.168 164.429L228.882 164.05C228.882 164.05 228.473 162.569 226.486 161.864C226.486 161.864 226.163 163.835 223.141 163.411L221.939 162.874L220.291 168.341L218.442 170.13C218.038 170.522 217.594 170.757 217.657 171.316Z" fill="#2F2E41"/>
<path d="M219.992 89.4049C219.992 92.8445 217.205 95.6329 213.769 95.6329C210.332 95.6329 207.545 92.8445 207.545 89.4049C207.545 85.9652 210.332 83.1768 213.769 83.1768C217.205 83.1768 219.992 85.9652 219.992 89.4049Z" fill="#A0616A"/>
<path d="M219.405 125.314C219.405 125.314 196.493 124.016 195.196 126.612C193.899 129.208 202.207 164.867 202.207 164.867L209.62 163.312L206.004 138.294C206.004 138.294 225.124 143.362 227.718 137.305C230.311 131.248 229.565 128.992 229.565 128.992L219.405 125.314Z" fill="#2F2E41"/>
<path d="M225.276 120.957C225.276 120.957 202.836 125.771 202.272 128.618C201.707 131.465 219.145 163.653 219.145 163.653L225.882 160.192L215.782 137.023C215.782 137.023 235.561 136.848 236.461 130.32C237.362 123.791 236.045 121.814 236.045 121.814L225.276 120.957Z" fill="#2F2E41"/>
<path d="M227.836 96.5425H217.055L209.678 108.657C209.678 108.657 207.949 116.486 209.678 117.331C211.408 118.176 211.408 127.262 211.408 127.262L229.565 128.992C229.565 128.992 232.159 101.734 231.294 99.1385C230.429 96.5425 227.836 96.5425 227.836 96.5425Z" fill="#FF5757"/>
<path d="M210.759 104.547L209.678 117.331L197.522 112.167L194.62 110.707C194.052 109.965 193.315 109.371 192.47 108.973C190.369 107.948 188.138 108.202 187.486 109.54C186.835 110.878 188.01 112.793 190.11 113.817C190.944 114.238 191.867 114.453 192.801 114.444L201.29 119.269L201.3 119.25L201.338 119.317L214.65 124.882L217.713 108.1L210.759 104.547Z" fill="#A0616A"/>
<path d="M209.462 90.2689C209.462 90.2689 202.977 91.1342 205.571 85.5096C205.571 85.5096 205.176 82.4605 207.103 82.2544C209.03 82.0483 211.624 78.587 211.624 78.587C211.624 78.587 217.571 75.5584 220.65 78.587C223.729 81.6157 232.807 99.3548 232.807 99.3548L226.755 105.845C226.755 105.845 223.116 96.2717 218.883 97.3806C214.65 98.4895 210.759 101.796 210.759 101.796C210.759 101.796 206.463 99.6442 208.395 97.7689C210.327 95.8935 209.462 90.2689 209.462 90.2689Z" fill="#2F2E41"/>
<path d="M218.108 99.7874C218.108 99.7874 215.082 95.8935 212.921 98.9221C210.759 101.951 209.03 105.845 209.03 105.845L217.676 108.873L218.108 99.7874Z" fill="#FF5757"/>
<path d="M250.937 171.839L240.892 139.884L240.893 139.884H240.916L240.876 139.832L240.875 139.831L240.159 137.555L240.16 137.554C241.25 136.614 241.992 135.271 242.14 133.725L237.548 108.449C237.864 105.13 235.321 102.229 231.991 102.11L221.63 102.084C218.685 101.979 216.134 104.109 215.705 107.027L215.476 108.577L212.301 130.188C212.185 130.966 212.232 131.732 212.414 132.448L210.13 132.747L209.437 132.84L206.698 133.197L206.689 133.2L206.347 133.243H205.976V142.527H205.999V172.201C205.999 172.392 206.155 172.549 206.347 172.549C206.541 172.549 206.698 172.392 206.698 172.201V142.527H210.762L214.817 172.166C214.844 172.34 214.991 172.468 215.165 172.468C215.18 172.468 215.197 172.468 215.212 172.465C215.403 172.439 215.536 172.262 215.51 172.07L211.469 142.527H230.97C232.907 142.527 234.701 141.912 236.162 140.859L243.894 172.112C243.934 172.27 244.076 172.375 244.232 172.375C244.26 172.375 244.289 172.372 244.318 172.364C244.505 172.317 244.618 172.126 244.57 171.939L236.764 140.385C236.868 140.298 236.971 140.206 237.07 140.11L240.173 139.928L250.271 172.049C250.318 172.198 250.456 172.293 250.604 172.293C250.639 172.293 250.674 172.288 250.709 172.277C250.893 172.219 250.995 172.023 250.937 171.839ZM239.496 138.05C239.522 138.036 239.545 138.019 239.568 138.004L239.643 138.241L239.496 138.05Z" fill="#E6E6E6"/>
<path d="M53.8262 117.675L60.5869 113.372L63.3355 115.031L53.8262 125.967V117.675Z" fill="#FFB6B6"/>
<path d="M44.5811 101.02C44.5811 101.02 40.0906 102.078 42.2037 108.158C44.3169 114.238 51.1847 126.927 53.2979 126.134C55.4111 125.341 55.6752 117.41 55.6752 117.41C55.6752 117.41 55.4111 117.675 54.3545 116.617C53.2979 115.56 53.2979 116.043 53.2979 114.876C53.2979 113.709 52.4337 112.844 52.4337 112.844L51.4489 110.801C51.4489 110.801 51.4489 101.284 47.4867 100.756C43.5245 100.227 44.5811 101.02 44.5811 101.02Z" fill="#E6E6E6"/>
<path d="M65.5608 114.747C67.3145 112.992 67.858 110.69 66.7749 109.606C65.6918 108.522 63.3921 109.066 61.6385 110.821C59.8848 112.576 59.3412 114.878 60.4244 115.962C61.5075 117.046 63.8072 116.502 65.5608 114.747Z" fill="#FFB6B6"/>
<path d="M27.0905 136.048L31.7037 143.69L58.5875 142.098L51.429 132.864L27.0905 136.048Z" fill="#E6E6E6"/>
<path d="M35.1234 171.789C34.9668 171.789 34.8304 171.673 34.8086 171.514L26.7753 112.796C26.7514 112.622 26.8732 112.461 27.0473 112.437C27.2213 112.412 27.3817 112.535 27.4057 112.709L35.439 171.427C35.4628 171.602 35.341 171.762 35.167 171.786C35.1523 171.788 35.1378 171.789 35.1234 171.789Z" fill="#E6E6E6"/>
<path d="M27.0905 171.864C26.9148 171.864 26.7723 171.721 26.7723 171.545V112.764C26.7723 112.588 26.9148 112.446 27.0905 112.446C27.2662 112.446 27.4086 112.588 27.4086 112.764V171.545C27.4086 171.721 27.2662 171.864 27.0905 171.864Z" fill="#E6E6E6"/>
<path d="M67.4161 171.63C67.2809 171.63 67.1554 171.543 67.1127 171.407L48.1031 110.938C48.0504 110.77 48.1435 110.591 48.3111 110.538C48.4787 110.486 48.6574 110.579 48.7101 110.747L67.7196 171.216C67.7724 171.383 67.6792 171.562 67.5116 171.615C67.4799 171.625 67.4477 171.63 67.4161 171.63Z" fill="#E6E6E6"/>
<path d="M61.6097 171.704C61.4676 171.704 61.3382 171.609 61.3015 171.464L48.0983 118.096C48.055 117.926 48.1579 117.752 48.3282 117.709C48.499 117.666 48.6716 117.769 48.715 117.939L61.9183 171.307C61.9615 171.478 61.8586 171.651 61.6884 171.695C61.662 171.701 61.6356 171.704 61.6097 171.704Z" fill="#E6E6E6"/>
<path d="M27.0905 113.7L49.1225 113.361L53.1789 136.525H27.4086L27.0905 113.7Z" fill="#E6E6E6"/>
<path d="M60.9482 147.761L55.3958 157.545L61.8426 158.965L64.5304 152.007L60.9482 147.761Z" fill="#FFB6B6"/>
<path d="M57.3901 155.698C57.3901 155.698 57.1743 154.102 55.9059 154.609C54.6374 155.115 50.9767 156.996 50.9767 156.996C50.9767 156.996 60.5248 172.523 62.3369 171.8C64.1489 171.077 61.9797 166.688 61.9797 166.688L62.4585 158.93L57.3901 155.698Z" fill="#2F2E41"/>
<path d="M36.3925 128.778C36.3925 128.778 34.4114 137.898 40.4868 141.07C46.5621 144.243 67.2977 136.444 67.2977 136.444L57.7884 150.704L64.3921 153.363C64.3921 153.363 79.4484 133.536 78.3918 130.364C77.3353 127.192 70.2033 126.927 70.2033 126.927L54.0903 127.72L49.864 126.398L36.3925 128.778Z" fill="#2F2E41"/>
<path d="M52.7339 152.104L44.0049 159.194L49.4933 162.865L54.5268 157.363L52.7339 152.104Z" fill="#FFB6B6"/>
<path d="M46.534 158.2C46.534 158.2 46.9132 156.635 45.5476 156.645C44.1821 156.655 40.0881 157.074 40.0881 157.074C40.0881 157.074 43.3362 175.014 45.287 175C47.2378 174.986 46.8132 170.108 46.8132 170.108L50.0799 163.056L46.534 158.2Z" fill="#2F2E41"/>
<path d="M36.7639 125.479C36.7639 125.479 31.6025 133.252 36.108 138.42C40.6134 143.587 62.7629 143.874 62.7629 143.874L48.7208 153.694L53.9049 158.575C53.9049 158.575 75.138 145.591 75.3073 142.251C75.4765 138.912 68.9296 136.068 68.9296 136.068L53.6329 130.939L50.1769 128.169L36.7639 125.479Z" fill="#2F2E41"/>
<path d="M50.0231 107.473C50.0231 107.473 45.0043 105.623 42.627 105.623C42.3998 105.623 42.1753 105.649 41.9507 105.697C40.4293 106.019 39.0293 107.328 38.3584 108.041C38.0968 108.322 37.9463 108.509 37.9463 108.509C37.9463 108.509 37.9621 108.327 37.9938 108.007C38.1497 106.326 38.7255 100.809 39.7583 97.2768C40.1281 96.0158 40.5534 95.0086 41.0421 94.5196C42.1806 93.3775 42.7062 92.0081 42.9492 90.9877C43.1553 90.1127 43.1553 89.4967 43.1553 89.4967L41.2296 88.6666L40.873 86.335C40.8096 86.6099 40.5164 87.1466 39.5312 88.1749C39.4466 88.2622 39.3542 88.3362 39.2564 88.3996C37.8353 89.2932 34.9376 87.7387 33.3765 86.7606C34.0263 84.5003 35.2044 82.4331 37.344 82.0947C42.3628 81.3016 42.3628 78.3937 45.5326 81.566C45.7941 81.8277 46.0582 82.0788 46.3224 82.322C47.3367 84.2624 47.7065 86.8637 47.8386 88.6719C47.9337 89.9382 47.9099 90.8185 47.9099 90.8185C47.9099 90.8185 49.2306 98.7493 51.3438 100.335C53.457 101.922 50.0231 107.473 50.0231 107.473Z" fill="#2F2E41"/>
<path d="M40.2496 94.7839L36.6805 100.023L44.7401 102.186V94.7839H40.2496Z" fill="#FFB6B6"/>
<path opacity="0.1" d="M40.2496 94.7839L36.6805 100.023L44.7401 102.186V94.7839H40.2496Z" fill="black"/>
<path d="M45.2414 99.8305L37.5812 96.6582C37.5812 96.6582 27.2794 101.152 28.0719 109.876C28.8643 118.6 36.2604 133.668 36.2604 133.668L51.0526 127.324L49.4678 110.405L45.2414 99.8305Z" fill="#E6E6E6"/>
<path d="M41.957 97.1232C45.6894 97.1232 48.7152 94.095 48.7152 90.3596C48.7152 86.6241 45.6894 83.5959 41.957 83.5959C38.2245 83.5959 35.1988 86.6241 35.1988 90.3596C35.1988 94.095 38.2245 97.1232 41.957 97.1232Z" fill="#FFB6B6"/>
<path d="M51.0797 87.9106C49.7589 89.2324 48.7023 90.5542 48.7023 90.5542L48.174 88.4393C48.174 88.4393 48.0525 88.5292 47.8386 88.6719C47.0012 89.2429 44.7533 90.6784 42.9492 90.9877C42.1462 91.1252 41.433 91.0379 40.9681 90.5542C39.9829 89.5258 39.6897 88.9892 39.6263 88.7142L39.2696 91.0459L37.344 91.876C37.344 91.876 37.344 94.7786 39.4572 96.8988C39.5602 97.0019 39.6606 97.1288 39.7583 97.2768C40.7674 98.7995 41.4911 102.527 41.9507 105.697C42.3575 108.515 42.553 110.889 42.553 110.889C42.553 110.889 40.5534 108.383 38.3584 108.041C38.2368 108.023 38.1153 108.01 37.9938 108.007C37.9542 108.002 37.9119 108.002 37.8723 108.002C35.495 108.002 30.4762 109.852 30.4762 109.852C30.4762 109.852 27.0423 104.301 29.1555 102.715C31.2686 101.129 32.5894 93.1978 32.5894 93.1978C32.5894 93.1978 32.5022 89.8034 33.3765 86.7606C34.0263 84.5003 35.2044 82.4331 37.344 82.0947C42.3628 81.3016 42.3628 78.3937 45.5326 81.566C45.7941 81.8277 46.0582 82.0788 46.3224 82.322C49.2755 85.0397 52.2921 86.6972 51.0797 87.9106Z" fill="#2F2E41"/>
<path d="M21.4388 123.397H18.9289V173.007H21.4388V123.397Z" fill="#3F3D56"/>
<path d="M82.3036 123.397H79.7937V173.007H82.3036V123.397Z" fill="#3F3D56"/>
<path d="M66.3031 102.36H49.675V119.001H66.3031V102.36Z" fill="#FF5757"/>
<path d="M40.0905 120.054L46.8512 115.751L49.5998 117.41L40.0905 128.346V120.054Z" fill="#FFB6B6"/>
<path d="M30.8454 103.399C30.8454 103.399 26.3549 104.457 28.4681 110.537C30.5813 116.617 37.4491 129.306 39.5623 128.513C41.6754 127.72 41.9396 119.789 41.9396 119.789C41.9396 119.789 41.6754 120.054 40.6188 118.996C39.5623 117.939 39.5623 118.422 39.5623 117.255C39.5623 116.088 38.6981 115.224 38.6981 115.224L37.7132 113.181C37.7132 113.181 37.7132 103.664 33.751 103.135C29.7888 102.606 30.8454 103.399 30.8454 103.399Z" fill="#E6E6E6"/>
<path d="M51.8252 117.126C53.5788 115.371 54.1224 113.069 53.0392 111.985C51.9561 110.901 49.6564 111.445 47.9028 113.2C46.1492 114.955 45.6056 117.257 46.6887 118.341C47.7719 119.425 50.0715 118.881 51.8252 117.126Z" fill="#FFB6B6"/>
<path d="M87.3233 121.513H11.3992V127.165H87.3233V121.513Z" fill="#3F3D56"/>
<path d="M164.462 76.2991H153.249C152.36 76.2991 151.639 77.0202 151.639 77.9098V82.538C151.639 83.4276 152.36 84.1488 153.249 84.1488H164.462C165.351 84.1488 166.071 83.4276 166.071 82.538V77.9098C166.071 77.0202 165.351 76.2991 164.462 76.2991Z" fill="#3F3D56"/>
<path d="M187.992 80.9272H176.779C175.89 80.9272 175.169 81.6484 175.169 82.538V82.538C175.169 83.4276 175.89 84.1487 176.779 84.1487H187.992C188.881 84.1487 189.601 83.4276 189.601 82.538V82.538C189.601 81.6484 188.881 80.9272 187.992 80.9272Z" fill="#FF5757"/>
</g>
<defs>
<clipPath id="clip0_169_2266">
<rect width="267" height="175" fill="white"/>
</clipPath>
</defs>
</svg>
