<svg width="321" height="152" viewBox="0 0 321 152" fill="none" xmlns="http://www.w3.org/2000/svg">
<rect width="321" height="152" rx="5" fill="#040505"/>
<path d="M64.9859 68V44.7273H74.304C76.0162 44.7273 77.4442 44.9811 78.5881 45.4886C79.7321 45.9962 80.5919 46.7008 81.1677 47.6023C81.7434 48.4962 82.0313 49.5265 82.0313 50.6932C82.0313 51.6023 81.8495 52.4015 81.4859 53.0909C81.1222 53.7727 80.6222 54.3333 79.9859 54.7727C79.3571 55.2045 78.6374 55.5114 77.8268 55.6932V55.9205C78.7131 55.9583 79.5427 56.2083 80.3154 56.6705C81.0957 57.1326 81.7283 57.7803 82.2131 58.6136C82.698 59.4394 82.9404 60.4242 82.9404 61.5682C82.9404 62.803 82.6336 63.9053 82.0199 64.875C81.4139 65.8371 80.5162 66.5985 79.3268 67.1591C78.1374 67.7197 76.6715 68 74.929 68H64.9859ZM69.9063 63.9773H73.9177C75.2889 63.9773 76.2889 63.7159 76.9177 63.1932C77.5465 62.6629 77.8609 61.9583 77.8609 61.0795C77.8609 60.4356 77.7056 59.8674 77.3949 59.375C77.0843 58.8826 76.6412 58.4962 76.0654 58.2159C75.4972 57.9356 74.8192 57.7955 74.0313 57.7955H69.9063V63.9773ZM69.9063 54.4659H73.554C74.2283 54.4659 74.8268 54.3485 75.3495 54.1136C75.8798 53.8712 76.2965 53.5303 76.5995 53.0909C76.9101 52.6515 77.0654 52.125 77.0654 51.5114C77.0654 50.6705 76.7662 49.9924 76.1677 49.4773C75.5768 48.9621 74.7359 48.7045 73.6449 48.7045H69.9063V54.4659ZM93.6857 68.3409C91.8903 68.3409 90.3448 67.9773 89.0494 67.25C87.7615 66.5152 86.7691 65.4773 86.0721 64.1364C85.3751 62.7879 85.0267 61.1932 85.0267 59.3523C85.0267 57.5568 85.3751 55.9811 86.0721 54.625C86.7691 53.2689 87.7501 52.2121 89.0153 51.4545C90.288 50.697 91.7804 50.3182 93.4926 50.3182C94.6441 50.3182 95.716 50.5038 96.7085 50.875C97.7085 51.2386 98.5797 51.7879 99.3221 52.5227C100.072 53.2576 100.655 54.1818 101.072 55.2955C101.489 56.4015 101.697 57.697 101.697 59.1818V60.5114H86.9585V57.5114H97.1403C97.1403 56.8144 96.9888 56.197 96.6857 55.6591C96.3827 55.1212 95.9623 54.7008 95.4244 54.3977C94.8941 54.0871 94.2767 53.9318 93.5721 53.9318C92.8373 53.9318 92.1857 54.1023 91.6176 54.4432C91.057 54.7765 90.6176 55.2273 90.2994 55.7955C89.9812 56.3561 89.8183 56.9811 89.8107 57.6705V60.5227C89.8107 61.3864 89.9698 62.1326 90.288 62.7614C90.6138 63.3902 91.0721 63.875 91.663 64.2159C92.2539 64.5568 92.9547 64.7273 93.7653 64.7273C94.3032 64.7273 94.7956 64.6515 95.2426 64.5C95.6895 64.3485 96.0721 64.1212 96.3903 63.8182C96.7085 63.5152 96.9509 63.1439 97.1176 62.7045L101.595 63C101.368 64.0758 100.902 65.0152 100.197 65.8182C99.5001 66.6136 98.5986 67.2348 97.4926 67.6818C96.3941 68.1212 95.1251 68.3409 93.6857 68.3409ZM108.182 83.7273H114.25L120.659 99.3636H120.932L127.341 83.7273H133.409V107H128.637V91.8523H128.443L122.421 106.886H119.171L113.148 91.7955H112.955V107H108.182V83.7273ZM142.03 107.33C140.916 107.33 139.924 107.136 139.052 106.75C138.181 106.356 137.492 105.777 136.984 105.011C136.484 104.239 136.234 103.277 136.234 102.125C136.234 101.155 136.412 100.341 136.768 99.6818C137.124 99.0227 137.609 98.4924 138.223 98.0909C138.837 97.6894 139.534 97.3864 140.314 97.1818C141.102 96.9773 141.927 96.8333 142.791 96.75C143.806 96.6439 144.624 96.5455 145.246 96.4545C145.867 96.3561 146.318 96.2121 146.598 96.0227C146.878 95.8333 147.018 95.553 147.018 95.1818V95.1136C147.018 94.3939 146.791 93.8371 146.337 93.4432C145.89 93.0492 145.253 92.8523 144.427 92.8523C143.556 92.8523 142.863 93.0455 142.348 93.4318C141.833 93.8106 141.492 94.2879 141.325 94.8636L136.848 94.5C137.075 93.4394 137.522 92.5227 138.189 91.75C138.855 90.9697 139.715 90.3712 140.768 89.9545C141.829 89.5303 143.056 89.3182 144.45 89.3182C145.42 89.3182 146.348 89.4318 147.234 89.6591C148.128 89.8864 148.92 90.2386 149.609 90.7159C150.306 91.1932 150.855 91.8068 151.257 92.5568C151.659 93.2992 151.859 94.1894 151.859 95.2273V107H147.268V104.58H147.132C146.852 105.125 146.477 105.606 146.007 106.023C145.537 106.432 144.973 106.754 144.314 106.989C143.655 107.216 142.893 107.33 142.03 107.33ZM143.416 103.989C144.128 103.989 144.757 103.848 145.302 103.568C145.848 103.28 146.276 102.894 146.587 102.409C146.897 101.924 147.052 101.375 147.052 100.761V98.9091C146.901 99.0076 146.693 99.0985 146.427 99.1818C146.17 99.2576 145.878 99.3295 145.552 99.3977C145.227 99.4583 144.901 99.5152 144.575 99.5682C144.249 99.6136 143.954 99.6553 143.689 99.6932C143.121 99.7765 142.624 99.9091 142.2 100.091C141.776 100.273 141.446 100.519 141.212 100.83C140.977 101.133 140.859 101.511 140.859 101.966C140.859 102.625 141.098 103.129 141.575 103.477C142.06 103.818 142.674 103.989 143.416 103.989ZM169.818 94.5227L165.386 94.7955C165.31 94.4167 165.147 94.0758 164.897 93.7727C164.647 93.4621 164.318 93.2159 163.909 93.0341C163.507 92.8447 163.026 92.75 162.465 92.75C161.715 92.75 161.083 92.9091 160.568 93.2273C160.053 93.5379 159.795 93.9545 159.795 94.4773C159.795 94.8939 159.962 95.2462 160.295 95.5341C160.628 95.822 161.2 96.053 162.011 96.2273L165.17 96.8636C166.867 97.2121 168.132 97.7727 168.965 98.5455C169.799 99.3182 170.215 100.333 170.215 101.591C170.215 102.735 169.878 103.739 169.204 104.602C168.537 105.466 167.621 106.14 166.454 106.625C165.295 107.102 163.958 107.341 162.443 107.341C160.132 107.341 158.291 106.86 156.92 105.898C155.556 104.928 154.757 103.61 154.522 101.943L159.284 101.693C159.428 102.398 159.776 102.936 160.329 103.307C160.882 103.67 161.59 103.852 162.454 103.852C163.303 103.852 163.984 103.689 164.499 103.364C165.022 103.03 165.287 102.602 165.295 102.08C165.287 101.64 165.102 101.28 164.738 101C164.374 100.712 163.814 100.492 163.056 100.341L160.034 99.7386C158.329 99.3977 157.06 98.8068 156.227 97.9659C155.401 97.125 154.988 96.053 154.988 94.75C154.988 93.6288 155.291 92.6629 155.897 91.8523C156.511 91.0417 157.371 90.4167 158.477 89.9773C159.59 89.5379 160.893 89.3182 162.386 89.3182C164.59 89.3182 166.325 89.7841 167.59 90.7159C168.863 91.6477 169.606 92.9167 169.818 94.5227ZM182.228 89.5455V93.1818H171.716V89.5455H182.228ZM174.103 85.3636H178.944V101.636C178.944 102.083 179.012 102.432 179.148 102.682C179.285 102.924 179.474 103.095 179.716 103.193C179.966 103.292 180.254 103.341 180.58 103.341C180.807 103.341 181.035 103.322 181.262 103.284C181.489 103.239 181.663 103.205 181.785 103.182L182.546 106.784C182.304 106.86 181.963 106.947 181.523 107.045C181.084 107.152 180.55 107.216 179.921 107.239C178.754 107.284 177.732 107.129 176.853 106.773C175.982 106.417 175.304 105.864 174.819 105.114C174.334 104.364 174.095 103.417 174.103 102.273V85.3636ZM192.828 107.341C191.033 107.341 189.487 106.977 188.192 106.25C186.904 105.515 185.912 104.477 185.215 103.136C184.518 101.788 184.169 100.193 184.169 98.3523C184.169 96.5568 184.518 94.9811 185.215 93.625C185.912 92.2689 186.893 91.2121 188.158 90.4545C189.431 89.697 190.923 89.3182 192.635 89.3182C193.787 89.3182 194.859 89.5038 195.851 89.875C196.851 90.2386 197.722 90.7879 198.465 91.5227C199.215 92.2576 199.798 93.1818 200.215 94.2955C200.631 95.4015 200.84 96.697 200.84 98.1818V99.5114H186.101V96.5114H196.283C196.283 95.8144 196.131 95.197 195.828 94.6591C195.525 94.1212 195.105 93.7008 194.567 93.3977C194.037 93.0871 193.419 92.9318 192.715 92.9318C191.98 92.9318 191.328 93.1023 190.76 93.4432C190.199 93.7765 189.76 94.2273 189.442 94.7955C189.124 95.3561 188.961 95.9811 188.953 96.6705V99.5227C188.953 100.386 189.112 101.133 189.431 101.761C189.756 102.39 190.215 102.875 190.806 103.216C191.396 103.557 192.097 103.727 192.908 103.727C193.446 103.727 193.938 103.652 194.385 103.5C194.832 103.348 195.215 103.121 195.533 102.818C195.851 102.515 196.093 102.144 196.26 101.705L200.737 102C200.51 103.076 200.044 104.015 199.34 104.818C198.643 105.614 197.741 106.235 196.635 106.682C195.537 107.121 194.268 107.341 192.828 107.341ZM203.679 107V89.5455H208.372V92.5909H208.554C208.872 91.5076 209.406 90.6894 210.156 90.1364C210.906 89.5758 211.77 89.2955 212.747 89.2955C212.989 89.2955 213.251 89.3106 213.531 89.3409C213.811 89.3712 214.057 89.4129 214.27 89.4659V93.7614C214.042 93.6932 213.728 93.6326 213.326 93.5795C212.925 93.5265 212.557 93.5 212.224 93.5C211.512 93.5 210.876 93.6553 210.315 93.9659C209.762 94.2689 209.323 94.6932 208.997 95.2386C208.679 95.7841 208.52 96.4129 208.52 97.125V107H203.679Z" fill="#FDFDFD"/>
<path d="M111.713 68V44.7273H121.032C122.744 44.7273 124.172 44.9811 125.316 45.4886C126.46 45.9962 127.319 46.7008 127.895 47.6023C128.471 48.4962 128.759 49.5265 128.759 50.6932C128.759 51.6023 128.577 52.4015 128.213 53.0909C127.85 53.7727 127.35 54.3333 126.713 54.7727C126.085 55.2045 125.365 55.5114 124.554 55.6932V55.9205C125.441 55.9583 126.27 56.2083 127.043 56.6705C127.823 57.1326 128.456 57.7803 128.941 58.6136C129.425 59.4394 129.668 60.4242 129.668 61.5682C129.668 62.803 129.361 63.9053 128.747 64.875C128.141 65.8371 127.244 66.5985 126.054 67.1591C124.865 67.7197 123.399 68 121.657 68H111.713ZM116.634 63.9773H120.645C122.016 63.9773 123.016 63.7159 123.645 63.1932C124.274 62.6629 124.588 61.9583 124.588 61.0795C124.588 60.4356 124.433 59.8674 124.122 59.375C123.812 58.8826 123.369 58.4962 122.793 58.2159C122.225 57.9356 121.547 57.7955 120.759 57.7955H116.634V63.9773ZM116.634 54.4659H120.282C120.956 54.4659 121.554 54.3485 122.077 54.1136C122.607 53.8712 123.024 53.5303 123.327 53.0909C123.638 52.6515 123.793 52.125 123.793 51.5114C123.793 50.6705 123.494 49.9924 122.895 49.4773C122.304 48.9621 121.463 48.7045 120.372 48.7045H116.634V54.4659ZM137.436 68.3295C136.322 68.3295 135.33 68.1364 134.459 67.75C133.587 67.3561 132.898 66.7765 132.391 66.0114C131.891 65.2386 131.641 64.2765 131.641 63.125C131.641 62.1553 131.819 61.3409 132.175 60.6818C132.531 60.0227 133.016 59.4924 133.629 59.0909C134.243 58.6894 134.94 58.3864 135.72 58.1818C136.508 57.9773 137.334 57.8333 138.197 57.75C139.212 57.6439 140.031 57.5455 140.652 57.4545C141.273 57.3561 141.724 57.2121 142.004 57.0227C142.284 56.8333 142.425 56.553 142.425 56.1818V56.1136C142.425 55.3939 142.197 54.8371 141.743 54.4432C141.296 54.0492 140.659 53.8523 139.834 53.8523C138.962 53.8523 138.269 54.0455 137.754 54.4318C137.239 54.8106 136.898 55.2879 136.731 55.8636L132.254 55.5C132.481 54.4394 132.928 53.5227 133.595 52.75C134.262 51.9697 135.122 51.3712 136.175 50.9545C137.235 50.5303 138.462 50.3182 139.856 50.3182C140.826 50.3182 141.754 50.4318 142.641 50.6591C143.534 50.8864 144.326 51.2386 145.016 51.7159C145.712 52.1932 146.262 52.8068 146.663 53.5568C147.065 54.2992 147.266 55.1894 147.266 56.2273V68H142.675V65.5795H142.538C142.258 66.125 141.883 66.6061 141.413 67.0227C140.944 67.4318 140.379 67.7538 139.72 67.9886C139.061 68.2159 138.3 68.3295 137.436 68.3295ZM138.822 64.9886C139.534 64.9886 140.163 64.8485 140.709 64.5682C141.254 64.2803 141.682 63.8939 141.993 63.4091C142.303 62.9242 142.459 62.375 142.459 61.7614V59.9091C142.307 60.0076 142.099 60.0985 141.834 60.1818C141.576 60.2576 141.284 60.3295 140.959 60.3977C140.633 60.4583 140.307 60.5152 139.981 60.5682C139.656 60.6136 139.36 60.6553 139.095 60.6932C138.527 60.7765 138.031 60.9091 137.606 61.0909C137.182 61.2727 136.853 61.5189 136.618 61.8295C136.383 62.1326 136.266 62.5114 136.266 62.9659C136.266 63.625 136.504 64.1288 136.981 64.4773C137.466 64.8182 138.08 64.9886 138.822 64.9886ZM158.588 68.3409C156.8 68.3409 155.262 67.9621 153.974 67.2045C152.694 66.4394 151.709 65.3788 151.019 64.0227C150.338 62.6667 149.997 61.1061 149.997 59.3409C149.997 57.553 150.341 55.9848 151.031 54.6364C151.728 53.2803 152.716 52.2235 153.997 51.4659C155.277 50.7008 156.8 50.3182 158.565 50.3182C160.088 50.3182 161.421 50.5947 162.565 51.1477C163.709 51.7008 164.614 52.4773 165.281 53.4773C165.947 54.4773 166.315 55.6515 166.383 57H161.815C161.686 56.1288 161.345 55.428 160.792 54.8977C160.247 54.3598 159.531 54.0909 158.644 54.0909C157.894 54.0909 157.239 54.2955 156.678 54.7045C156.125 55.1061 155.694 55.6932 155.383 56.4659C155.072 57.2386 154.917 58.1742 154.917 59.2727C154.917 60.3864 155.069 61.3333 155.372 62.1136C155.682 62.8939 156.118 63.4886 156.678 63.8977C157.239 64.3068 157.894 64.5114 158.644 64.5114C159.197 64.5114 159.694 64.3977 160.133 64.1705C160.58 63.9432 160.947 63.6136 161.235 63.1818C161.531 62.7424 161.724 62.2159 161.815 61.6023H166.383C166.307 62.9356 165.944 64.1098 165.292 65.125C164.648 66.1326 163.758 66.9205 162.622 67.4886C161.485 68.0568 160.141 68.3409 158.588 68.3409ZM173.549 62.9773L173.56 57.1705H174.265L179.856 50.5455H185.412L177.901 59.3182H176.753L173.549 62.9773ZM169.162 68V44.7273H174.003V68H169.162ZM180.072 68L174.935 60.3977L178.162 56.9773L185.742 68H180.072ZM197.749 56.5227V60.3636H187.135V56.5227H197.749ZM209.508 68.3409C207.713 68.3409 206.167 67.9773 204.872 67.25C203.584 66.5152 202.592 65.4773 201.895 64.1364C201.198 62.7879 200.849 61.1932 200.849 59.3523C200.849 57.5568 201.198 55.9811 201.895 54.625C202.592 53.2689 203.573 52.2121 204.838 51.4545C206.111 50.697 207.603 50.3182 209.315 50.3182C210.467 50.3182 211.539 50.5038 212.531 50.875C213.531 51.2386 214.402 51.7879 215.145 52.5227C215.895 53.2576 216.478 54.1818 216.895 55.2955C217.311 56.4015 217.52 57.697 217.52 59.1818V60.5114H202.781V57.5114H212.963C212.963 56.8144 212.811 56.197 212.508 55.6591C212.205 55.1212 211.785 54.7008 211.247 54.3977C210.717 54.0871 210.099 53.9318 209.395 53.9318C208.66 53.9318 208.008 54.1023 207.44 54.4432C206.879 54.7765 206.44 55.2273 206.122 55.7955C205.804 56.3561 205.641 56.9811 205.633 57.6705V60.5227C205.633 61.3864 205.792 62.1326 206.111 62.7614C206.436 63.3902 206.895 63.875 207.486 64.2159C208.076 64.5568 208.777 64.7273 209.588 64.7273C210.126 64.7273 210.618 64.6515 211.065 64.5C211.512 64.3485 211.895 64.1212 212.213 63.8182C212.531 63.5152 212.773 63.1439 212.94 62.7045L217.417 63C217.19 64.0758 216.724 65.0152 216.02 65.8182C215.323 66.6136 214.421 67.2348 213.315 67.6818C212.217 68.1212 210.948 68.3409 209.508 68.3409ZM225.2 57.9091V68H220.359V50.5455H224.972V53.625H225.177C225.563 52.6098 226.211 51.8068 227.12 51.2159C228.029 50.6174 229.131 50.3182 230.427 50.3182C231.639 50.3182 232.696 50.5833 233.597 51.1136C234.499 51.6439 235.2 52.4015 235.7 53.3864C236.2 54.3636 236.45 55.5303 236.45 56.8864V68H231.609V57.75C231.616 56.6818 231.344 55.8485 230.791 55.25C230.237 54.6439 229.476 54.3409 228.506 54.3409C227.855 54.3409 227.279 54.4811 226.779 54.7614C226.287 55.0417 225.9 55.4508 225.62 55.9886C225.347 56.5189 225.207 57.1591 225.2 57.9091ZM246.377 68.2841C245.051 68.2841 243.85 67.9432 242.774 67.2614C241.706 66.572 240.858 65.5606 240.229 64.2273C239.608 62.8864 239.297 61.2424 239.297 59.2955C239.297 57.2955 239.619 55.6326 240.263 54.3068C240.907 52.9735 241.763 51.9773 242.831 51.3182C243.907 50.6515 245.085 50.3182 246.365 50.3182C247.343 50.3182 248.157 50.4848 248.809 50.8182C249.468 51.1439 249.998 51.553 250.399 52.0455C250.809 52.5303 251.119 53.0076 251.331 53.4773H251.479V44.7273H256.309V68H251.536V65.2045H251.331C251.104 65.6894 250.782 66.1705 250.365 66.6477C249.956 67.1174 249.422 67.5076 248.763 67.8182C248.112 68.1288 247.316 68.2841 246.377 68.2841ZM247.911 64.4318C248.691 64.4318 249.35 64.2197 249.888 63.7955C250.434 63.3636 250.85 62.7614 251.138 61.9886C251.434 61.2159 251.581 60.3106 251.581 59.2727C251.581 58.2348 251.437 57.3333 251.149 56.5682C250.862 55.803 250.445 55.2121 249.899 54.7955C249.354 54.3788 248.691 54.1705 247.911 54.1705C247.115 54.1705 246.445 54.3864 245.899 54.8182C245.354 55.25 244.941 55.8485 244.661 56.6136C244.381 57.3788 244.24 58.2652 244.24 59.2727C244.24 60.2879 244.381 61.1856 244.661 61.9659C244.949 62.7386 245.362 63.3447 245.899 63.7841C246.445 64.2159 247.115 64.4318 247.911 64.4318Z" fill="#FF5757"/>
</svg>
