<svg width="321" height="152" viewBox="0 0 321 152" fill="none" xmlns="http://www.w3.org/2000/svg">
<rect width="321" height="152" rx="5" fill="#040505"/>
<path d="M62.3334 68V44.7273H71.6515C73.3637 44.7273 74.7917 44.9811 75.9356 45.4886C77.0796 45.9962 77.9394 46.7008 78.5152 47.6023C79.0909 48.4962 79.3788 49.5265 79.3788 50.6932C79.3788 51.6023 79.197 52.4015 78.8334 53.0909C78.4697 53.7727 77.9697 54.3333 77.3334 54.7727C76.7046 55.2045 75.9849 55.5114 75.1743 55.6932V55.9205C76.0606 55.9583 76.8902 56.2083 77.6629 56.6705C78.4432 57.1326 79.0758 57.7803 79.5606 58.6136C80.0455 59.4394 80.2879 60.4242 80.2879 61.5682C80.2879 62.803 79.9811 63.9053 79.3674 64.875C78.7614 65.8371 77.8637 66.5985 76.6743 67.1591C75.4849 67.7197 74.019 68 72.2765 68H62.3334ZM67.2538 63.9773H71.2652C72.6364 63.9773 73.6364 63.7159 74.2652 63.1932C74.894 62.6629 75.2084 61.9583 75.2084 61.0795C75.2084 60.4356 75.053 59.8674 74.7424 59.375C74.4318 58.8826 73.9887 58.4962 73.4129 58.2159C72.8447 57.9356 72.1667 57.7955 71.3788 57.7955H67.2538V63.9773ZM67.2538 54.4659H70.9015C71.5758 54.4659 72.1743 54.3485 72.697 54.1136C73.2273 53.8712 73.644 53.5303 73.947 53.0909C74.2576 52.6515 74.4129 52.125 74.4129 51.5114C74.4129 50.6705 74.1137 49.9924 73.5152 49.4773C72.9243 48.9621 72.0834 48.7045 70.9924 48.7045H67.2538V54.4659ZM91.0332 68.3409C89.2378 68.3409 87.6923 67.9773 86.3969 67.25C85.109 66.5152 84.1166 65.4773 83.4196 64.1364C82.7226 62.7879 82.3741 61.1932 82.3741 59.3523C82.3741 57.5568 82.7226 55.9811 83.4196 54.625C84.1166 53.2689 85.0976 52.2121 86.3628 51.4545C87.6355 50.697 89.1279 50.3182 90.8401 50.3182C91.9916 50.3182 93.0635 50.5038 94.056 50.875C95.056 51.2386 95.9272 51.7879 96.6696 52.5227C97.4196 53.2576 98.0029 54.1818 98.4196 55.2955C98.8363 56.4015 99.0446 57.697 99.0446 59.1818V60.5114H84.306V57.5114H94.4878C94.4878 56.8144 94.3363 56.197 94.0332 55.6591C93.7302 55.1212 93.3098 54.7008 92.7719 54.3977C92.2416 54.0871 91.6241 53.9318 90.9196 53.9318C90.1848 53.9318 89.5332 54.1023 88.9651 54.4432C88.4044 54.7765 87.9651 55.2273 87.6469 55.7955C87.3287 56.3561 87.1658 56.9811 87.1582 57.6705V60.5227C87.1582 61.3864 87.3173 62.1326 87.6355 62.7614C87.9613 63.3902 88.4196 63.875 89.0105 64.2159C89.6014 64.5568 90.3022 64.7273 91.1128 64.7273C91.6507 64.7273 92.1431 64.6515 92.5901 64.5C93.037 64.3485 93.4196 64.1212 93.7378 63.8182C94.056 63.5152 94.2984 63.1439 94.4651 62.7045L98.9423 63C98.7151 64.0758 98.2491 65.0152 97.5446 65.8182C96.8476 66.6136 95.9461 67.2348 94.8401 67.6818C93.7416 68.1212 92.4726 68.3409 91.0332 68.3409ZM108.182 83.7273H114.25L120.659 99.3636H120.932L127.341 83.7273H133.409V107H128.637V91.8523H128.443L122.421 106.886H119.171L113.148 91.7955H112.955V107H108.182V83.7273ZM142.03 107.33C140.916 107.33 139.924 107.136 139.052 106.75C138.181 106.356 137.492 105.777 136.984 105.011C136.484 104.239 136.234 103.277 136.234 102.125C136.234 101.155 136.412 100.341 136.768 99.6818C137.124 99.0227 137.609 98.4924 138.223 98.0909C138.837 97.6894 139.534 97.3864 140.314 97.1818C141.102 96.9773 141.927 96.8333 142.791 96.75C143.806 96.6439 144.624 96.5455 145.246 96.4545C145.867 96.3561 146.318 96.2121 146.598 96.0227C146.878 95.8333 147.018 95.553 147.018 95.1818V95.1136C147.018 94.3939 146.791 93.8371 146.337 93.4432C145.89 93.0492 145.253 92.8523 144.427 92.8523C143.556 92.8523 142.863 93.0455 142.348 93.4318C141.833 93.8106 141.492 94.2879 141.325 94.8636L136.848 94.5C137.075 93.4394 137.522 92.5227 138.189 91.75C138.855 90.9697 139.715 90.3712 140.768 89.9545C141.829 89.5303 143.056 89.3182 144.45 89.3182C145.42 89.3182 146.348 89.4318 147.234 89.6591C148.128 89.8864 148.92 90.2386 149.609 90.7159C150.306 91.1932 150.855 91.8068 151.257 92.5568C151.659 93.2992 151.859 94.1894 151.859 95.2273V107H147.268V104.58H147.132C146.852 105.125 146.477 105.606 146.007 106.023C145.537 106.432 144.973 106.754 144.314 106.989C143.655 107.216 142.893 107.33 142.03 107.33ZM143.416 103.989C144.128 103.989 144.757 103.848 145.302 103.568C145.848 103.28 146.276 102.894 146.587 102.409C146.897 101.924 147.052 101.375 147.052 100.761V98.9091C146.901 99.0076 146.693 99.0985 146.427 99.1818C146.17 99.2576 145.878 99.3295 145.552 99.3977C145.227 99.4583 144.901 99.5152 144.575 99.5682C144.249 99.6136 143.954 99.6553 143.689 99.6932C143.121 99.7765 142.624 99.9091 142.2 100.091C141.776 100.273 141.446 100.519 141.212 100.83C140.977 101.133 140.859 101.511 140.859 101.966C140.859 102.625 141.098 103.129 141.575 103.477C142.06 103.818 142.674 103.989 143.416 103.989ZM169.818 94.5227L165.386 94.7955C165.31 94.4167 165.147 94.0758 164.897 93.7727C164.647 93.4621 164.318 93.2159 163.909 93.0341C163.507 92.8447 163.026 92.75 162.465 92.75C161.715 92.75 161.083 92.9091 160.568 93.2273C160.053 93.5379 159.795 93.9545 159.795 94.4773C159.795 94.8939 159.962 95.2462 160.295 95.5341C160.628 95.822 161.2 96.053 162.011 96.2273L165.17 96.8636C166.867 97.2121 168.132 97.7727 168.965 98.5455C169.799 99.3182 170.215 100.333 170.215 101.591C170.215 102.735 169.878 103.739 169.204 104.602C168.537 105.466 167.621 106.14 166.454 106.625C165.295 107.102 163.958 107.341 162.443 107.341C160.132 107.341 158.291 106.86 156.92 105.898C155.556 104.928 154.757 103.61 154.522 101.943L159.284 101.693C159.428 102.398 159.776 102.936 160.329 103.307C160.882 103.67 161.59 103.852 162.454 103.852C163.303 103.852 163.984 103.689 164.499 103.364C165.022 103.03 165.287 102.602 165.295 102.08C165.287 101.64 165.102 101.28 164.738 101C164.374 100.712 163.814 100.492 163.056 100.341L160.034 99.7386C158.329 99.3977 157.06 98.8068 156.227 97.9659C155.401 97.125 154.988 96.053 154.988 94.75C154.988 93.6288 155.291 92.6629 155.897 91.8523C156.511 91.0417 157.371 90.4167 158.477 89.9773C159.59 89.5379 160.893 89.3182 162.386 89.3182C164.59 89.3182 166.325 89.7841 167.59 90.7159C168.863 91.6477 169.606 92.9167 169.818 94.5227ZM182.228 89.5455V93.1818H171.716V89.5455H182.228ZM174.103 85.3636H178.944V101.636C178.944 102.083 179.012 102.432 179.148 102.682C179.285 102.924 179.474 103.095 179.716 103.193C179.966 103.292 180.254 103.341 180.58 103.341C180.807 103.341 181.035 103.322 181.262 103.284C181.489 103.239 181.663 103.205 181.785 103.182L182.546 106.784C182.304 106.86 181.963 106.947 181.523 107.045C181.084 107.152 180.55 107.216 179.921 107.239C178.754 107.284 177.732 107.129 176.853 106.773C175.982 106.417 175.304 105.864 174.819 105.114C174.334 104.364 174.095 103.417 174.103 102.273V85.3636ZM192.828 107.341C191.033 107.341 189.487 106.977 188.192 106.25C186.904 105.515 185.912 104.477 185.215 103.136C184.518 101.788 184.169 100.193 184.169 98.3523C184.169 96.5568 184.518 94.9811 185.215 93.625C185.912 92.2689 186.893 91.2121 188.158 90.4545C189.431 89.697 190.923 89.3182 192.635 89.3182C193.787 89.3182 194.859 89.5038 195.851 89.875C196.851 90.2386 197.722 90.7879 198.465 91.5227C199.215 92.2576 199.798 93.1818 200.215 94.2955C200.631 95.4015 200.84 96.697 200.84 98.1818V99.5114H186.101V96.5114H196.283C196.283 95.8144 196.131 95.197 195.828 94.6591C195.525 94.1212 195.105 93.7008 194.567 93.3977C194.037 93.0871 193.419 92.9318 192.715 92.9318C191.98 92.9318 191.328 93.1023 190.76 93.4432C190.199 93.7765 189.76 94.2273 189.442 94.7955C189.124 95.3561 188.961 95.9811 188.953 96.6705V99.5227C188.953 100.386 189.112 101.133 189.431 101.761C189.756 102.39 190.215 102.875 190.806 103.216C191.396 103.557 192.097 103.727 192.908 103.727C193.446 103.727 193.938 103.652 194.385 103.5C194.832 103.348 195.215 103.121 195.533 102.818C195.851 102.515 196.093 102.144 196.26 101.705L200.737 102C200.51 103.076 200.044 104.015 199.34 104.818C198.643 105.614 197.741 106.235 196.635 106.682C195.537 107.121 194.268 107.341 192.828 107.341ZM203.679 107V89.5455H208.372V92.5909H208.554C208.872 91.5076 209.406 90.6894 210.156 90.1364C210.906 89.5758 211.77 89.2955 212.747 89.2955C212.989 89.2955 213.251 89.3106 213.531 89.3409C213.811 89.3712 214.057 89.4129 214.27 89.4659V93.7614C214.042 93.6932 213.728 93.6326 213.326 93.5795C212.925 93.5265 212.557 93.5 212.224 93.5C211.512 93.5 210.876 93.6553 210.315 93.9659C209.762 94.2689 209.323 94.6932 208.997 95.2386C208.679 95.7841 208.52 96.4129 208.52 97.125V107H203.679Z" fill="#FDFDFD"/>
<path d="M109.061 68V44.7273H124.47V48.7841H113.981V54.3295H123.447V58.3864H113.981V68H109.061ZM127.087 68V50.5455H131.781V53.5909H131.962C132.281 52.5076 132.815 51.6894 133.565 51.1364C134.315 50.5758 135.178 50.2955 136.156 50.2955C136.398 50.2955 136.659 50.3106 136.94 50.3409C137.22 50.3712 137.466 50.4129 137.678 50.4659V54.7614C137.451 54.6932 137.137 54.6326 136.735 54.5795C136.334 54.5265 135.966 54.5 135.633 54.5C134.921 54.5 134.284 54.6553 133.724 54.9659C133.171 55.2689 132.731 55.6932 132.406 56.2386C132.087 56.7841 131.928 57.4129 131.928 58.125V68H127.087ZM146.935 68.3409C145.17 68.3409 143.643 67.9659 142.356 67.2159C141.075 66.4583 140.087 65.4053 139.39 64.0568C138.693 62.7008 138.344 61.1288 138.344 59.3409C138.344 57.5379 138.693 55.9621 139.39 54.6136C140.087 53.2576 141.075 52.2045 142.356 51.4545C143.643 50.697 145.17 50.3182 146.935 50.3182C148.7 50.3182 150.223 50.697 151.503 51.4545C152.791 52.2045 153.784 53.2576 154.481 54.6136C155.177 55.9621 155.526 57.5379 155.526 59.3409C155.526 61.1288 155.177 62.7008 154.481 64.0568C153.784 65.4053 152.791 66.4583 151.503 67.2159C150.223 67.9659 148.7 68.3409 146.935 68.3409ZM146.958 64.5909C147.761 64.5909 148.431 64.3636 148.969 63.9091C149.507 63.447 149.912 62.8182 150.185 62.0227C150.465 61.2273 150.606 60.322 150.606 59.3068C150.606 58.2917 150.465 57.3864 150.185 56.5909C149.912 55.7955 149.507 55.1667 148.969 54.7045C148.431 54.2424 147.761 54.0114 146.958 54.0114C146.147 54.0114 145.465 54.2424 144.912 54.7045C144.367 55.1667 143.954 55.7955 143.674 56.5909C143.401 57.3864 143.265 58.2917 143.265 59.3068C143.265 60.322 143.401 61.2273 143.674 62.0227C143.954 62.8182 144.367 63.447 144.912 63.9091C145.465 64.3636 146.147 64.5909 146.958 64.5909ZM163.195 57.9091V68H158.354V50.5455H162.967V53.625H163.172C163.558 52.6098 164.206 51.8068 165.115 51.2159C166.024 50.6174 167.126 50.3182 168.422 50.3182C169.634 50.3182 170.691 50.5833 171.592 51.1136C172.494 51.6439 173.195 52.4015 173.695 53.3864C174.195 54.3636 174.445 55.5303 174.445 56.8864V68H169.604V57.75C169.611 56.6818 169.339 55.8485 168.786 55.25C168.232 54.6439 167.471 54.3409 166.501 54.3409C165.85 54.3409 165.274 54.4811 164.774 54.7614C164.282 55.0417 163.895 55.4508 163.615 55.9886C163.342 56.5189 163.202 57.1591 163.195 57.9091ZM187.224 50.5455V54.1818H176.713V50.5455H187.224ZM179.099 46.3636H183.94V62.6364C183.94 63.0833 184.008 63.4318 184.144 63.6818C184.281 63.9242 184.47 64.0947 184.713 64.1932C184.963 64.2917 185.251 64.3409 185.576 64.3409C185.804 64.3409 186.031 64.322 186.258 64.2841C186.485 64.2386 186.66 64.2045 186.781 64.1818L187.542 67.7841C187.3 67.8598 186.959 67.947 186.519 68.0455C186.08 68.1515 185.546 68.2159 184.917 68.2386C183.751 68.2841 182.728 68.1288 181.849 67.7727C180.978 67.4167 180.3 66.8636 179.815 66.1136C179.33 65.3636 179.091 64.4167 179.099 63.2727V46.3636ZM200.401 56.5227V60.3636H189.788V56.5227H200.401ZM212.161 68.3409C210.365 68.3409 208.82 67.9773 207.524 67.25C206.236 66.5152 205.244 65.4773 204.547 64.1364C203.85 62.7879 203.502 61.1932 203.502 59.3523C203.502 57.5568 203.85 55.9811 204.547 54.625C205.244 53.2689 206.225 52.2121 207.49 51.4545C208.763 50.697 210.255 50.3182 211.968 50.3182C213.119 50.3182 214.191 50.5038 215.183 50.875C216.183 51.2386 217.055 51.7879 217.797 52.5227C218.547 53.2576 219.13 54.1818 219.547 55.2955C219.964 56.4015 220.172 57.697 220.172 59.1818V60.5114H205.433V57.5114H215.615C215.615 56.8144 215.464 56.197 215.161 55.6591C214.858 55.1212 214.437 54.7008 213.899 54.3977C213.369 54.0871 212.752 53.9318 212.047 53.9318C211.312 53.9318 210.661 54.1023 210.093 54.4432C209.532 54.7765 209.093 55.2273 208.774 55.7955C208.456 56.3561 208.293 56.9811 208.286 57.6705V60.5227C208.286 61.3864 208.445 62.1326 208.763 62.7614C209.089 63.3902 209.547 63.875 210.138 64.2159C210.729 64.5568 211.43 64.7273 212.24 64.7273C212.778 64.7273 213.271 64.6515 213.718 64.5C214.165 64.3485 214.547 64.1212 214.865 63.8182C215.183 63.5152 215.426 63.1439 215.593 62.7045L220.07 63C219.843 64.0758 219.377 65.0152 218.672 65.8182C217.975 66.6136 217.074 67.2348 215.968 67.6818C214.869 68.1212 213.6 68.3409 212.161 68.3409ZM227.852 57.9091V68H223.011V50.5455H227.625V53.625H227.829C228.216 52.6098 228.863 51.8068 229.773 51.2159C230.682 50.6174 231.784 50.3182 233.079 50.3182C234.291 50.3182 235.348 50.5833 236.25 51.1136C237.151 51.6439 237.852 52.4015 238.352 53.3864C238.852 54.3636 239.102 55.5303 239.102 56.8864V68H234.261V57.75C234.269 56.6818 233.996 55.8485 233.443 55.25C232.89 54.6439 232.129 54.3409 231.159 54.3409C230.507 54.3409 229.932 54.4811 229.432 54.7614C228.939 55.0417 228.553 55.4508 228.273 55.9886C228 56.5189 227.86 57.1591 227.852 57.9091ZM249.029 68.2841C247.703 68.2841 246.503 67.9432 245.427 67.2614C244.359 66.572 243.51 65.5606 242.882 64.2273C242.26 62.8864 241.95 61.2424 241.95 59.2955C241.95 57.2955 242.272 55.6326 242.916 54.3068C243.56 52.9735 244.416 51.9773 245.484 51.3182C246.56 50.6515 247.738 50.3182 249.018 50.3182C249.995 50.3182 250.81 50.4848 251.461 50.8182C252.12 51.1439 252.65 51.553 253.052 52.0455C253.461 52.5303 253.772 53.0076 253.984 53.4773H254.132V44.7273H258.961V68H254.188V65.2045H253.984C253.757 65.6894 253.435 66.1705 253.018 66.6477C252.609 67.1174 252.075 67.5076 251.416 67.8182C250.764 68.1288 249.969 68.2841 249.029 68.2841ZM250.563 64.4318C251.344 64.4318 252.003 64.2197 252.541 63.7955C253.086 63.3636 253.503 62.7614 253.791 61.9886C254.086 61.2159 254.234 60.3106 254.234 59.2727C254.234 58.2348 254.09 57.3333 253.802 56.5682C253.514 55.803 253.097 55.2121 252.552 54.7955C252.007 54.3788 251.344 54.1705 250.563 54.1705C249.768 54.1705 249.097 54.3864 248.552 54.8182C248.007 55.25 247.594 55.8485 247.313 56.6136C247.033 57.3788 246.893 58.2652 246.893 59.2727C246.893 60.2879 247.033 61.1856 247.313 61.9659C247.601 62.7386 248.014 63.3447 248.552 63.7841C249.097 64.2159 249.768 64.4318 250.563 64.4318Z" fill="#FF5757"/>
</svg>
