<svg width="273" height="159" viewBox="0 0 273 159" fill="none" xmlns="http://www.w3.org/2000/svg">
<g clip-path="url(#clip0_169_2202)">
<path d="M85.3674 93.8384V8.68276C85.3674 4.19888 89.0553 0.551025 93.5882 0.551025H264.279C268.812 0.551025 272.5 4.19888 272.5 8.68276V93.8384C272.5 98.3223 268.812 101.97 264.279 101.97H93.5882C89.0553 101.97 85.3674 98.3223 85.3674 93.8384ZM271.666 8.68276C271.666 4.64711 268.359 1.37557 264.279 1.37557H93.5882C89.5083 1.37557 86.201 4.6472 86.201 8.68296V93.8384C86.201 97.8742 89.5083 101.146 93.5882 101.146H209.69C243.919 101.146 271.666 73.6977 271.666 39.8387L271.666 8.68276Z" fill="#E6E6E6"/>
<path d="M145.503 16.0404H49.8385C47.0019 16.0404 44.6953 18.3221 44.6953 21.128V55.8906C44.6953 58.6966 47.0019 60.9782 49.8385 60.9782H145.503C148.339 60.9782 150.646 58.6966 150.646 55.8906V21.128C150.646 18.3221 148.339 16.0404 145.503 16.0404Z" fill="white"/>
<path d="M145.503 16.0404H49.8385C47.0019 16.0404 44.6953 18.3221 44.6953 21.128V55.8906C44.6953 58.6966 47.0019 60.9782 49.8385 60.9782H145.503C148.339 60.9782 150.646 58.6966 150.646 55.8906V21.128C150.646 18.3221 148.339 16.0404 145.503 16.0404ZM150.105 55.8906C150.105 58.4023 148.042 60.4433 145.503 60.4433H49.8385C47.2993 60.4433 45.2361 58.4023 45.2361 55.8906V21.128C45.2361 18.6163 47.2993 16.5754 49.8385 16.5754H145.503C148.042 16.5754 150.105 18.6163 150.105 21.128V55.8906Z" fill="#3F3D56"/>
<path d="M54.3176 31.8838H139.34C140.146 31.8838 140.799 32.5298 140.799 33.3267C140.799 34.1237 140.146 34.7697 139.34 34.7697H54.3176C53.512 34.7697 52.8589 34.1237 52.8589 33.3267C52.8589 32.5298 53.512 31.8838 54.3176 31.8838Z" fill="#FF5757"/>
<path d="M54.3176 41.3661H85.1591C85.9647 41.3661 86.6178 42.0121 86.6178 42.809C86.6178 43.606 85.9647 44.252 85.1591 44.252H54.3176C53.512 44.252 52.8589 43.606 52.8589 42.809C52.8589 42.0121 53.512 41.3661 54.3176 41.3661Z" fill="#FF5757"/>
<path d="M239.972 27.4753H181.623C180.704 27.4753 179.956 26.7355 179.956 25.8262C179.956 24.9169 180.704 24.1771 181.623 24.1771H239.972C240.891 24.1771 241.639 24.9169 241.639 25.8262C241.639 26.7355 240.891 27.4753 239.972 27.4753Z" fill="#E6E6E6"/>
<path d="M251.033 63.2393H169.728V62.827C196.499 66.8882 223.628 66.5541 251.033 62.827V63.2393Z" fill="#E6E6E6"/>
<path d="M239.972 48.5013H181.623C180.704 48.5013 179.956 47.7615 179.956 46.8522C179.956 45.9429 180.704 45.2031 181.623 45.2031H239.972C240.891 45.2031 241.639 45.9429 241.639 46.8522C241.639 47.7615 240.891 48.5013 239.972 48.5013Z" fill="#E6E6E6"/>
<path d="M251.45 68.5989H170.145V69.0112H251.45V68.5989Z" fill="#E6E6E6"/>
<path d="M239.972 37.6556H181.623C180.704 37.6556 179.956 36.9158 179.956 36.0065C179.956 35.0972 180.704 34.3574 181.623 34.3574H239.972C240.891 34.3574 241.639 35.0972 241.639 36.0065C241.639 36.9158 240.891 37.6556 239.972 37.6556Z" fill="#E6E6E6"/>
<path d="M251.45 74.3707C223.386 72.4823 196.131 72.1817 170.145 74.3707V73.9584H251.45V74.3707Z" fill="#E6E6E6"/>
<path d="M139.242 67.6617L135.812 66.0544C137.219 67.9965 138.431 71.0297 139.08 73.4434C140.179 71.1951 141.95 68.4441 143.704 66.8008L140.078 67.7234C142.312 56.8938 150.714 49.1192 160.336 49.1192V48.2947C150.286 48.2947 141.523 56.3949 139.242 67.6617Z" fill="#3F3D56"/>
<path d="M155.029 84.1624H133.357C132.437 84.1624 131.69 83.4227 131.69 82.5134C131.69 81.6041 132.437 80.8643 133.357 80.8643H155.029C155.948 80.8643 156.696 81.6041 156.696 82.5134C156.696 83.4227 155.948 84.1624 155.029 84.1624Z" fill="#FF5757"/>
<path d="M99.5378 48.3747C102.76 48.3747 105.373 45.7906 105.373 42.6029C105.373 39.4152 102.76 36.8311 99.5378 36.8311C96.3153 36.8311 93.7029 39.4152 93.7029 42.6029C93.7029 45.7906 96.3153 48.3747 99.5378 48.3747Z" fill="#FF5757"/>
<path d="M102.573 39.2232C102.295 39.0623 101.87 39.1457 101.717 39.4451C101.024 40.8041 100.33 42.1632 99.6368 43.5224C99.0773 42.6554 98.3616 41.8984 97.5313 41.2639C97.2639 41.0595 96.8309 41.2236 96.6759 41.4857C96.4871 41.8052 96.6321 42.127 96.9002 42.3318C97.8685 43.0717 98.6151 44.0662 99.1178 45.1637C99.3089 45.5809 99.9979 45.5546 100.197 45.1637C101.064 43.4655 101.93 41.7674 102.797 40.0693C102.949 39.7713 102.877 39.399 102.573 39.2232Z" fill="white"/>
<path d="M169.556 31.4715C172.779 31.4715 175.391 28.8874 175.391 25.6997C175.391 22.512 172.779 19.9279 169.556 19.9279C166.334 19.9279 163.721 22.512 163.721 25.6997C163.721 28.8874 166.334 31.4715 169.556 31.4715Z" fill="#FF5757"/>
<path d="M172.591 22.32C172.313 22.1591 171.889 22.2425 171.736 22.5419C171.042 23.901 170.349 25.26 169.655 26.6192C169.096 25.7522 168.38 24.9952 167.55 24.3607C167.282 24.1563 166.849 24.3204 166.694 24.5825C166.505 24.902 166.651 25.2238 166.919 25.4286C167.887 26.1685 168.634 27.163 169.136 28.2605C169.327 28.6777 170.016 28.6514 170.216 28.2605C171.082 26.5623 171.949 24.8642 172.815 23.1661C172.968 22.8681 172.895 22.4958 172.591 22.32Z" fill="white"/>
<path d="M253.328 40.9538C256.551 40.9538 259.163 38.3697 259.163 35.182C259.163 31.9943 256.551 29.4102 253.328 29.4102C250.106 29.4102 247.493 31.9943 247.493 35.182C247.493 38.3697 250.106 40.9538 253.328 40.9538Z" fill="#FF5757"/>
<path d="M256.363 31.8023C256.085 31.6414 255.661 31.7248 255.508 32.0242C254.814 33.3833 254.121 34.7423 253.427 36.1015C252.868 35.2345 252.152 34.4775 251.322 33.843C251.054 33.6386 250.621 33.8027 250.466 34.0648C250.278 34.3843 250.423 34.7061 250.691 34.9109C251.659 35.6508 252.406 36.6453 252.908 37.7428C253.099 38.16 253.788 38.1337 253.988 37.7428C254.854 36.0446 255.721 34.3465 256.587 32.6484C256.74 32.3504 256.667 31.9781 256.363 31.8023Z" fill="white"/>
<path d="M122.551 71.2891H108.496C107.624 71.2891 106.914 70.5869 106.914 69.7237C105.056 64.3511 105.092 59.0867 106.914 53.9242C106.914 53.061 107.624 52.3588 108.496 52.3588H122.551C123.423 52.3588 124.133 53.061 124.133 53.9242V69.7237C124.133 70.5869 123.423 71.2891 122.551 71.2891Z" fill="#E6E6E6"/>
<path d="M111.507 52.8252C109.231 52.8252 107.385 54.6508 107.385 56.9029V69.3885C107.385 70.1806 108.034 70.8227 108.835 70.8227H116.607C120.503 70.8227 123.661 67.6985 123.661 63.8446V54.2594C123.661 53.4673 123.012 52.8252 122.212 52.8252H111.507Z" fill="white"/>
<path d="M118.796 57.4166H112.216C112.051 57.4166 111.916 57.2831 111.916 57.119C111.916 56.9549 112.051 56.8214 112.216 56.8214H118.796C118.962 56.8214 119.097 56.9549 119.097 57.119C119.097 57.2831 118.962 57.4166 118.796 57.4166Z" fill="#E6E6E6"/>
<path d="M118.796 63.7625H112.216C112.051 63.7625 111.916 63.629 111.916 63.4649C111.916 63.3008 112.051 63.1674 112.216 63.1674H118.796C118.962 63.1674 119.097 63.3008 119.097 63.4649C119.097 63.629 118.962 63.7625 118.796 63.7625Z" fill="#E6E6E6"/>
<path d="M122.327 60.5916H108.686C108.52 60.5916 108.385 60.4581 108.385 60.294C108.385 60.1299 108.52 59.9965 108.686 59.9965H122.327C122.493 59.9965 122.628 60.1299 122.628 60.294C122.628 60.4581 122.493 60.5916 122.327 60.5916Z" fill="#E6E6E6"/>
<path d="M122.488 66.3429H116.796C116.63 66.3429 116.495 66.2093 116.495 66.0452C116.495 65.8811 116.63 65.7477 116.796 65.7477H122.488C122.654 65.7477 122.789 65.8811 122.789 66.0452C122.789 66.2093 122.654 66.3429 122.488 66.3429Z" fill="#E6E6E6"/>
<path d="M25.722 28.0639C26.0921 26.3751 26.2009 27.6192 27.0061 26.0874C26.4534 28.0668 27.4733 27.4187 28.828 28.9708C38.3485 30.4474 38.9484 27.222 42.4717 27.3208L42.4897 27.3207C43.265 27.3082 43.6632 26.3899 43.1959 25.778C42.0418 24.2668 40.7696 21.9351 41.9736 20.4671C44.1066 17.8665 42.2269 12.5335 41.3076 13.6865C41.3076 9.23928 35.771 6.32286 33.6234 7.04544C29.655 8.3806 25.9799 10.1814 25.5348 14.2106C25.4653 14.8398 25.3754 15.4653 25.2612 16.088C25.0292 17.3526 24.0734 17.6884 24.4023 18.9304L25.4308 19.9653C25.9135 21.7879 25.761 23.7013 25.0998 25.4682C24.7343 26.4449 24.6836 27.2823 25.722 28.0639Z" fill="#2F2E41"/>
<path d="M35.6335 22.0964C38.9293 22.0964 41.6011 19.4534 41.6011 16.1932C41.6011 12.933 38.9293 10.29 35.6335 10.29C32.3376 10.29 29.6658 12.933 29.6658 16.1932C29.6658 19.4534 32.3376 22.0964 35.6335 22.0964Z" fill="#A0616A"/>
<path d="M26.3373 150.767L29.4106 150.839L31.1236 137.181L26.5883 137.075L26.3373 150.767Z" fill="#A0616A"/>
<path d="M36.8812 157.11C36.8812 157.623 36.5128 158.04 36.0583 158.04H29.9582C29.9582 158.04 29.3579 155.653 26.9104 154.625L26.7414 158.04H23.5946L23.9759 152.55C23.9759 152.55 23.1341 149.612 24.8823 148.111C26.6306 146.61 25.2145 146.819 25.2145 146.819L25.9023 143.421L30.6575 143.974L30.6924 149.308L33.0001 154.602L36.3849 156.256C36.6861 156.403 36.8812 156.739 36.8812 157.11Z" fill="#2F2E41"/>
<path d="M29.7172 138.376L32.1583 140.224L41.6739 130.184L38.0717 127.456L29.7172 138.376Z" fill="#A0616A"/>
<path d="M34.4627 149.644C34.157 150.059 33.6113 150.181 33.244 149.917L28.3139 146.363C28.3139 146.363 29.2499 144.084 27.8834 141.828L25.7142 144.489L23.171 142.656L26.7475 138.441C26.7475 138.441 27.8158 135.577 30.1226 135.382C32.4293 135.187 31.1605 134.531 31.1605 134.531L33.7392 132.185L37.253 135.403L34.1058 139.734L32.8189 145.357L34.5697 148.665C34.7256 148.96 34.6835 149.345 34.4627 149.644Z" fill="#2F2E41"/>
<path d="M20.9233 80.933C21.1086 81.6846 20.7673 85.1821 20.9581 86.3855C21.4433 89.4454 25.8766 106.128 25.1118 110.884C22.3097 128.309 26.1852 139.487 26.1852 139.487H32.4369L35.7711 86.7162L39.0252 90.9595L45.3926 109.772L34.1289 129.805L40.0103 134.61L57.5707 106.991L45.0922 60.7902L44.3384 58.0008L27.4785 57.5354L28.4166 58.9259L26.2825 61.0117C26.2825 61.0117 26.2797 61.0173 26.2683 61.0285C25.9396 61.4827 18.6333 71.6508 20.9233 80.933Z" fill="#2F2E41"/>
<path d="M26.2683 61.0285C28.221 61.7181 41.4164 61.0061 45.0922 60.7902L44.3384 58.0008L27.4785 57.5354L28.4165 58.9259L26.2825 61.0117C26.2825 61.0117 26.2796 61.0173 26.2683 61.0285Z" fill="#A0616A"/>
<path d="M48.0912 38.6889L47.4839 41.8765L47.3367 42.641L44.1066 49.1992L44.5311 58.8137C44.8029 59.9389 33.3336 57.3854 27.3755 60.0234L22.7376 38.0821L27.4403 27.9694L31.1206 25.9468L31.734 23.5198H39.5303C39.9455 25.4432 39.4954 26.391 38.6885 26.9365L40.6415 32.0885L48.0912 38.6889Z" fill="#FF5757"/>
<path d="M54.1892 19.8875C54.0927 20.713 53.8157 21.4485 53.4331 22.0029L53.0159 29.924L49.2114 29.6174L50.0442 21.6153C49.7995 20.989 49.6996 20.2105 49.7961 19.385C50.0165 17.4992 51.1786 16.083 52.3918 16.2218C53.6049 16.3606 54.4096 18.0018 54.1892 19.8875Z" fill="#A0616A"/>
<path d="M39.0257 28.2119L39.522 29.4101C39.522 29.4101 32.27 28.6914 32.4249 32.437C32.557 35.6327 46.2074 48.2977 46.8597 48.5935C48.7914 49.4693 51.0367 48.2906 51.3862 46.2172C54.4599 38.3728 55.0968 31.3006 53.6924 24.8751H49.5247L48.1675 29.944L48.0912 33.7997L45.8935 38.4372L38.6885 29.4101L39.0257 28.2119Z" fill="#FF5757"/>
<path d="M14.864 72.2402C15.1319 71.4325 15.1933 70.632 15.078 69.9547L18.122 62.4202L14.4552 61.0923L11.7622 68.8783C11.2637 69.3563 10.8335 70.0371 10.5656 70.8448C9.95342 72.6899 10.4194 74.498 11.6064 74.8833C12.7934 75.2686 14.2518 74.0853 14.864 72.2402Z" fill="#A0616A"/>
<path d="M32.4224 28.2159C32.4224 28.2159 27.9202 26.5272 25.3643 28.5907C24.3102 29.4417 19.6487 35.3056 18.9306 43.1999C18.8744 43.8186 18.4483 44.3509 18.2082 44.9296C16.7278 48.4982 14.1793 50.142 13.0956 53.194C12.6721 54.3867 13.4489 57.4713 13.1813 58.5003C11.7801 63.8883 12.2857 66.9604 12.2857 66.9604L16.0694 68.2063L18.1219 66.7714L21.4931 54.5938L32.4224 28.2159Z" fill="#FF5757"/>
<path d="M66.2857 18.9304H52.2314C51.3589 18.9304 50.649 18.2281 50.649 17.365C48.7908 11.9924 48.8275 6.72793 50.649 1.56539C50.649 0.702217 51.3589 0 52.2314 0H66.2857C67.1583 0 67.8682 0.702217 67.8682 1.56539V17.365C67.8682 18.2281 67.1583 18.9304 66.2857 18.9304Z" fill="#E6E6E6"/>
<path d="M55.2427 0.466431C52.9661 0.466431 51.1205 2.29208 51.1205 4.54413V17.0298C51.1205 17.8219 51.7696 18.464 52.5703 18.464H60.3424C64.2384 18.464 67.3967 15.3398 67.3967 11.4858V1.90062C67.3967 1.10854 66.7476 0.466431 65.9469 0.466431H55.2427Z" fill="white"/>
<path d="M62.5317 5.05782H55.9516C55.7857 5.05782 55.6508 4.92429 55.6508 4.7602C55.6508 4.59611 55.7857 4.46265 55.9516 4.46265H62.5317C62.6975 4.46265 62.8325 4.59611 62.8325 4.7602C62.8325 4.92429 62.6975 5.05782 62.5317 5.05782Z" fill="#E6E6E6"/>
<path d="M62.5317 11.4038H55.9516C55.7857 11.4038 55.6508 11.2702 55.6508 11.1061C55.6508 10.9421 55.7857 10.8086 55.9516 10.8086H62.5317C62.6975 10.8086 62.8325 10.9421 62.8325 11.1061C62.8325 11.2702 62.6975 11.4038 62.5317 11.4038Z" fill="#E6E6E6"/>
<path d="M66.0626 8.23287H52.4207C52.2548 8.23287 52.1199 8.09934 52.1199 7.93525C52.1199 7.77116 52.2549 7.6377 52.4207 7.6377H66.0626C66.2285 7.6377 66.3634 7.77116 66.3634 7.93525C66.3634 8.09934 66.2285 8.23287 66.0626 8.23287Z" fill="#E6E6E6"/>
<path d="M66.2235 13.9841H60.5312C60.3653 13.9841 60.2303 13.8506 60.2303 13.6865C60.2303 13.5224 60.3653 13.3889 60.5312 13.3889H66.2235C66.3894 13.3889 66.5243 13.5224 66.5243 13.6865C66.5243 13.8506 66.3894 13.9841 66.2235 13.9841Z" fill="#E6E6E6"/>
<path d="M70.3314 151.239C71.1925 151.292 71.6683 150.234 71.0169 149.617L70.9521 149.362C70.9606 149.342 70.9692 149.321 70.9778 149.301C71.8486 147.247 74.7997 147.261 75.663 149.318C76.4293 151.144 77.4049 152.973 77.6451 154.903C77.7528 155.755 77.7043 156.623 77.5132 157.459C79.3087 153.579 80.2536 149.343 80.2536 145.082C80.2536 144.012 80.1943 142.941 80.0732 141.874C79.9736 141 79.8363 140.132 79.6586 139.272C78.6976 134.623 76.6168 130.194 73.6153 126.496C72.1724 125.716 70.9692 124.496 70.2424 123.034C69.9813 122.507 69.7767 121.94 69.6797 121.362C69.844 121.383 70.2989 118.909 70.1751 118.758C70.4039 118.414 70.8135 118.243 71.0634 117.908C72.3063 116.241 74.0188 116.532 74.9128 118.798C76.8226 119.751 76.8411 121.332 75.6693 122.853C74.9237 123.821 74.8213 125.13 74.1672 126.166C74.2345 126.251 74.3045 126.333 74.3718 126.419C75.6059 127.984 76.6732 129.667 77.573 131.435C77.3187 129.47 77.6942 127.103 78.3342 125.577C79.0628 123.838 80.4285 122.374 81.6311 120.871C83.0757 119.066 86.0379 119.854 86.2924 122.142C86.2948 122.164 86.2972 122.187 86.2996 122.209C86.1209 122.308 85.9459 122.414 85.775 122.526C84.8 123.164 85.1369 124.659 86.2922 124.836L86.3184 124.84C86.2538 125.476 86.1434 126.107 85.9819 126.727C87.5248 132.63 84.1939 134.779 79.4379 134.876C79.3329 134.929 79.2306 134.982 79.1256 135.033C79.6075 136.375 79.9925 137.752 80.2778 139.147C80.5335 140.38 80.7112 141.626 80.8108 142.877C80.9346 144.457 80.9238 146.044 80.7892 147.62L80.7973 147.564C81.1392 145.828 82.0921 144.206 83.4758 143.083C85.537 141.408 88.4491 140.791 90.6728 139.445C91.7432 138.796 93.1149 139.634 92.928 140.862L92.919 140.92C92.5879 141.053 92.2648 141.208 91.9526 141.381C91.7739 141.481 91.5989 141.587 91.428 141.698C90.4529 142.336 90.7899 143.831 91.9452 144.008L91.9714 144.012C91.9903 144.015 92.0064 144.017 92.0252 144.02C91.4572 145.354 90.6658 146.592 89.6752 147.66C88.7105 152.812 84.5672 153.301 80.1351 151.801H80.1324C79.6479 153.888 78.9399 155.928 78.03 157.872H70.5197C70.4927 157.789 70.4685 157.704 70.4443 157.622C71.1388 157.664 71.8387 157.624 72.5224 157.499C71.9652 156.823 71.408 156.141 70.8507 155.465C70.8373 155.451 70.8265 155.438 70.8158 155.425C70.5331 155.079 70.2478 154.735 69.9651 154.389L69.965 154.388C69.9473 153.326 70.0763 152.266 70.3314 151.239Z" fill="#F2F2F2"/>
<path d="M0.5 158.509C0.5 158.782 0.720904 159 0.995989 159H91.9741C92.2491 159 92.47 158.782 92.47 158.509C92.47 158.237 92.2491 158.019 91.9741 158.019H0.995989C0.720904 158.019 0.5 158.237 0.5 158.509Z" fill="#CCCCCC"/>
<path d="M37.2512 9.20868H36.0363C32.482 9.21263 26.4068 14.1856 28.7576 17.6736C26.7502 22.9701 26.6771 25.7259 27.5292 27.1682C27.8429 27.6992 28.4657 27.941 29.0858 27.898C29.1685 27.8922 29.2517 27.8905 29.3356 27.8932C29.9364 27.9129 30.7423 30.7066 31.3015 30.9214L32.7859 30.475L35.2208 28.0682L33.9853 24.3973L31.5946 22.5471L31.9203 18.262C30.3202 14.624 32.0611 14.446 33.0407 13.2725L33.1398 17.0373L34.5429 15.6979C35.6858 15.7272 37.0214 16.2173 37.9092 15.1979C39.522 13.3314 41.194 15.5849 43.0989 16.0404L43.6898 15.5777C43.71 14.5281 43.5531 13.5146 43.2484 12.6071C43.1049 12.1799 42.7383 11.8278 42.7229 11.4032C42.6651 9.80957 39.6203 8.26384 37.2512 9.20868Z" fill="#2F2E41"/>
</g>
<defs>
<clipPath id="clip0_169_2202">
<rect width="272" height="159" fill="white" transform="translate(0.5)"/>
</clipPath>
</defs>
</svg>
