<svg width="211" height="182" viewBox="0 0 211 182" fill="none" xmlns="http://www.w3.org/2000/svg">
<g clip-path="url(#clip0_231_2198)">
<path d="M190.246 94.7157C190.273 117.236 181.483 138.89 165.723 155.126C164.773 156.111 163.797 157.073 162.796 158.01C161.27 159.447 159.693 160.829 158.065 162.155C142.834 174.582 123.819 181.565 104.088 181.978C103.431 181.993 102.771 182 102.109 182C86.3729 182 66.5812 173.677 48.6204 162.155C47.1344 161.202 45.6616 160.226 44.2021 159.229C43.5199 158.767 42.841 158.299 42.1654 157.824C35.2381 152.98 28.6628 147.66 22.4878 141.904C18.4448 138.147 14.6536 134.132 11.1382 129.886C-2.66237 113.028 -5.70629 97.8382 13.9688 94.7157C16.2982 94.3472 18.5591 93.9533 20.7513 93.534C23.9267 92.9297 26.9656 92.277 29.8681 91.5761C33.7778 90.6351 37.4511 89.6148 40.8878 88.515C42.0438 88.1465 43.1734 87.7706 44.2765 87.3874C60.5852 81.7148 71.5006 74.3177 78.9306 66.2916C80.1908 64.9331 81.3526 63.5581 82.4161 62.1668C84.0431 60.0491 85.521 57.823 86.8393 55.5042C88.6589 52.2825 90.1872 48.9078 91.4064 45.4195L91.4734 45.2278C97.3851 28.3404 95.5865 12.6765 102.109 7.43388C129.988 -14.9786 164.696 16.9389 180.988 54.5781C181.809 56.4746 182.581 58.3827 183.305 60.3022C183.63 61.1596 183.943 62.0186 184.245 62.8793C185.039 65.1222 185.759 67.3709 186.406 69.6254C186.654 70.4852 186.89 71.3443 187.115 72.2025C187.356 73.1286 187.586 74.0524 187.8 74.9761C189.385 81.7394 190.246 88.4094 190.246 94.7157Z" fill="#F2F2F2"/>
<path d="M104.088 181.978C103.431 181.993 102.771 182 102.109 182C86.3729 182 66.5812 173.677 48.6204 162.155C47.1344 161.201 45.6616 160.226 44.2021 159.229L45.4822 151.515L84.2345 146.419L103.684 161.147L104.088 181.978Z" fill="#2F2E41"/>
<path d="M105.954 44.2329H100.432C100.26 44.233 100.096 44.3003 99.9755 44.4201C99.8546 44.5398 99.7866 44.7022 99.7866 44.8716V50.3427C99.7866 50.4264 99.8034 50.5093 99.8359 50.5867C99.8683 50.664 99.9159 50.7342 99.9758 50.7933C100.036 50.8524 100.107 50.8992 100.185 50.9311C100.263 50.963 100.347 50.9792 100.432 50.979H105.954C106.124 50.9791 106.288 50.9121 106.409 50.7929C106.53 50.6736 106.598 50.5117 106.599 50.3427V44.8716C106.598 44.7024 106.53 44.5402 106.409 44.4205C106.288 44.3008 106.125 44.2334 105.954 44.2329Z" fill="white"/>
<path d="M105.954 53.5562H100.432C100.26 53.5562 100.096 53.6235 99.9755 53.7433C99.8546 53.8631 99.7866 54.0255 99.7866 54.1949V59.666C99.7866 59.7497 99.8034 59.8326 99.8359 59.9099C99.8683 59.9873 99.9159 60.0575 99.9758 60.1166C100.036 60.1757 100.107 60.2225 100.185 60.2544C100.263 60.2862 100.347 60.3025 100.432 60.3023H105.954C106.124 60.3023 106.288 60.2354 106.409 60.1161C106.53 59.9969 106.598 59.835 106.599 59.666V54.1949C106.598 54.0256 106.53 53.8635 106.409 53.7438C106.288 53.6241 106.125 53.5566 105.954 53.5562Z" fill="#E6E6E6"/>
<path d="M105.954 62.8792H100.432C100.26 62.8792 100.096 62.9466 99.9755 63.0663C99.8546 63.1861 99.7866 63.3485 99.7866 63.5179V68.9865C99.7864 69.0705 99.8029 69.1536 99.8353 69.2312C99.8677 69.3087 99.9152 69.3792 99.9751 69.4386C100.035 69.4979 100.106 69.5449 100.184 69.577C100.263 69.609 100.347 69.6254 100.432 69.6253H105.954C106.125 69.6252 106.289 69.5579 106.41 69.4381C106.531 69.3183 106.599 69.1559 106.599 68.9865V63.5179C106.598 63.3487 106.53 63.1865 106.409 63.0668C106.288 62.9471 106.125 62.8796 105.954 62.8792Z" fill="#E6E6E6"/>
<path d="M106.589 72.7282C106.561 72.581 106.483 72.448 106.367 72.352C106.251 72.2561 106.105 72.2032 105.954 72.2024H100.432C100.26 72.2025 100.096 72.2698 99.9755 72.3896C99.8546 72.5094 99.7866 72.6718 99.7866 72.8412V78.3098C99.7864 78.3937 99.803 78.4768 99.8353 78.5544C99.8677 78.632 99.9151 78.7025 99.9751 78.7618C100.035 78.8212 100.106 78.8682 100.184 78.9002C100.263 78.9323 100.347 78.9487 100.432 78.9485H105.954C106.125 78.9485 106.289 78.8811 106.41 78.7614C106.531 78.6416 106.599 78.4792 106.599 78.3098V72.8412C106.599 72.8033 106.596 72.7654 106.589 72.7282Z" fill="#E6E6E6"/>
<path d="M106.204 81.5748C106.125 81.5422 106.04 81.5255 105.954 81.5256H100.432C100.347 81.5255 100.263 81.5419 100.185 81.5739C100.106 81.606 100.035 81.653 99.9751 81.7124C99.9152 81.7717 99.8677 81.8422 99.8353 81.9198C99.803 81.9973 99.7864 82.0805 99.7866 82.1644V87.633C99.7862 87.717 99.8026 87.8002 99.8349 87.8779C99.8671 87.9556 99.9146 88.0261 99.9746 88.0855C100.035 88.1449 100.106 88.1919 100.184 88.2239C100.263 88.2559 100.347 88.2721 100.432 88.2718H105.954C106.125 88.2717 106.289 88.2044 106.41 88.0846C106.531 87.9648 106.599 87.8024 106.599 87.633V82.1644C106.598 82.0387 106.561 81.9158 106.491 81.811C106.421 81.7062 106.321 81.6241 106.204 81.5748Z" fill="#E6E6E6"/>
<path d="M117.554 44.2329H112.032C111.861 44.233 111.697 44.3003 111.576 44.4201C111.455 44.5398 111.387 44.7022 111.387 44.8716V50.3427C111.387 50.4264 111.404 50.5093 111.436 50.5867C111.468 50.664 111.516 50.7342 111.576 50.7933C111.636 50.8524 111.707 50.8992 111.785 50.9311C111.863 50.963 111.947 50.9792 112.032 50.979H117.554C117.725 50.9791 117.888 50.9121 118.009 50.7929C118.13 50.6736 118.198 50.5117 118.199 50.3427V44.8716C118.198 44.7024 118.13 44.5402 118.009 44.4205C117.889 44.3008 117.725 44.2334 117.554 44.2329Z" fill="#E6E6E6"/>
<path d="M117.554 53.5562H112.032C111.861 53.5562 111.697 53.6235 111.576 53.7433C111.455 53.8631 111.387 54.0255 111.387 54.1949V59.666C111.387 59.7497 111.404 59.8326 111.436 59.9099C111.468 59.9873 111.516 60.0575 111.576 60.1166C111.636 60.1757 111.707 60.2225 111.785 60.2544C111.863 60.2862 111.947 60.3025 112.032 60.3023H117.554C117.725 60.3023 117.888 60.2354 118.009 60.1161C118.13 59.9969 118.198 59.835 118.199 59.666V54.1949C118.198 54.0256 118.13 53.8635 118.009 53.7438C117.889 53.6241 117.725 53.5566 117.554 53.5562Z" fill="#FF5757"/>
<path d="M117.554 62.8792H112.032C111.861 62.8792 111.697 62.9466 111.576 63.0663C111.455 63.1861 111.387 63.3485 111.387 63.5179V68.9865C111.386 69.0705 111.403 69.1536 111.435 69.2312C111.468 69.3087 111.515 69.3792 111.575 69.4386C111.635 69.4979 111.706 69.5449 111.785 69.577C111.863 69.609 111.947 69.6254 112.032 69.6253H117.554C117.725 69.6252 117.889 69.5579 118.01 69.4381C118.131 69.3183 118.199 69.1559 118.199 68.9865V63.5179C118.198 63.3487 118.13 63.1865 118.009 63.0668C117.889 62.9471 117.725 62.8796 117.554 62.8792Z" fill="#FF5757"/>
<path d="M117.554 72.2024H112.032C111.896 72.2025 111.765 72.2448 111.655 72.3233C111.546 72.4018 111.464 72.5125 111.421 72.6397C111.398 72.7044 111.387 72.7725 111.387 72.8412V78.3098C111.386 78.3937 111.403 78.4768 111.435 78.5544C111.468 78.632 111.515 78.7025 111.575 78.7618C111.635 78.8212 111.706 78.8682 111.785 78.9002C111.863 78.9323 111.947 78.9487 112.032 78.9485H117.554C117.725 78.9485 117.889 78.8811 118.01 78.7614C118.131 78.6416 118.199 78.4792 118.199 78.3098V72.8412C118.198 72.6719 118.13 72.5097 118.009 72.39C117.889 72.2704 117.725 72.2029 117.554 72.2024Z" fill="#FF5757"/>
<path d="M117.554 81.5256H112.032C111.947 81.5255 111.863 81.5419 111.785 81.5739C111.706 81.606 111.635 81.653 111.575 81.7124C111.515 81.7717 111.468 81.8422 111.435 81.9198C111.403 81.9973 111.386 82.0805 111.387 82.1644V87.633C111.386 87.7169 111.403 87.8001 111.435 87.8776C111.468 87.9552 111.515 88.0257 111.575 88.085C111.635 88.1444 111.706 88.1914 111.785 88.2235C111.863 88.2555 111.947 88.2719 112.032 88.2718H117.554C117.725 88.2717 117.889 88.2044 118.01 88.0846C118.131 87.9648 118.199 87.8024 118.199 87.633V82.1644C118.199 81.995 118.131 81.8326 118.01 81.7128C117.889 81.593 117.725 81.5257 117.554 81.5256Z" fill="#E6E6E6"/>
<path d="M129.154 44.2329H123.632C123.461 44.233 123.297 44.3003 123.176 44.4201C123.055 44.5398 122.987 44.7022 122.987 44.8716V50.3427C122.987 50.4264 123.004 50.5093 123.036 50.5867C123.069 50.664 123.116 50.7342 123.176 50.7933C123.236 50.8524 123.307 50.8992 123.385 50.9311C123.463 50.963 123.547 50.9792 123.632 50.979H129.154C129.325 50.9791 129.488 50.9121 129.609 50.7929C129.73 50.6736 129.798 50.5117 129.799 50.3427V44.8716C129.799 44.7024 129.73 44.5402 129.61 44.4205C129.489 44.3008 129.325 44.2334 129.154 44.2329Z" fill="#FF5757"/>
<path d="M129.154 53.5562H123.632C123.461 53.5562 123.297 53.6235 123.176 53.7433C123.055 53.8631 122.987 54.0255 122.987 54.1949V59.666C122.987 59.7497 123.004 59.8326 123.036 59.9099C123.069 59.9873 123.116 60.0575 123.176 60.1166C123.236 60.1757 123.307 60.2225 123.385 60.2544C123.463 60.2862 123.547 60.3025 123.632 60.3023H129.154C129.325 60.3023 129.488 60.2354 129.609 60.1161C129.73 59.9969 129.798 59.835 129.799 59.666V54.1949C129.799 54.0256 129.73 53.8635 129.61 53.7438C129.489 53.6241 129.325 53.5566 129.154 53.5562Z" fill="#FF5757"/>
<path d="M129.154 62.8792H123.632C123.461 62.8792 123.297 62.9466 123.176 63.0663C123.055 63.1861 122.987 63.3485 122.987 63.5179V68.9865C122.987 69.0705 123.003 69.1536 123.036 69.2312C123.068 69.3087 123.115 69.3792 123.175 69.4386C123.235 69.4979 123.306 69.5449 123.385 69.577C123.463 69.609 123.547 69.6254 123.632 69.6253H129.154C129.325 69.6252 129.489 69.5579 129.61 69.4381C129.731 69.3183 129.799 69.1559 129.799 68.9865V63.5179C129.799 63.3487 129.73 63.1865 129.61 63.0668C129.489 62.9471 129.325 62.8796 129.154 62.8792Z" fill="#E6E6E6"/>
<path d="M129.154 72.2024H123.632C123.461 72.2025 123.297 72.2698 123.176 72.3896C123.055 72.5094 122.987 72.6718 122.987 72.8412V78.3098C122.987 78.3937 123.003 78.4768 123.036 78.5544C123.068 78.632 123.115 78.7025 123.175 78.7618C123.235 78.8212 123.306 78.8682 123.385 78.9002C123.463 78.9323 123.547 78.9487 123.632 78.9485H129.154C129.325 78.9485 129.489 78.8811 129.61 78.7614C129.731 78.6416 129.799 78.4792 129.799 78.3098V72.8412C129.799 72.6719 129.73 72.5097 129.61 72.39C129.489 72.2704 129.325 72.2029 129.154 72.2024Z" fill="#FF5757"/>
<path d="M129.154 81.5256H123.632C123.547 81.5255 123.463 81.5419 123.385 81.5739C123.306 81.606 123.235 81.653 123.175 81.7124C123.115 81.7717 123.068 81.8422 123.036 81.9198C123.003 81.9973 122.987 82.0805 122.987 82.1644V87.633C122.987 87.7169 123.003 87.8001 123.036 87.8776C123.068 87.9552 123.115 88.0257 123.175 88.085C123.235 88.1444 123.306 88.1914 123.385 88.2235C123.463 88.2555 123.547 88.2719 123.632 88.2718H129.154C129.325 88.2717 129.489 88.2044 129.61 88.0846C129.731 87.9648 129.799 87.8024 129.799 87.633V82.1644C129.799 81.995 129.731 81.8326 129.61 81.7128C129.489 81.593 129.325 81.5257 129.154 81.5256Z" fill="#FF5757"/>
<path d="M140.754 44.2329H135.232C135.061 44.233 134.897 44.3003 134.776 44.4201C134.655 44.5398 134.587 44.7022 134.587 44.8716V50.3427C134.587 50.4264 134.604 50.5093 134.636 50.5867C134.669 50.664 134.716 50.7342 134.776 50.7933C134.836 50.8524 134.907 50.8992 134.985 50.9311C135.064 50.963 135.147 50.9792 135.232 50.979H140.754C140.925 50.9791 141.089 50.9121 141.209 50.7929C141.33 50.6736 141.399 50.5117 141.399 50.3427V44.8716C141.399 44.7024 141.331 44.5402 141.21 44.4205C141.089 44.3008 140.925 44.2334 140.754 44.2329Z" fill="#FF5757"/>
<path d="M140.754 53.5562H135.232C135.061 53.5562 134.897 53.6236 134.776 53.7433C134.655 53.8631 134.587 54.0255 134.587 54.1949V59.666C134.587 59.7497 134.604 59.8326 134.636 59.9099C134.669 59.9873 134.716 60.0575 134.776 60.1166C134.836 60.1757 134.907 60.2225 134.985 60.2544C135.064 60.2862 135.147 60.3025 135.232 60.3023H140.754C140.925 60.3023 141.089 60.2354 141.209 60.1161C141.33 59.9969 141.399 59.835 141.399 59.666V54.1949C141.399 54.0256 141.331 53.8635 141.21 53.7438C141.089 53.6241 140.925 53.5566 140.754 53.5562Z" fill="white"/>
<path d="M140.754 62.8792H135.232C135.061 62.8792 134.897 62.9466 134.776 63.0663C134.655 63.1861 134.587 63.3485 134.587 63.5179V68.9865C134.587 69.0705 134.603 69.1536 134.636 69.2312C134.668 69.3087 134.716 69.3792 134.775 69.4386C134.835 69.4979 134.907 69.5449 134.985 69.577C135.063 69.609 135.147 69.6254 135.232 69.6253H140.754C140.925 69.6252 141.089 69.5579 141.21 69.4381C141.331 69.3183 141.399 69.1559 141.399 68.9865V63.5179C141.399 63.3487 141.331 63.1865 141.21 63.0668C141.089 62.9471 140.925 62.8796 140.754 62.8792Z" fill="white"/>
<path d="M140.754 72.2024H135.232C135.061 72.2025 134.897 72.2698 134.776 72.3896C134.655 72.5094 134.587 72.6718 134.587 72.8412V78.3098C134.587 78.3937 134.603 78.4768 134.636 78.5544C134.668 78.632 134.716 78.7025 134.775 78.7618C134.835 78.8212 134.907 78.8682 134.985 78.9003C135.063 78.9323 135.147 78.9487 135.232 78.9485H140.754C140.925 78.9485 141.089 78.8811 141.21 78.7614C141.331 78.6416 141.399 78.4792 141.399 78.3098V72.8412C141.399 72.6719 141.331 72.5097 141.21 72.39C141.089 72.2704 140.925 72.2029 140.754 72.2024Z" fill="#E6E6E6"/>
<path d="M140.754 81.5256H135.232C135.147 81.5255 135.063 81.5419 134.985 81.5739C134.907 81.606 134.835 81.653 134.775 81.7123C134.716 81.7717 134.668 81.8422 134.636 81.9197C134.603 81.9973 134.587 82.0805 134.587 82.1644V87.633C134.587 87.7169 134.603 87.8001 134.636 87.8776C134.668 87.9552 134.716 88.0257 134.775 88.085C134.835 88.1444 134.907 88.1914 134.985 88.2235C135.063 88.2555 135.147 88.2719 135.232 88.2718H140.754C140.925 88.2717 141.089 88.2044 141.21 88.0846C141.331 87.9648 141.399 87.8024 141.399 87.633V82.1644C141.399 81.995 141.331 81.8326 141.21 81.7128C141.089 81.593 140.925 81.5257 140.754 81.5256Z" fill="#FF5757"/>
<path d="M152.354 44.2329H146.83C146.659 44.2335 146.495 44.3011 146.375 44.4208C146.255 44.5405 146.187 44.7026 146.187 44.8716V50.3427C146.187 50.5114 146.255 50.6733 146.375 50.7926C146.496 50.9119 146.659 50.979 146.83 50.979H152.354C152.525 50.9791 152.689 50.9121 152.81 50.7929C152.931 50.6736 152.999 50.5117 152.999 50.3427V44.8716C152.999 44.7024 152.931 44.5402 152.81 44.4205C152.689 44.3008 152.525 44.2334 152.354 44.2329Z" fill="white"/>
<path d="M152.354 53.5562H146.83C146.659 53.5567 146.495 53.6243 146.375 53.744C146.255 53.8638 146.187 54.0259 146.187 54.1949V59.666C146.187 59.8347 146.255 59.9965 146.375 60.1159C146.496 60.2352 146.659 60.3022 146.83 60.3023H152.354C152.525 60.3023 152.689 60.2354 152.81 60.1161C152.931 59.9969 152.999 59.835 152.999 59.666V54.1949C152.999 54.0256 152.931 53.8635 152.81 53.7438C152.689 53.6241 152.525 53.5566 152.354 53.5562Z" fill="white"/>
<path d="M152.354 62.8792H146.83C146.659 62.8797 146.495 62.9473 146.375 63.067C146.255 63.1868 146.187 63.3489 146.187 63.5179V68.9865C146.187 69.0703 146.203 69.1532 146.235 69.2307C146.268 69.3081 146.315 69.3785 146.375 69.4378C146.434 69.4972 146.505 69.5443 146.583 69.5764C146.661 69.6086 146.745 69.6252 146.83 69.6253H152.354C152.525 69.6252 152.689 69.5579 152.81 69.4381C152.931 69.3183 152.999 69.1559 152.999 68.9865V63.5179C152.999 63.3487 152.931 63.1865 152.81 63.0668C152.689 62.9471 152.525 62.8796 152.354 62.8792Z" fill="white"/>
<path d="M152.354 72.2024H146.83C146.659 72.203 146.495 72.2706 146.375 72.3903C146.255 72.51 146.187 72.6722 146.187 72.8412V78.3098C146.187 78.3935 146.203 78.4765 146.235 78.5539C146.268 78.6314 146.315 78.7018 146.375 78.7611C146.434 78.8204 146.505 78.8675 146.583 78.8997C146.661 78.9318 146.745 78.9484 146.83 78.9485H152.354C152.525 78.9485 152.689 78.8811 152.81 78.7614C152.931 78.6416 152.999 78.4792 152.999 78.3098V72.8412C152.999 72.6719 152.931 72.5097 152.81 72.39C152.689 72.2704 152.525 72.2029 152.354 72.2024Z" fill="#FF5757"/>
<path d="M152.354 81.5256H146.83C146.745 81.5257 146.661 81.5423 146.583 81.5745C146.505 81.6066 146.434 81.6537 146.375 81.7131C146.315 81.7724 146.268 81.8428 146.235 81.9202C146.203 81.9977 146.187 82.0806 146.187 82.1644V87.633C146.187 87.7167 146.203 87.7997 146.235 87.8772C146.268 87.9546 146.315 88.025 146.375 88.0843C146.434 88.1437 146.505 88.1908 146.583 88.2229C146.661 88.2551 146.745 88.2717 146.83 88.2718H152.354C152.525 88.2717 152.689 88.2044 152.81 88.0846C152.931 87.9648 152.999 87.8024 152.999 87.633V82.1644C152.999 81.995 152.931 81.8326 152.81 81.7128C152.689 81.593 152.525 81.5257 152.354 81.5256Z" fill="#E6E6E6"/>
<path d="M163.954 44.2329H158.43C158.259 44.2335 158.096 44.3011 157.975 44.4208C157.855 44.5405 157.787 44.7026 157.787 44.8716V50.3427C157.787 50.5114 157.855 50.6733 157.975 50.7926C158.096 50.9119 158.259 50.979 158.43 50.979H163.954C164.125 50.9791 164.289 50.9121 164.41 50.7928C164.531 50.6736 164.599 50.5117 164.599 50.3427V44.8716C164.599 44.7024 164.531 44.5402 164.41 44.4205C164.289 44.3008 164.125 44.2334 163.954 44.2329Z" fill="white"/>
<path d="M163.954 53.5562H158.43C158.259 53.5567 158.096 53.6243 157.975 53.744C157.855 53.8638 157.787 54.0259 157.787 54.1949V59.666C157.787 59.8347 157.855 59.9965 157.975 60.1159C158.096 60.2352 158.259 60.3022 158.43 60.3023H163.954C164.125 60.3023 164.289 60.2354 164.41 60.1161C164.531 59.9969 164.599 59.835 164.599 59.666V54.1949C164.599 54.0256 164.531 53.8635 164.41 53.7438C164.289 53.6241 164.125 53.5566 163.954 53.5562Z" fill="white"/>
<path d="M163.954 62.8792H158.43C158.259 62.8797 158.096 62.9473 157.975 63.067C157.855 63.1868 157.787 63.3489 157.787 63.5179V68.9865C157.787 69.0703 157.803 69.1532 157.836 69.2307C157.868 69.3081 157.915 69.3785 157.975 69.4378C158.034 69.4972 158.105 69.5443 158.183 69.5764C158.261 69.6086 158.345 69.6252 158.43 69.6253H163.954C164.126 69.6252 164.29 69.5579 164.41 69.4381C164.531 69.3183 164.599 69.1559 164.599 68.9865V63.5179C164.599 63.3487 164.531 63.1865 164.41 63.0668C164.289 62.9471 164.125 62.8797 163.954 62.8792Z" fill="#FF5757"/>
<path d="M163.954 72.2024H158.43C158.259 72.203 158.096 72.2706 157.975 72.3903C157.855 72.51 157.787 72.6722 157.787 72.8412V78.3098C157.787 78.3935 157.803 78.4765 157.836 78.5539C157.868 78.6314 157.915 78.7018 157.975 78.7611C158.034 78.8204 158.105 78.8675 158.183 78.8997C158.261 78.9318 158.345 78.9484 158.43 78.9485H163.954C164.126 78.9485 164.29 78.8811 164.41 78.7614C164.531 78.6416 164.599 78.4792 164.599 78.3098V72.8412C164.599 72.6719 164.531 72.5097 164.41 72.39C164.289 72.2704 164.125 72.2029 163.954 72.2024Z" fill="#E6E6E6"/>
<path d="M163.954 81.5256H158.43C158.345 81.5257 158.261 81.5423 158.183 81.5745C158.105 81.6066 158.034 81.6537 157.975 81.7131C157.915 81.7724 157.868 81.8428 157.836 81.9202C157.803 81.9977 157.787 82.0806 157.787 82.1644V87.633C157.787 87.7167 157.803 87.7997 157.836 87.8772C157.868 87.9546 157.915 88.025 157.975 88.0843C158.034 88.1437 158.105 88.1908 158.183 88.2229C158.261 88.2551 158.345 88.2717 158.43 88.2718H163.954C164.126 88.2717 164.29 88.2044 164.41 88.0846C164.531 87.9648 164.599 87.8024 164.599 87.633V82.1644C164.599 81.995 164.531 81.8326 164.41 81.7128C164.29 81.593 164.126 81.5257 163.954 81.5256Z" fill="white"/>
<path d="M175.555 44.2329H170.03C169.859 44.2335 169.696 44.3011 169.575 44.4208C169.455 44.5405 169.387 44.7026 169.387 44.8716V50.3427C169.387 50.5114 169.455 50.6733 169.576 50.7926C169.696 50.9119 169.859 50.979 170.03 50.979H175.555C175.725 50.9791 175.889 50.9121 176.01 50.7928C176.131 50.6736 176.199 50.5117 176.2 50.3427V44.8716C176.199 44.7024 176.131 44.5402 176.01 44.4205C175.889 44.3008 175.725 44.2334 175.555 44.2329Z" fill="#FF5757"/>
<path d="M175.555 53.5562H170.03C169.859 53.5567 169.696 53.6243 169.575 53.744C169.455 53.8638 169.387 54.0259 169.387 54.1949V59.666C169.387 59.8347 169.455 59.9965 169.576 60.1159C169.696 60.2352 169.859 60.3022 170.03 60.3023H175.555C175.725 60.3023 175.889 60.2354 176.01 60.1161C176.131 59.9969 176.199 59.835 176.2 59.666V54.1949C176.199 54.0256 176.131 53.8635 176.01 53.7438C175.889 53.6241 175.725 53.5566 175.555 53.5562Z" fill="#FF5757"/>
<path d="M175.555 62.8792H170.03C169.859 62.8797 169.696 62.9473 169.575 63.067C169.455 63.1868 169.387 63.3489 169.387 63.5179V68.9865C169.387 69.0703 169.404 69.1532 169.436 69.2307C169.468 69.3081 169.515 69.3785 169.575 69.4378C169.635 69.4972 169.705 69.5443 169.784 69.5764C169.862 69.6086 169.945 69.6252 170.03 69.6253H175.555C175.726 69.6252 175.89 69.5579 176.011 69.4381C176.132 69.3183 176.199 69.1559 176.2 68.9865V63.5179C176.199 63.3487 176.131 63.1865 176.01 63.0668C175.889 62.9471 175.725 62.8797 175.555 62.8792Z" fill="#E6E6E6"/>
<path d="M175.555 72.2024H170.03C169.859 72.203 169.696 72.2706 169.575 72.3903C169.455 72.51 169.387 72.6722 169.387 72.8412V78.3098C169.387 78.3935 169.404 78.4765 169.436 78.5539C169.468 78.6314 169.515 78.7018 169.575 78.7611C169.635 78.8204 169.705 78.8675 169.784 78.8997C169.862 78.9318 169.945 78.9484 170.03 78.9485H175.555C175.726 78.9485 175.89 78.8811 176.011 78.7614C176.132 78.6416 176.199 78.4792 176.2 78.3098V72.8412C176.199 72.6719 176.131 72.5097 176.01 72.39C175.889 72.2704 175.725 72.2029 175.555 72.2024Z" fill="white"/>
<path d="M175.555 81.5256H170.03C169.945 81.5257 169.862 81.5423 169.784 81.5745C169.705 81.6066 169.635 81.6537 169.575 81.7131C169.515 81.7724 169.468 81.8428 169.436 81.9202C169.404 81.9977 169.387 82.0806 169.387 82.1644V87.633C169.387 87.7167 169.404 87.7997 169.436 87.8772C169.468 87.9546 169.515 88.025 169.575 88.0843C169.635 88.1437 169.705 88.1908 169.784 88.2229C169.862 88.2551 169.945 88.2717 170.03 88.2718H175.555C175.726 88.2717 175.89 88.2044 176.011 88.0846C176.132 87.9648 176.199 87.8024 176.2 87.633V82.1644C176.199 81.995 176.132 81.8326 176.011 81.7128C175.89 81.593 175.726 81.5257 175.555 81.5256Z" fill="#FF5757"/>
<path d="M187.155 44.2329H181.63C181.459 44.2335 181.296 44.3011 181.175 44.4208C181.055 44.5405 180.987 44.7026 180.987 44.8716V50.3427C180.988 50.5114 181.055 50.6733 181.176 50.7926C181.296 50.9119 181.46 50.979 181.63 50.979H187.155C187.325 50.9791 187.489 50.9121 187.61 50.7928C187.731 50.6736 187.799 50.5117 187.8 50.3427V44.8716C187.799 44.7024 187.731 44.5402 187.61 44.4205C187.489 44.3008 187.326 44.2334 187.155 44.2329Z" fill="#FF5757"/>
<path d="M187.155 53.5562H181.63C181.459 53.5567 181.296 53.6243 181.175 53.744C181.055 53.8638 180.987 54.0259 180.987 54.1949V59.666C180.988 59.8347 181.055 59.9965 181.176 60.1159C181.296 60.2352 181.46 60.3022 181.63 60.3023H187.155C187.325 60.3023 187.489 60.2354 187.61 60.1161C187.731 59.9969 187.799 59.835 187.8 59.666V54.1949C187.799 54.0256 187.731 53.8635 187.61 53.7438C187.489 53.6241 187.326 53.5566 187.155 53.5562Z" fill="#FF5757"/>
<path d="M187.155 62.8792H181.63C181.459 62.8797 181.296 62.9473 181.175 63.067C181.055 63.1868 180.987 63.3489 180.987 63.5179V68.9865C180.987 69.0703 181.004 69.1532 181.036 69.2307C181.068 69.3081 181.115 69.3785 181.175 69.4378C181.235 69.4972 181.306 69.5443 181.384 69.5764C181.462 69.6086 181.545 69.6252 181.63 69.6253H187.155C187.326 69.6252 187.49 69.5579 187.611 69.4381C187.732 69.3183 187.8 69.1559 187.8 68.9865V63.5179C187.799 63.3487 187.731 63.1865 187.61 63.0668C187.489 62.9471 187.326 62.8797 187.155 62.8792Z" fill="#E6E6E6"/>
<path d="M187.155 72.2024H181.63C181.459 72.203 181.296 72.2706 181.175 72.3903C181.055 72.51 180.987 72.6722 180.987 72.8412V78.3098C180.987 78.3935 181.004 78.4765 181.036 78.5539C181.068 78.6314 181.115 78.7018 181.175 78.7611C181.235 78.8204 181.306 78.8675 181.384 78.8997C181.462 78.9318 181.545 78.9484 181.63 78.9485H187.155C187.326 78.9485 187.49 78.8811 187.611 78.7614C187.732 78.6416 187.8 78.4792 187.8 78.3098V72.8412C187.799 72.6719 187.731 72.5097 187.61 72.39C187.489 72.2704 187.326 72.2029 187.155 72.2024Z" fill="#FF5757"/>
<path d="M187.155 81.5256H181.63C181.545 81.5257 181.462 81.5423 181.384 81.5745C181.306 81.6066 181.235 81.6537 181.175 81.7131C181.115 81.7724 181.068 81.8428 181.036 81.9202C181.004 81.9977 180.987 82.0806 180.987 82.1644V87.633C180.987 87.7167 181.004 87.7997 181.036 87.8772C181.068 87.9546 181.115 88.025 181.175 88.0843C181.235 88.1437 181.306 88.1908 181.384 88.2229C181.462 88.2551 181.545 88.2717 181.63 88.2718H187.155C187.326 88.2717 187.49 88.2044 187.611 88.0846C187.732 87.9648 187.8 87.8024 187.8 87.633V82.1644C187.8 81.995 187.732 81.8326 187.611 81.7128C187.49 81.593 187.326 81.5257 187.155 81.5256Z" fill="#FF5757"/>
<path d="M198.755 44.2329H193.23C193.06 44.2335 192.896 44.3011 192.776 44.4208C192.655 44.5405 192.588 44.7026 192.588 44.8716V50.3427C192.588 50.5114 192.655 50.6733 192.776 50.7926C192.896 50.9119 193.06 50.979 193.23 50.979H198.755C198.926 50.9791 199.089 50.9121 199.21 50.7928C199.331 50.6736 199.399 50.5117 199.4 50.3427V44.8716C199.399 44.7024 199.331 44.5402 199.21 44.4205C199.09 44.3008 198.926 44.2334 198.755 44.2329Z" fill="#E6E6E6"/>
<path d="M198.755 53.5562H193.23C193.06 53.5567 192.896 53.6243 192.776 53.744C192.655 53.8638 192.588 54.0259 192.588 54.1949V59.666C192.588 59.8347 192.655 59.9965 192.776 60.1159C192.896 60.2352 193.06 60.3022 193.23 60.3023H198.755C198.926 60.3023 199.089 60.2354 199.21 60.1161C199.331 59.9969 199.399 59.835 199.4 59.666V54.1949C199.399 54.0256 199.331 53.8635 199.21 53.7438C199.09 53.6241 198.926 53.5566 198.755 53.5562Z" fill="#FF5757"/>
<path d="M198.755 62.8792H193.23C193.06 62.8797 192.896 62.9473 192.776 63.067C192.655 63.1868 192.588 63.3489 192.588 63.5179V68.9865C192.587 69.0703 192.604 69.1532 192.636 69.2307C192.668 69.3081 192.715 69.3785 192.775 69.4378C192.835 69.4972 192.906 69.5443 192.984 69.5764C193.062 69.6086 193.146 69.6252 193.23 69.6253H198.755C198.926 69.6252 199.09 69.5579 199.211 69.4381C199.332 69.3183 199.4 69.1559 199.4 68.9865V63.5179C199.399 63.3487 199.331 63.1865 199.21 63.0668C199.09 62.9471 198.926 62.8797 198.755 62.8792Z" fill="#FF5757"/>
<path d="M198.755 72.2024H193.23C193.06 72.203 192.896 72.2706 192.776 72.3903C192.655 72.51 192.588 72.6722 192.588 72.8412V78.3098C192.587 78.3935 192.604 78.4765 192.636 78.5539C192.668 78.6314 192.715 78.7018 192.775 78.7611C192.835 78.8204 192.906 78.8675 192.984 78.8997C193.062 78.9318 193.146 78.9484 193.23 78.9485H198.755C198.926 78.9485 199.09 78.8811 199.211 78.7614C199.332 78.6416 199.4 78.4792 199.4 78.3098V72.8412C199.399 72.6719 199.331 72.5097 199.21 72.39C199.09 72.2704 198.926 72.2029 198.755 72.2024Z" fill="#FF5757"/>
<path d="M198.755 81.5256H193.23C193.146 81.5257 193.062 81.5423 192.984 81.5745C192.906 81.6066 192.835 81.6537 192.775 81.7131C192.715 81.7724 192.668 81.8428 192.636 81.9202C192.604 81.9977 192.587 82.0806 192.588 82.1644V87.633C192.587 87.7167 192.604 87.7997 192.636 87.8772C192.668 87.9546 192.715 88.025 192.775 88.0843C192.835 88.1437 192.906 88.1908 192.984 88.2229C193.062 88.2551 193.146 88.2717 193.23 88.2718H198.755C198.926 88.2717 199.09 88.2044 199.211 88.0846C199.332 87.9648 199.4 87.8024 199.4 87.633V82.1644C199.4 81.995 199.332 81.8326 199.211 81.7128C199.09 81.593 198.926 81.5257 198.755 81.5256Z" fill="#E6E6E6"/>
<path d="M210.355 44.2329H204.83C204.66 44.2335 204.496 44.3011 204.376 44.4208C204.255 44.5405 204.188 44.7026 204.188 44.8716V50.3427C204.188 50.5114 204.255 50.6733 204.376 50.7926C204.496 50.9119 204.66 50.979 204.83 50.979H210.355C210.526 50.9791 210.689 50.9121 210.81 50.7928C210.931 50.6736 210.999 50.5117 211 50.3427V44.8716C211 44.7024 210.931 44.5402 210.811 44.4205C210.69 44.3008 210.526 44.2334 210.355 44.2329Z" fill="#E6E6E6"/>
<path d="M210.355 53.5562H204.83C204.66 53.5567 204.496 53.6243 204.376 53.744C204.255 53.8638 204.188 54.0259 204.188 54.1949V59.666C204.188 59.8347 204.255 59.9965 204.376 60.1159C204.496 60.2352 204.66 60.3022 204.83 60.3023H210.355C210.526 60.3023 210.689 60.2354 210.81 60.1161C210.931 59.9969 210.999 59.835 211 59.666V54.1949C211 54.0256 210.931 53.8635 210.811 53.7438C210.69 53.6241 210.526 53.5566 210.355 53.5562Z" fill="#E6E6E6"/>
<path d="M210.355 62.8792H204.83C204.66 62.8797 204.496 62.9473 204.376 63.067C204.255 63.1868 204.188 63.3489 204.188 63.5179V68.9865C204.188 69.0703 204.204 69.1532 204.236 69.2307C204.268 69.3081 204.316 69.3785 204.375 69.4378C204.435 69.4972 204.506 69.5443 204.584 69.5764C204.662 69.6086 204.746 69.6252 204.83 69.6253H210.355C210.526 69.6252 210.69 69.5579 210.811 69.4381C210.932 69.3183 211 69.1559 211 68.9865V63.5179C211 63.3487 210.931 63.1865 210.811 63.0668C210.69 62.9471 210.526 62.8797 210.355 62.8792Z" fill="#FF5757"/>
<path d="M210.355 72.2024H204.83C204.66 72.203 204.496 72.2706 204.376 72.3903C204.255 72.51 204.188 72.6722 204.188 72.8412V78.3098C204.188 78.3935 204.204 78.4765 204.236 78.5539C204.268 78.6314 204.316 78.7018 204.375 78.7611C204.435 78.8204 204.506 78.8675 204.584 78.8997C204.662 78.9318 204.746 78.9484 204.83 78.9485H210.355C210.526 78.9485 210.69 78.8811 210.811 78.7614C210.932 78.6416 211 78.4792 211 78.3098V72.8412C211 72.6719 210.931 72.5097 210.811 72.39C210.69 72.2704 210.526 72.2029 210.355 72.2024Z" fill="#E6E6E6"/>
<path d="M210.355 81.5256H204.83C204.746 81.5257 204.662 81.5423 204.584 81.5745C204.506 81.6066 204.435 81.6537 204.375 81.7131C204.316 81.7724 204.268 81.8428 204.236 81.9202C204.204 81.9977 204.188 82.0806 204.188 82.1644V87.633C204.188 87.7167 204.204 87.7997 204.236 87.8772C204.268 87.9546 204.316 88.025 204.375 88.0843C204.435 88.1437 204.506 88.1908 204.584 88.2229C204.662 88.2551 204.746 88.2717 204.83 88.2718H210.355C210.526 88.2717 210.69 88.2044 210.811 88.0846C210.932 87.9648 211 87.8024 211 87.633V82.1644C211 81.995 210.932 81.8326 210.811 81.7128C210.69 81.593 210.526 81.5257 210.355 81.5256Z" fill="#E6E6E6"/>
<path d="M83.3779 162.155H83.2241L83.3555 162.138L83.3779 162.155Z" fill="#2F2E41"/>
<path d="M70.1601 60.2026C79.5209 60.2026 87.1093 52.6879 87.1093 43.418C87.1093 34.1481 79.5209 26.6333 70.1601 26.6333C60.7993 26.6333 53.2109 34.1481 53.2109 43.418C53.2109 52.6879 60.7993 60.2026 70.1601 60.2026Z" fill="#FFB6B6"/>
<path d="M85.003 31.1118C85.003 31.1118 89.436 22.7194 79.6833 21.9565C79.6833 21.9565 71.3689 14.4875 62.8944 20.591C62.8944 20.591 58.2719 20.591 55.7441 25.7712C55.7441 25.7712 52.1085 24.4057 51.3096 28.06C51.3096 28.06 48.6493 35.6894 51.3096 42.5559C53.9699 49.4223 54.8535 50.1852 54.8535 50.1852C54.8535 50.1852 50.4821 35.7894 61.1224 35.0264C71.7627 34.2634 83.6694 27.6785 84.5562 36.0708C85.4429 44.4632 86.7773 46.531 86.7773 46.531C86.7773 46.531 95.1994 34.545 85.003 31.1118Z" fill="#2F2E41"/>
<path d="M114.004 84.7833L113.949 85.0683L113.337 88.2718L109.102 110.431L108.851 111.736L108.325 114.495L107.606 118.258L106.011 126.599L105.554 128.989L105.383 129.886L105.324 130.2L104.85 132.674L104.706 133.421L103.55 141.904L102.54 149.296L105.919 152.642L103.905 154.637L102.582 162.138L102.585 162.155H48.6204C46.4373 160.754 44.2856 159.311 42.1654 157.824L42.6095 154.532C42.6095 154.532 44.1376 148.653 43.4951 147.95C42.8551 147.248 41.4509 145.992 41.4509 145.992L43.2197 141.904L43.4653 141.337L43.0535 132.878L43.0436 132.674L42.9072 129.886L42.8898 129.527L42.8625 128.989L42.3391 118.258L42.3291 118.081L42.1704 114.829L42.0215 111.736L41.957 110.431L41.3195 97.3788L40.8878 88.515L40.5107 80.7985L42.0265 80.29L58.2384 74.8336L64.9539 66.1885L78.9306 66.2917L85.7726 66.3433L97.1892 76.8285L99.7866 78.0568L99.8064 78.0667L101.669 78.9486L106.393 81.1818L111.387 83.5451L113.949 84.7563L114.004 84.7833Z" fill="#CACACA"/>
<path d="M66.7601 136.974C65.7358 137.367 64.6371 137.533 63.5412 137.459C62.4453 137.386 61.3789 137.076 60.4171 136.551C59.4553 136.026 58.6215 135.298 57.9745 134.419C57.3275 133.54 56.883 132.531 56.6722 131.463L30.2373 127.749L39.4268 117.455L63.121 122.56C64.9554 122.329 66.812 122.771 68.3388 123.805C69.8657 124.838 70.9568 126.39 71.4053 128.166C71.8539 129.943 71.6288 131.821 70.7726 133.444C69.9165 135.067 68.4888 136.323 66.7601 136.974Z" fill="#FFB6B6"/>
<path d="M54.9737 118.258C54.484 117.644 53.7908 117.22 53.0163 117.062L42.1704 114.829L41.0565 114.6C40.4092 114.466 39.7977 114.199 39.262 113.815C38.7263 113.431 38.2786 112.939 37.9481 112.372C37.6052 111.777 37.3978 111.114 37.3403 110.431C37.2886 109.81 37.3636 109.185 37.561 108.594L41.3194 97.3787L43.758 90.102C44.0536 89.2244 44.228 88.3112 44.2765 87.3873C44.4124 84.8306 43.6136 82.311 42.0264 80.2899C40.6311 78.5135 38.6957 77.2287 36.5063 76.6253C34.3169 76.0218 31.9896 76.1318 29.8681 76.9389C29.8061 76.9611 29.7416 76.9856 29.6796 77.0102C28.1582 77.6118 26.7989 78.5555 25.7092 79.7668C24.6195 80.9782 23.8292 82.4239 23.4007 83.9897L20.7513 93.534L15.2861 113.21C14.739 115.181 14.6285 117.246 14.9621 119.264C15.2957 121.281 16.0655 123.204 17.2189 124.899C18.3724 126.595 19.8821 128.024 21.6448 129.088C23.4075 130.152 25.3816 130.827 27.432 131.065L43.0535 132.878L50.2825 133.718C51.1184 133.818 51.9615 133.602 52.6438 133.113C53.326 132.625 53.7974 131.9 53.964 131.082C53.9757 131.038 53.9848 130.993 53.9913 130.947L54.1649 129.886L55.636 120.948L55.6509 120.857C55.7276 120.401 55.7069 119.934 55.5902 119.487C55.4736 119.039 55.2636 118.621 54.9737 118.258Z" fill="#CACACA"/>
<path d="M83.5981 137.26C84.668 137.506 85.7794 137.517 86.8539 137.292C87.9285 137.066 88.9401 136.61 89.8174 135.956C90.6948 135.301 91.4166 134.465 91.9319 133.504C92.4473 132.543 92.7438 131.483 92.8004 130.396L118.442 123.028L107.879 114.12L85.1482 122.483C83.2991 122.51 81.5242 123.207 80.1597 124.443C78.7952 125.679 77.9361 127.368 77.745 129.19C77.5539 131.011 78.0442 132.839 79.1229 134.326C80.2017 135.814 81.794 136.858 83.5981 137.26Z" fill="#FFB6B6"/>
<path d="M131.173 106.545L118.978 78.7497C117.98 76.4677 116.199 74.6095 113.949 73.5046C113.254 73.1656 112.524 72.902 111.771 72.7185C111.655 72.689 111.538 72.662 111.421 72.6398C109.826 72.295 108.171 72.3253 106.589 72.7283C105.143 73.0961 103.792 73.7617 102.623 74.6815C101.454 75.6014 100.495 76.7548 99.8063 78.0667C99.7988 78.0776 99.7922 78.0891 99.7865 78.1011C99.0178 79.5738 98.609 81.2047 98.593 82.8624C98.5771 84.5202 98.9544 86.1585 99.6947 87.6454L99.846 87.9451L108.464 105.086C108.759 105.672 108.924 106.313 108.951 106.967C108.977 107.621 108.864 108.273 108.618 108.881C108.372 109.488 107.999 110.037 107.524 110.492C107.048 110.947 106.481 111.297 105.859 111.52L105.254 111.736L94.3684 115.63C93.5516 115.918 92.8798 116.51 92.4943 117.279C92.1089 118.048 92.0399 118.936 92.302 119.755L92.3293 119.841L95.3806 129.51C95.3955 129.554 95.4103 129.599 95.4277 129.643C95.4546 129.726 95.4877 129.807 95.527 129.886C95.8513 130.606 96.4245 131.188 97.1434 131.527C97.8624 131.866 98.68 131.94 99.4491 131.736L105.324 130.2L106.522 129.886L121.692 125.918C123.688 125.396 125.546 124.453 127.14 123.153C128.734 121.853 130.025 120.228 130.926 118.388C131.826 116.548 132.314 114.537 132.357 112.493C132.4 110.449 131.996 108.42 131.173 106.545Z" fill="#CACACA"/>
<path d="M11.1382 129.886C14.6536 134.132 18.4449 138.147 22.4878 141.904H134.612C135.692 141.906 136.728 142.332 137.491 143.088C138.255 143.845 138.684 144.871 138.685 145.941L138.846 174.077C145.744 170.939 152.204 166.932 158.065 162.155C159.692 160.831 161.269 159.449 162.796 158.01C163.796 157.072 164.771 156.111 165.723 155.126C172.859 147.765 178.637 139.222 182.796 129.886H11.1382Z" fill="#3F3D56"/>
<path d="M165.723 155.126C164.773 156.111 163.797 157.073 162.796 158.01H138.928V155.126H165.723Z" fill="white"/>
<path d="M113.781 62.8792C113.663 62.6637 113.488 62.4837 113.276 62.3583C113.063 62.2329 112.82 62.1667 112.572 62.1667H31.2425C30.8778 62.1677 30.5284 62.3117 30.2708 62.5673C30.0132 62.8228 29.8684 63.1691 29.8681 63.5302V111.736H113.949V63.5302C113.951 63.3024 113.892 63.0782 113.781 62.8792Z" fill="#3F3D56"/>
<path d="M29.7945 110.431V116.379C29.7945 116.626 29.8435 116.87 29.9388 117.098C30.0341 117.326 30.1738 117.533 30.3499 117.707C30.526 117.882 30.735 118.02 30.9651 118.114C31.1952 118.209 31.4417 118.257 31.6908 118.257H62.7245V129.997H62.3123C62.2799 129.997 62.2479 130.003 62.218 130.015C62.1881 130.028 62.1609 130.046 62.1381 130.068C62.1152 130.091 62.0971 130.118 62.0847 130.147C62.0723 130.177 62.0659 130.209 62.0659 130.241V131.057C62.0659 131.089 62.0723 131.121 62.0847 131.151C62.097 131.18 62.1152 131.207 62.1381 131.23C62.1609 131.253 62.1881 131.271 62.218 131.283C62.2479 131.295 62.2799 131.301 62.3123 131.301H81.5776C81.61 131.301 81.642 131.295 81.6719 131.283C81.7018 131.271 81.7289 131.253 81.7518 131.23C81.7747 131.207 81.7928 131.18 81.8052 131.151C81.8176 131.121 81.824 131.089 81.824 131.057V130.241C81.824 130.209 81.8176 130.177 81.8052 130.147C81.7928 130.118 81.7747 130.091 81.7518 130.068C81.7289 130.046 81.7018 130.028 81.6719 130.015C81.642 130.003 81.61 129.997 81.5776 129.997H81.1654V118.257H112.199C112.448 118.257 112.695 118.209 112.925 118.114C113.155 118.02 113.364 117.882 113.54 117.707C113.716 117.533 113.856 117.326 113.951 117.098C114.046 116.87 114.095 116.626 114.095 116.379V110.431H29.7945Z" fill="#3F3D56"/>
<path d="M70.9263 93.3572C75.2156 93.3572 78.6927 89.9138 78.6927 85.6662C78.6927 81.4185 75.2156 77.9751 70.9263 77.9751C66.637 77.9751 63.1599 81.4185 63.1599 85.6662C63.1599 89.9138 66.637 93.3572 70.9263 93.3572Z" fill="#FF5757"/>
<path d="M90.7143 42.5009H89.4739C89.4739 33.2146 80.1933 27.1293 70.8308 27.1244C69.469 27.1205 68.1102 27.2513 66.7747 27.515C65.2714 27.8123 63.711 28.1685 62.1778 28.6328C56.1322 30.468 50.5256 34.0155 50.5256 42.5009C50.5243 44.1489 50.7361 45.7902 51.1557 47.3849L49.955 47.6944C49.5097 45.9985 49.2846 44.2533 49.2852 42.5009C49.2852 35.0866 52.3589 29.9939 57.6678 26.9574C60.4587 25.3605 63.8648 24.3312 67.767 23.83C69.3909 23.616 71.0326 23.5667 72.6666 23.6826C83.4332 24.4491 90.7143 32.625 90.7143 42.5009Z" fill="#FF5757"/>
<path d="M92.7807 43.1813L92.292 39.6044C92.1715 38.701 91.7321 37.8691 91.0516 37.2558C90.6148 36.8559 90.0919 36.5597 89.5224 36.3894C88.953 36.2192 88.3519 36.1794 87.7646 36.2731L86.9881 36.3787C86.7757 36.4064 86.5708 36.4756 86.3856 36.5823C86.2004 36.689 86.0383 36.8311 85.909 37.0003C85.7785 37.1689 85.6831 37.3614 85.6281 37.5668C85.5732 37.7721 85.5599 37.9862 85.589 38.1967L86.7177 46.4365C86.7642 46.7723 86.9162 47.0852 87.1522 47.3307C87.3881 47.5763 87.6961 47.7422 88.0325 47.8048C88.1322 47.8246 88.2336 47.8345 88.3352 47.8343C88.4082 47.8343 88.4811 47.8294 88.5535 47.8196L89.4218 47.7041C89.9512 47.6346 90.4606 47.4585 90.9188 47.1869C91.3769 46.9152 91.7742 46.5537 92.0861 46.1245C92.1531 46.0311 92.2176 45.9353 92.2771 45.837C92.7421 45.0332 92.9196 44.0975 92.7807 43.1813Z" fill="#FF5757"/>
<path d="M86.487 36.5286C86.2593 36.6381 86.0611 36.7998 85.909 37.0003C85.7785 37.1689 85.6831 37.3614 85.6281 37.5668C85.5732 37.7721 85.5599 37.9862 85.589 38.1967L86.7177 46.4365C86.7642 46.7723 86.9162 47.0851 87.1522 47.3307C87.3881 47.5763 87.6961 47.7422 88.0325 47.8048L86.487 36.5286Z" fill="white"/>
<path d="M92.7807 43.1814L92.292 39.6045C92.1715 38.7011 91.7321 37.8692 91.0516 37.2559L92.1754 45.4539C92.1923 45.5855 92.2265 45.7143 92.2771 45.8371C92.7421 45.0333 92.9196 44.0976 92.7807 43.1814Z" fill="#3F3D56"/>
<path d="M88.9182 45.7587C89.2577 45.7131 89.4283 44.9132 89.2994 43.9721C89.1704 43.0309 88.7908 42.3049 88.4514 42.3505C88.1119 42.3961 87.9413 43.196 88.0702 44.1372C88.1992 45.0783 88.5788 45.8043 88.9182 45.7587Z" fill="#3F3D56"/>
<path d="M88.174 41.3366C88.5135 41.291 88.6841 40.4911 88.5552 39.5499C88.4262 38.6088 88.0466 37.8828 87.7072 37.9284C87.3677 37.974 87.1971 38.7739 87.326 39.7151C87.455 40.6562 87.8346 41.3822 88.174 41.3366Z" fill="#3F3D56"/>
<path d="M92.8875 43.0563C93.227 43.0107 93.3976 42.2108 93.2687 41.2697C93.1397 40.3285 92.7601 39.6026 92.4207 39.6482C92.0812 39.6937 91.9106 40.4937 92.0395 41.4348C92.1685 42.3759 92.5481 43.1019 92.8875 43.0563Z" fill="#3F3D56"/>
<path d="M70.8308 27.1244C69.469 27.1205 68.1102 27.2513 66.7747 27.515C65.2714 27.8123 63.711 28.1685 62.1778 28.6328C59.7839 28.5174 58.0225 27.9032 57.6678 26.9574C60.4587 25.3605 63.8648 24.3312 67.767 23.83C69.3909 23.616 71.0326 23.5667 72.6666 23.6826C72.8396 23.783 72.9891 23.9185 73.1054 24.0803C73.2217 24.242 73.3021 24.4263 73.3414 24.621C73.458 25.476 72.4731 26.385 70.8308 27.1244Z" fill="#3F3D56"/>
<path d="M54.9935 51.0258L53.0833 43.1619C53.0152 42.8782 52.8639 42.6207 52.6485 42.4218C52.4331 42.2229 52.1632 42.0915 51.8727 42.0441C51.7906 42.0314 51.7076 42.0248 51.6246 42.0244C51.5076 42.0248 51.391 42.0388 51.2773 42.0662L50.538 42.2431C49.5862 42.471 48.7645 43.0636 48.2534 43.8908C47.7422 44.718 47.5834 45.7122 47.8116 46.6553L48.6675 50.1831C48.8629 51.0137 49.3283 51.7577 49.9922 52.3008C50.0998 52.3868 50.2125 52.4664 50.3296 52.5391C50.7454 52.7972 51.2093 52.9702 51.6937 53.0478C52.1782 53.1255 52.6734 53.1062 53.1503 52.9912L53.887 52.8143C54.0819 52.7693 54.2652 52.6848 54.4254 52.5661C54.6636 52.3941 54.8449 52.1558 54.946 51.8815C55.0472 51.6073 55.0637 51.3094 54.9935 51.0258Z" fill="#FF5757"/>
<path d="M50.9889 49.5625C51.3219 49.4832 51.41 48.6703 51.1856 47.7469C50.9612 46.8235 50.5094 46.1392 50.1763 46.2186C49.8433 46.298 49.7553 47.1109 49.9797 48.0343C50.204 48.9577 50.6559 49.6419 50.9889 49.5625Z" fill="#3F3D56"/>
<path d="M48.5081 50.2996C48.8412 50.2202 48.9292 49.4073 48.7048 48.4839C48.4805 47.5605 48.0286 46.8763 47.6956 46.9557C47.3626 47.035 47.2745 47.8479 47.4989 48.7713C47.7233 49.6947 48.1751 50.379 48.5081 50.2996Z" fill="#3F3D56"/>
<path d="M55.1151 50.9962L53.2049 43.1323C53.1304 42.8253 52.9662 42.5469 52.7328 42.3319C52.4994 42.1169 52.2071 41.9749 51.8925 41.9236L54.4998 52.6643C54.7573 52.4776 54.9532 52.2195 55.0627 51.9226C55.1722 51.6257 55.1904 51.3033 55.1151 50.9962Z" fill="white"/>
<path d="M48.2433 45.0977C48.1906 44.8791 48.0917 44.6739 47.953 44.4958C47.6845 45.1845 47.6352 45.9381 47.8117 46.6553L48.6675 50.1831C48.8629 51.0137 49.3284 51.7577 49.9923 52.3008L48.2433 45.0977Z" fill="#3F3D56"/>
</g>
<defs>
<clipPath id="clip0_231_2198">
<rect width="211" height="182" fill="white"/>
</clipPath>
</defs>
</svg>
