<svg width="321" height="152" viewBox="0 0 321 152" fill="none" xmlns="http://www.w3.org/2000/svg">
<rect width="321" height="152" rx="5" fill="#040505"/>
<path d="M101.812 44.7273H106.676V60.9545C106.676 62.4545 106.339 63.7576 105.664 64.8636C104.998 65.9697 104.07 66.822 102.88 67.4205C101.691 68.0189 100.308 68.3182 98.7326 68.3182C97.3311 68.3182 96.0584 68.072 94.9144 67.5795C93.7781 67.0795 92.8766 66.322 92.2099 65.3068C91.5432 64.2841 91.2137 63 91.2213 61.4545H96.119C96.1341 62.0682 96.2591 62.5947 96.494 63.0341C96.7364 63.4659 97.0659 63.7992 97.4826 64.0341C97.9069 64.2614 98.4069 64.375 98.9826 64.375C99.5887 64.375 100.1 64.2462 100.517 63.9886C100.941 63.7235 101.263 63.3371 101.483 62.8295C101.702 62.322 101.812 61.697 101.812 60.9545V44.7273ZM121.526 60.5682V50.5455H126.367V68H121.719V64.8295H121.538C121.144 65.8523 120.488 66.6742 119.572 67.2955C118.663 67.9167 117.553 68.2273 116.242 68.2273C115.075 68.2273 114.049 67.9621 113.163 67.4318C112.276 66.9015 111.583 66.1477 111.083 65.1705C110.591 64.1932 110.341 63.0227 110.333 61.6591V50.5455H115.174V60.7955C115.182 61.8258 115.458 62.6402 116.004 63.2386C116.549 63.8371 117.28 64.1364 118.197 64.1364C118.78 64.1364 119.325 64.0038 119.833 63.7386C120.341 63.4659 120.75 63.0644 121.06 62.5341C121.379 62.0038 121.534 61.3485 121.526 60.5682ZM134.76 57.9091V68H129.919V50.5455H134.533V53.625H134.738C135.124 52.6098 135.772 51.8068 136.681 51.2159C137.59 50.6174 138.692 50.3182 139.988 50.3182C141.2 50.3182 142.256 50.5833 143.158 51.1136C144.059 51.6439 144.76 52.4015 145.26 53.3864C145.76 54.3636 146.01 55.5303 146.01 56.8864V68H141.169V57.75C141.177 56.6818 140.904 55.8485 140.351 55.25C139.798 54.6439 139.037 54.3409 138.067 54.3409C137.416 54.3409 136.84 54.4811 136.34 54.7614C135.847 55.0417 135.461 55.4508 135.181 55.9886C134.908 56.5189 134.768 57.1591 134.76 57.9091ZM149.506 68V50.5455H154.346V68H149.506ZM151.937 48.2955C151.218 48.2955 150.6 48.0568 150.085 47.5795C149.578 47.0947 149.324 46.5152 149.324 45.8409C149.324 45.1742 149.578 44.6023 150.085 44.125C150.6 43.6402 151.218 43.3977 151.937 43.3977C152.657 43.3977 153.271 43.6402 153.778 44.125C154.293 44.6023 154.551 45.1742 154.551 45.8409C154.551 46.5152 154.293 47.0947 153.778 47.5795C153.271 48.0568 152.657 48.2955 151.937 48.2955ZM165.791 68.3409C164.026 68.3409 162.499 67.9659 161.211 67.2159C159.931 66.4583 158.942 65.4053 158.245 64.0568C157.548 62.7008 157.2 61.1288 157.2 59.3409C157.2 57.5379 157.548 55.9621 158.245 54.6136C158.942 53.2576 159.931 52.2045 161.211 51.4545C162.499 50.697 164.026 50.3182 165.791 50.3182C167.556 50.3182 169.079 50.697 170.359 51.4545C171.647 52.2045 172.639 53.2576 173.336 54.6136C174.033 55.9621 174.382 57.5379 174.382 59.3409C174.382 61.1288 174.033 62.7008 173.336 64.0568C172.639 65.4053 171.647 66.4583 170.359 67.2159C169.079 67.9659 167.556 68.3409 165.791 68.3409ZM165.813 64.5909C166.616 64.5909 167.287 64.3636 167.825 63.9091C168.363 63.447 168.768 62.8182 169.041 62.0227C169.321 61.2273 169.461 60.322 169.461 59.3068C169.461 58.2917 169.321 57.3864 169.041 56.5909C168.768 55.7955 168.363 55.1667 167.825 54.7045C167.287 54.2424 166.616 54.0114 165.813 54.0114C165.003 54.0114 164.321 54.2424 163.768 54.7045C163.223 55.1667 162.81 55.7955 162.529 56.5909C162.257 57.3864 162.12 58.2917 162.12 59.3068C162.12 60.322 162.257 61.2273 162.529 62.0227C162.81 62.8182 163.223 63.447 163.768 63.9091C164.321 64.3636 165.003 64.5909 165.813 64.5909ZM177.209 68V50.5455H181.902V53.5909H182.084C182.402 52.5076 182.937 51.6894 183.687 51.1364C184.437 50.5758 185.3 50.2955 186.277 50.2955C186.52 50.2955 186.781 50.3106 187.062 50.3409C187.342 50.3712 187.588 50.4129 187.8 50.4659V54.7614C187.573 54.6932 187.259 54.6326 186.857 54.5795C186.456 54.5265 186.088 54.5 185.755 54.5C185.043 54.5 184.406 54.6553 183.846 54.9659C183.293 55.2689 182.853 55.6932 182.527 56.2386C182.209 56.7841 182.05 57.4129 182.05 58.125V68H177.209ZM197.069 68V50.5455H201.91V68H197.069ZM199.501 48.2955C198.781 48.2955 198.164 48.0568 197.649 47.5795C197.141 47.0947 196.888 46.5152 196.888 45.8409C196.888 45.1742 197.141 44.6023 197.649 44.125C198.164 43.6402 198.781 43.3977 199.501 43.3977C200.221 43.3977 200.834 43.6402 201.342 44.125C201.857 44.6023 202.115 45.1742 202.115 45.8409C202.115 46.5152 201.857 47.0947 201.342 47.5795C200.834 48.0568 200.221 48.2955 199.501 48.2955ZM210.309 57.9091V68H205.468V50.5455H210.082V53.625H210.286C210.673 52.6098 211.32 51.8068 212.229 51.2159C213.139 50.6174 214.241 50.3182 215.536 50.3182C216.748 50.3182 217.805 50.5833 218.707 51.1136C219.608 51.6439 220.309 52.4015 220.809 53.3864C221.309 54.3636 221.559 55.5303 221.559 56.8864V68H216.718V57.75C216.726 56.6818 216.453 55.8485 215.9 55.25C215.347 54.6439 214.585 54.3409 213.616 54.3409C212.964 54.3409 212.389 54.4811 211.889 54.7614C211.396 55.0417 211.01 55.4508 210.729 55.9886C210.457 56.5189 210.317 57.1591 210.309 57.9091Z" fill="#FDFDFD"/>
<path d="M36.6264 107L29.9673 83.7273H35.3423L39.1946 99.8977H39.3877L43.6377 83.7273H48.24L52.4786 99.9318H52.6832L56.5355 83.7273H61.9105L55.2514 107H50.4559L46.0241 91.7841H45.8423L41.4218 107H36.6264ZM70.2126 107.341C68.4172 107.341 66.8717 106.977 65.5763 106.25C64.2884 105.515 63.296 104.477 62.599 103.136C61.902 101.788 61.5535 100.193 61.5535 98.3523C61.5535 96.5568 61.902 94.9811 62.599 93.625C63.296 92.2689 64.277 91.2121 65.5422 90.4545C66.8149 89.697 68.3073 89.3182 70.0194 89.3182C71.171 89.3182 72.2429 89.5038 73.2353 89.875C74.2353 90.2386 75.1066 90.7879 75.849 91.5227C76.599 92.2576 77.1823 93.1818 77.599 94.2955C78.0157 95.4015 78.224 96.697 78.224 98.1818V99.5114H63.4853V96.5114H73.6672C73.6672 95.8144 73.5157 95.197 73.2126 94.6591C72.9096 94.1212 72.4891 93.7008 71.9513 93.3977C71.421 93.0871 70.8035 92.9318 70.099 92.9318C69.3641 92.9318 68.7126 93.1023 68.1444 93.4432C67.5838 93.7765 67.1444 94.2273 66.8263 94.7955C66.5081 95.3561 66.3452 95.9811 66.3376 96.6705V99.5227C66.3376 100.386 66.4967 101.133 66.8149 101.761C67.1406 102.39 67.599 102.875 68.1899 103.216C68.7808 103.557 69.4816 103.727 70.2922 103.727C70.83 103.727 71.3225 103.652 71.7694 103.5C72.2164 103.348 72.599 103.121 72.9172 102.818C73.2353 102.515 73.4778 102.144 73.6444 101.705L78.1217 102C77.8944 103.076 77.4285 104.015 76.724 104.818C76.027 105.614 75.1255 106.235 74.0194 106.682C72.921 107.121 71.652 107.341 70.2126 107.341ZM81.154 107V83.7273H85.9949V92.4773H86.1426C86.3547 92.0076 86.6616 91.5303 87.0631 91.0455C87.4722 90.553 88.0025 90.1439 88.654 89.8182C89.3131 89.4848 90.1313 89.3182 91.1085 89.3182C92.3813 89.3182 93.5555 89.6515 94.6313 90.3182C95.707 90.9773 96.5669 91.9735 97.2108 93.3068C97.8547 94.6326 98.1767 96.2955 98.1767 98.2955C98.1767 100.242 97.8623 101.886 97.2335 103.227C96.6123 104.561 95.7638 105.572 94.6881 106.261C93.6199 106.943 92.4229 107.284 91.0972 107.284C90.1578 107.284 89.3585 107.129 88.6994 106.818C88.0479 106.508 87.5138 106.117 87.0972 105.648C86.6805 105.17 86.3623 104.689 86.1426 104.205H85.9267V107H81.154ZM85.8926 98.2727C85.8926 99.3106 86.0366 100.216 86.3244 100.989C86.6123 101.761 87.029 102.364 87.5744 102.795C88.1199 103.22 88.7828 103.432 89.5631 103.432C90.351 103.432 91.0176 103.216 91.5631 102.784C92.1085 102.345 92.5214 101.739 92.8017 100.966C93.0896 100.186 93.2335 99.2879 93.2335 98.2727C93.2335 97.2652 93.0934 96.3788 92.8131 95.6136C92.5328 94.8485 92.1199 94.25 91.5744 93.8182C91.029 93.3864 90.3585 93.1705 89.5631 93.1705C88.7752 93.1705 88.1085 93.3788 87.5631 93.7955C87.0252 94.2121 86.6123 94.803 86.3244 95.5682C86.0366 96.3333 85.8926 97.2348 85.8926 98.2727ZM108.264 107V83.7273H123.946V87.7841H113.184V93.3295H123.139V97.3864H113.184V102.943H123.991V107H108.264ZM132.288 96.9091V107H127.447V89.5455H132.06V92.625H132.265C132.651 91.6098 133.299 90.8068 134.208 90.2159C135.117 89.6174 136.22 89.3182 137.515 89.3182C138.727 89.3182 139.784 89.5833 140.685 90.1136C141.587 90.6439 142.288 91.4015 142.788 92.3864C143.288 93.3636 143.538 94.5303 143.538 95.8864V107H138.697V96.75C138.704 95.6818 138.432 94.8485 137.879 94.25C137.326 93.6439 136.564 93.3409 135.595 93.3409C134.943 93.3409 134.367 93.4811 133.867 93.7614C133.375 94.0417 132.988 94.4508 132.708 94.9886C132.435 95.5189 132.295 96.1591 132.288 96.9091ZM154.897 113.909C153.329 113.909 151.984 113.693 150.863 113.261C149.749 112.837 148.863 112.258 148.204 111.523C147.544 110.788 147.116 109.962 146.919 109.045L151.397 108.443C151.533 108.792 151.749 109.117 152.044 109.42C152.34 109.723 152.73 109.966 153.215 110.148C153.707 110.337 154.306 110.432 155.01 110.432C156.063 110.432 156.931 110.174 157.613 109.659C158.302 109.152 158.647 108.299 158.647 107.102V103.909H158.442C158.23 104.394 157.912 104.852 157.488 105.284C157.063 105.716 156.518 106.068 155.851 106.341C155.185 106.614 154.389 106.75 153.465 106.75C152.154 106.75 150.961 106.447 149.885 105.841C148.817 105.227 147.965 104.292 147.329 103.034C146.7 101.769 146.385 100.17 146.385 98.2386C146.385 96.2614 146.707 94.6098 147.351 93.2841C147.995 91.9583 148.851 90.9659 149.919 90.3068C150.995 89.6477 152.173 89.3182 153.454 89.3182C154.431 89.3182 155.249 89.4848 155.908 89.8182C156.567 90.1439 157.097 90.553 157.499 91.0455C157.908 91.5303 158.222 92.0076 158.442 92.4773H158.624V89.5455H163.431V107.17C163.431 108.655 163.067 109.898 162.34 110.898C161.613 111.898 160.605 112.648 159.317 113.148C158.037 113.655 156.563 113.909 154.897 113.909ZM154.999 103.114C155.779 103.114 156.438 102.92 156.976 102.534C157.522 102.14 157.938 101.58 158.226 100.852C158.522 100.117 158.669 99.2386 158.669 98.2159C158.669 97.1932 158.525 96.3068 158.238 95.5568C157.95 94.7992 157.533 94.2121 156.988 93.7955C156.442 93.3788 155.779 93.1705 154.999 93.1705C154.204 93.1705 153.533 93.3864 152.988 93.8182C152.442 94.2424 152.029 94.8333 151.749 95.5909C151.469 96.3485 151.329 97.2235 151.329 98.2159C151.329 99.2235 151.469 100.095 151.749 100.83C152.037 101.557 152.45 102.121 152.988 102.523C153.533 102.917 154.204 103.114 154.999 103.114ZM166.963 107V89.5455H171.804V107H166.963ZM169.395 87.2955C168.675 87.2955 168.058 87.0568 167.543 86.5795C167.035 86.0947 166.781 85.5152 166.781 84.8409C166.781 84.1742 167.035 83.6023 167.543 83.125C168.058 82.6402 168.675 82.3977 169.395 82.3977C170.115 82.3977 170.728 82.6402 171.236 83.125C171.751 83.6023 172.009 84.1742 172.009 84.8409C172.009 85.5152 171.751 86.0947 171.236 86.5795C170.728 87.0568 170.115 87.2955 169.395 87.2955ZM180.203 96.9091V107H175.362V89.5455H179.975V92.625H180.18C180.566 91.6098 181.214 90.8068 182.123 90.2159C183.032 89.6174 184.135 89.3182 185.43 89.3182C186.642 89.3182 187.699 89.5833 188.6 90.1136C189.502 90.6439 190.203 91.4015 190.703 92.3864C191.203 93.3636 191.453 94.5303 191.453 95.8864V107H186.612V96.75C186.619 95.6818 186.347 94.8485 185.794 94.25C185.241 93.6439 184.479 93.3409 183.51 93.3409C182.858 93.3409 182.282 93.4811 181.782 93.7614C181.29 94.0417 180.903 94.4508 180.623 94.9886C180.35 95.5189 180.21 96.1591 180.203 96.9091ZM202.903 107.341C201.107 107.341 199.562 106.977 198.266 106.25C196.978 105.515 195.986 104.477 195.289 103.136C194.592 101.788 194.244 100.193 194.244 98.3523C194.244 96.5568 194.592 94.9811 195.289 93.625C195.986 92.2689 196.967 91.2121 198.232 90.4545C199.505 89.697 200.997 89.3182 202.709 89.3182C203.861 89.3182 204.933 89.5038 205.925 89.875C206.925 90.2386 207.797 90.7879 208.539 91.5227C209.289 92.2576 209.872 93.1818 210.289 94.2955C210.706 95.4015 210.914 96.697 210.914 98.1818V99.5114H196.175V96.5114H206.357C206.357 95.8144 206.206 95.197 205.903 94.6591C205.6 94.1212 205.179 93.7008 204.641 93.3977C204.111 93.0871 203.494 92.9318 202.789 92.9318C202.054 92.9318 201.403 93.1023 200.834 93.4432C200.274 93.7765 199.834 94.2273 199.516 94.7955C199.198 95.3561 199.035 95.9811 199.028 96.6705V99.5227C199.028 100.386 199.187 101.133 199.505 101.761C199.831 102.39 200.289 102.875 200.88 103.216C201.471 103.557 202.172 103.727 202.982 103.727C203.52 103.727 204.012 103.652 204.459 103.5C204.906 103.348 205.289 103.121 205.607 102.818C205.925 102.515 206.168 102.144 206.334 101.705L210.812 102C210.584 103.076 210.119 104.015 209.414 104.818C208.717 105.614 207.815 106.235 206.709 106.682C205.611 107.121 204.342 107.341 202.903 107.341ZM221.708 107.341C219.912 107.341 218.367 106.977 217.071 106.25C215.783 105.515 214.791 104.477 214.094 103.136C213.397 101.788 213.049 100.193 213.049 98.3523C213.049 96.5568 213.397 94.9811 214.094 93.625C214.791 92.2689 215.772 91.2121 217.037 90.4545C218.31 89.697 219.802 89.3182 221.514 89.3182C222.666 89.3182 223.738 89.5038 224.73 89.875C225.73 90.2386 226.602 90.7879 227.344 91.5227C228.094 92.2576 228.677 93.1818 229.094 94.2955C229.511 95.4015 229.719 96.697 229.719 98.1818V99.5114H214.98V96.5114H225.162C225.162 95.8144 225.011 95.197 224.708 94.6591C224.405 94.1212 223.984 93.7008 223.446 93.3977C222.916 93.0871 222.299 92.9318 221.594 92.9318C220.859 92.9318 220.208 93.1023 219.639 93.4432C219.079 93.7765 218.639 94.2273 218.321 94.7955C218.003 95.3561 217.84 95.9811 217.833 96.6705V99.5227C217.833 100.386 217.992 101.133 218.31 101.761C218.636 102.39 219.094 102.875 219.685 103.216C220.276 103.557 220.977 103.727 221.787 103.727C222.325 103.727 222.817 103.652 223.264 103.5C223.711 103.348 224.094 103.121 224.412 102.818C224.73 102.515 224.973 102.144 225.139 101.705L229.617 102C229.389 103.076 228.924 104.015 228.219 104.818C227.522 105.614 226.621 106.235 225.514 106.682C224.416 107.121 223.147 107.341 221.708 107.341ZM232.558 107V89.5455H237.251V92.5909H237.433C237.751 91.5076 238.285 90.6894 239.035 90.1364C239.785 89.5758 240.649 89.2955 241.626 89.2955C241.869 89.2955 242.13 89.3106 242.41 89.3409C242.691 89.3712 242.937 89.4129 243.149 89.4659V93.7614C242.922 93.6932 242.607 93.6326 242.206 93.5795C241.804 93.5265 241.437 93.5 241.104 93.5C240.391 93.5 239.755 93.6553 239.194 93.9659C238.641 94.2689 238.202 94.6932 237.876 95.2386C237.558 95.7841 237.399 96.4129 237.399 97.125V107H232.558ZM245.332 107V89.5455H250.173V107H245.332ZM247.764 87.2955C247.044 87.2955 246.427 87.0568 245.911 86.5795C245.404 86.0947 245.15 85.5152 245.15 84.8409C245.15 84.1742 245.404 83.6023 245.911 83.125C246.427 82.6402 247.044 82.3977 247.764 82.3977C248.483 82.3977 249.097 82.6402 249.605 83.125C250.12 83.6023 250.377 84.1742 250.377 84.8409C250.377 85.5152 250.12 86.0947 249.605 86.5795C249.097 87.0568 248.483 87.2955 247.764 87.2955ZM258.571 96.9091V107H253.731V89.5455H258.344V92.625H258.549C258.935 91.6098 259.583 90.8068 260.492 90.2159C261.401 89.6174 262.503 89.3182 263.799 89.3182C265.011 89.3182 266.068 89.5833 266.969 90.1136C267.871 90.6439 268.571 91.4015 269.071 92.3864C269.571 93.3636 269.821 94.5303 269.821 95.8864V107H264.981V96.75C264.988 95.6818 264.715 94.8485 264.162 94.25C263.609 93.6439 262.848 93.3409 261.878 93.3409C261.227 93.3409 260.651 93.4811 260.151 93.7614C259.659 94.0417 259.272 94.4508 258.992 94.9886C258.719 95.5189 258.579 96.1591 258.571 96.9091ZM281.18 113.909C279.612 113.909 278.268 113.693 277.146 113.261C276.033 112.837 275.146 112.258 274.487 111.523C273.828 110.788 273.4 109.962 273.203 109.045L277.68 108.443C277.817 108.792 278.033 109.117 278.328 109.42C278.624 109.723 279.014 109.966 279.499 110.148C279.991 110.337 280.59 110.432 281.294 110.432C282.347 110.432 283.215 110.174 283.896 109.659C284.586 109.152 284.93 108.299 284.93 107.102V103.909H284.726C284.514 104.394 284.196 104.852 283.771 105.284C283.347 105.716 282.802 106.068 282.135 106.341C281.468 106.614 280.673 106.75 279.749 106.75C278.438 106.75 277.245 106.447 276.169 105.841C275.101 105.227 274.249 104.292 273.612 103.034C272.983 101.769 272.669 100.17 272.669 98.2386C272.669 96.2614 272.991 94.6098 273.635 93.2841C274.279 91.9583 275.135 90.9659 276.203 90.3068C277.279 89.6477 278.457 89.3182 279.737 89.3182C280.715 89.3182 281.533 89.4848 282.192 89.8182C282.851 90.1439 283.381 90.553 283.783 91.0455C284.192 91.5303 284.506 92.0076 284.726 92.4773H284.908V89.5455H289.715V107.17C289.715 108.655 289.351 109.898 288.624 110.898C287.896 111.898 286.889 112.648 285.601 113.148C284.321 113.655 282.847 113.909 281.18 113.909ZM281.283 103.114C282.063 103.114 282.722 102.92 283.26 102.534C283.805 102.14 284.222 101.58 284.51 100.852C284.805 100.117 284.953 99.2386 284.953 98.2159C284.953 97.1932 284.809 96.3068 284.521 95.5568C284.233 94.7992 283.817 94.2121 283.271 93.7955C282.726 93.3788 282.063 93.1705 281.283 93.1705C280.487 93.1705 279.817 93.3864 279.271 93.8182C278.726 94.2424 278.313 94.8333 278.033 95.5909C277.752 96.3485 277.612 97.2235 277.612 98.2159C277.612 99.2235 277.752 100.095 278.033 100.83C278.321 101.557 278.733 102.121 279.271 102.523C279.817 102.917 280.487 103.114 281.283 103.114Z" fill="#FF5757"/>
</svg>
