<svg width="60" height="48" viewBox="0 0 60 48" fill="none" xmlns="http://www.w3.org/2000/svg">
<rect x="1.5" y="1.5" width="45" height="45" stroke="#F8F8F8" stroke-width="3"/>
<path d="M21.7102 18.9901V16.4545H33.6562V18.9901H29.2031V31H26.1634V18.9901H21.7102ZM35.4236 31V16.4545H41.2474C42.3175 16.4545 43.21 16.6132 43.925 16.9304C44.64 17.2476 45.1774 17.688 45.5372 18.2514C45.8971 18.8101 46.077 19.4541 46.077 20.1832C46.077 20.7514 45.9634 21.2509 45.7361 21.6818C45.5088 22.108 45.1963 22.4583 44.7986 22.733C44.4056 23.0028 43.9558 23.1946 43.4491 23.3082V23.4503C44.0031 23.474 44.5216 23.6302 45.0045 23.919C45.4922 24.2079 45.8876 24.6127 46.1906 25.1335C46.4937 25.6496 46.6452 26.2652 46.6452 26.9801C46.6452 27.7519 46.4534 28.4408 46.0699 29.0469C45.6911 29.6482 45.13 30.1241 44.3866 30.4744C43.6433 30.8248 42.7271 31 41.6381 31H35.4236ZM38.4989 28.4858H41.006C41.863 28.4858 42.488 28.3224 42.881 27.9957C43.274 27.6643 43.4705 27.224 43.4705 26.6747C43.4705 26.2723 43.3734 25.9171 43.1793 25.6094C42.9851 25.3016 42.7081 25.0601 42.3483 24.8849C41.9932 24.7098 41.5694 24.6222 41.077 24.6222H38.4989V28.4858ZM38.4989 22.5412H40.7787C41.2001 22.5412 41.5741 22.4678 41.9009 22.321C42.2323 22.1695 42.4927 21.9564 42.6821 21.6818C42.8762 21.4072 42.9733 21.0781 42.9733 20.6946C42.9733 20.169 42.7863 19.7453 42.4122 19.4233C42.0429 19.1013 41.5173 18.9403 40.8355 18.9403H38.4989V22.5412ZM48.4462 31V16.4545H58.2474V18.9901H51.5215V22.456H57.7431V24.9915H51.5215V28.4645H58.2758V31H48.4462Z" fill="#FF5757"/>
</svg>
