<svg width="111" height="84" viewBox="0 0 111 84" fill="none" xmlns="http://www.w3.org/2000/svg">
<g clip-path="url(#clip0_64_1016)">
<path d="M78.7887 61.6092H19.0137C18.4811 61.6085 17.9704 61.3917 17.5938 61.0061C17.2172 60.6206 17.0054 60.0979 17.0048 59.5526V9.72657C17.0054 9.18134 17.2172 8.65862 17.5938 8.27308C17.9704 7.88755 18.4811 7.67068 19.0137 7.67004H78.7887C79.3213 7.67068 79.8319 7.88755 80.2085 8.27308C80.5851 8.65862 80.797 9.18134 80.7976 9.72657V59.5526C80.797 60.0979 80.5851 60.6206 80.2085 61.0061C79.8319 61.3917 79.3213 61.6085 78.7887 61.6092Z" fill="#E6E6E6"/>
<path d="M20.369 9.13379C19.856 9.1344 19.3641 9.34331 19.0013 9.7147C18.6386 10.0861 18.4345 10.5896 18.4339 11.1148V58.1655C18.4345 58.6907 18.6386 59.1942 19.0014 59.5655C19.3641 59.9369 19.856 60.1458 20.369 60.1464H61.2827C66.0777 60.1408 70.6748 58.1884 74.0655 54.7174C77.4561 51.2464 79.3633 46.5403 79.3687 41.6316V11.1148C79.3682 10.5896 79.1641 10.0861 78.8013 9.7147C78.4386 9.34331 77.9467 9.1344 77.4337 9.13379L20.369 9.13379Z" fill="white"/>
<path d="M67.8886 30.2946H57.05C56.824 30.2944 56.6072 30.2023 56.4474 30.0387C56.2875 29.8751 56.1976 29.6532 56.1974 29.4218V23.8993C56.1976 23.6679 56.2875 23.4461 56.4474 23.2824C56.6072 23.1188 56.824 23.0267 57.05 23.0265H67.8886C68.1147 23.0267 68.3314 23.1188 68.4912 23.2824C68.6511 23.4461 68.741 23.6679 68.7413 23.8993C69.4119 25.8536 69.5072 27.7105 68.7413 29.4218C68.741 29.6532 68.6511 29.8751 68.4912 30.0387C68.3314 30.2023 68.1147 30.2944 67.8886 30.2946Z" fill="#E6E6E6"/>
<path d="M66.6046 29.7608H57.3961C57.204 29.7606 57.0199 29.6824 56.8841 29.5434C56.7483 29.4044 56.6719 29.2159 56.6717 29.0193V24.3274C56.6719 24.1308 56.7483 23.9423 56.8841 23.8033C57.0199 23.6642 57.204 23.586 57.3961 23.5858H66.6046C66.7967 23.586 66.9808 23.6642 67.1166 23.8033C67.2524 23.9423 67.3288 24.1308 67.329 24.3274C67.9505 25.9983 68.0504 27.5795 67.329 29.0193C67.3288 29.2159 67.2524 29.4044 67.1166 29.5434C66.9808 29.6824 66.7967 29.7606 66.6046 29.7608Z" fill="white"/>
<path d="M66.108 33.1875H58.8066C58.5919 33.1878 58.3857 33.1008 58.2336 32.9455C58.0815 32.7903 57.9958 32.5796 57.9954 32.3597C57.995 32.1399 58.0799 31.9288 58.2315 31.773C58.383 31.6172 58.5888 31.5294 58.8036 31.5289H66.108C66.3226 31.5294 66.5282 31.6169 66.6798 31.7724C66.8314 31.9278 66.9165 32.1385 66.9165 32.3582C66.9165 32.5779 66.8314 32.7885 66.6798 32.944C66.5282 33.0995 66.3226 33.187 66.108 33.1875Z" fill="#E6E6E6"/>
<path d="M61.1989 24.8528C61.1149 24.8531 61.0344 24.8874 60.9751 24.9482C60.9157 25.0091 60.8823 25.0915 60.8821 25.1775V28.6925C60.8821 28.7493 60.8966 28.8051 60.9243 28.8543C60.952 28.9035 60.9917 28.9444 61.0397 28.9729C61.0876 29.0014 61.1421 29.0165 61.1975 29.0168C61.2529 29.017 61.3075 29.0023 61.3556 28.9742L64.3863 27.2051C64.4351 27.1768 64.4755 27.1357 64.5036 27.086C64.5317 27.0364 64.5465 26.98 64.5463 26.9226C64.5462 26.8652 64.5311 26.8089 64.5028 26.7595C64.4744 26.71 64.4337 26.6691 64.3848 26.641L61.3543 24.8949C61.3069 24.8674 61.2533 24.8529 61.1989 24.8528Z" fill="#E6E6E6"/>
<path d="M105.415 77.2748C105.248 77.0572 105.021 76.8959 104.763 76.8116C104.505 76.7273 104.229 76.724 103.97 76.802L103.913 76.8192L103.404 78.8531C103.328 78.5499 103.165 77.8656 103.062 77.1959L103.053 77.1405L103.002 77.1632C102.47 77.4039 101.97 77.7125 101.514 78.0816C100.705 78.7456 100.048 79.5818 99.5868 80.5322C99.1259 81.4826 98.8726 82.5243 98.8446 83.5851L98.8437 83.6241L98.8428 83.6486L98.9102 83.6241L100.356 83.095C100.996 83.1527 101.641 83.0634 102.243 82.8335C102.845 82.6037 103.39 82.2391 103.837 81.7663C104.421 81.1356 104.822 80.3242 105.209 79.5392C105.323 79.3105 105.439 79.0745 105.557 78.8476C105.69 78.6009 105.747 78.3192 105.722 78.0388C105.696 77.7584 105.589 77.4923 105.415 77.2748Z" fill="#F2F2F2"/>
<path d="M68.4895 25.4094C68.5185 25.5634 68.5801 25.709 68.67 25.8359C68.7599 25.9628 68.876 26.0681 69.0099 26.1441C69.1438 26.2202 69.2924 26.2653 69.4452 26.2762C69.598 26.2871 69.7513 26.2636 69.8943 26.2073L74.2157 31.3537L74.7628 29.4539L70.4785 24.7455C70.3702 24.5059 70.1799 24.3153 69.9435 24.2098C69.7071 24.1042 69.4411 24.0912 69.1959 24.173C68.9507 24.2548 68.7434 24.4259 68.6132 24.6538C68.483 24.8817 68.4389 25.1505 68.4895 25.4094Z" fill="#FFB8B8"/>
<path d="M85.9059 82.3938H84.4758L83.7955 76.7468H85.9062L85.9059 82.3938Z" fill="#FFB6B6"/>
<path d="M85.8678 81.9156L84.3408 81.2798L84.2971 81.2615L83.454 81.9156C82.978 81.9157 82.5215 82.1093 82.1849 82.4539C81.8483 82.7985 81.6592 83.2658 81.6591 83.7531V83.8128H86.2702V81.9156H85.8678Z" fill="#2F2E41"/>
<path d="M96.108 82.3938H94.6779L93.9975 76.7468H96.1083L96.108 82.3938Z" fill="#FFB6B6"/>
<path d="M96.0698 81.9156L94.5429 81.2798L94.4992 81.2615L93.6561 81.9156C93.1801 81.9157 92.7236 82.1093 92.387 82.4539C92.0504 82.7985 91.8613 83.2658 91.8612 83.7531V83.8128H96.4723V81.9156H96.0698Z" fill="#2F2E41"/>
<path d="M92.7327 48.6725C92.7327 48.6725 94.5265 50.5829 94.5265 52.1526C94.5265 53.7223 94.078 55.8776 94.5265 56.3493C94.9749 56.821 95.5355 57.3948 94.8628 58.0834C94.1901 58.772 93.8538 59.1164 94.3022 59.5754C94.7507 60.0345 94.5265 68.0682 94.5265 68.0682L96.8808 78.8564H93.9147L90.1542 68.0682L89.1452 59.1163L85.882 67.7239L86.2423 78.949L83.1415 78.8564L81.858 66.9205C81.858 66.9205 83.7639 55.5667 83.4275 55.2757C83.0912 54.9847 83.4275 54.3973 83.4275 54.3973L84.3244 50.0497L92.7327 48.6725Z" fill="#2F2E41"/>
<path d="M89.2207 35.1277C89.2207 35.1277 89.8306 32.6673 87.0207 31.9619C84.2107 31.2565 76.1783 30.3502 76.1783 30.3502L72.119 25.9407L70.7436 27.9856L75.2942 33.7745L86.0764 36.0417L89.2207 35.1277Z" fill="#3F3D56"/>
<path d="M71.4121 27.8348C71.5381 27.6676 71.6368 27.4805 71.7041 27.2809L72.2863 25.8166L72.1352 25.8101C71.9261 25.7698 71.711 25.7752 71.5041 25.826C71.2971 25.8767 71.103 25.9717 70.9345 26.1046C70.7659 26.2375 70.6266 26.4054 70.5259 26.5973C70.4251 26.7891 70.3651 27.0006 70.3497 27.2178C70.3306 27.4058 70.3636 27.5954 70.4448 27.765C70.4862 27.8491 70.5465 27.922 70.6206 27.9777C70.6948 28.0334 70.7808 28.0703 70.8716 28.0854C70.9747 28.091 71.0776 28.0712 71.1717 28.0276C71.2658 27.984 71.3482 27.9179 71.4121 27.8348Z" fill="#E6E6E6"/>
<path d="M83.7519 50.636L83.4156 53.1319C83.4156 53.1319 84.0883 53.8714 84.4246 53.779C84.7609 53.6865 85.9942 53.1484 85.9942 53.1484C85.9942 53.1484 87.4516 53.9638 88.2364 54.0563C89.0211 54.1487 93.1692 53.5941 93.2813 53.3168C93.3934 53.0395 94.6965 51.9539 94.6965 51.9539L94.1782 48.7872L83.7519 50.636Z" fill="#E6E6E6"/>
<path d="M94.6749 41.9047C94.6749 41.9047 94.3901 44.3114 94.6143 44.5329C94.8385 44.7532 94.3901 46.1476 93.9417 47.0658C93.4932 47.9839 94.278 48.0987 94.278 48.7873C94.278 49.4759 94.6143 52.0008 94.6143 52.0008C94.6143 52.0008 91.1389 52.2303 90.5783 51.6565C90.0178 51.0827 89.1209 51.5417 87.8877 52.8042C86.6545 54.0666 83.9762 53.0337 83.4156 52.4599C82.855 51.886 83.8517 49.8202 84.188 49.4197C84.5244 49.0191 83.864 49.4828 83.5277 48.2135C83.1914 46.9441 83.8517 47.0658 84.4123 46.4919C84.9728 45.9181 84.4123 44.8852 83.9638 43.8523C83.5154 42.8194 83.8517 35.13 83.8517 33.2937C83.8517 31.4574 86.3181 31.2278 86.3181 31.2278L87.2946 29.9711L88.0121 29.0473L89.418 28.9899L89.455 28.9887L90.8149 28.9325L91.4752 29.7198L92.9327 31.4574L94.6143 31.8017C95.9596 32.2608 95.6233 35.13 95.6233 35.13L94.6749 41.9047Z" fill="#3F3D56"/>
<path d="M89.3486 28.4919C90.9402 28.4919 92.2305 27.1711 92.2305 25.5418C92.2305 23.9125 90.9402 22.5917 89.3486 22.5917C87.757 22.5917 86.4668 23.9125 86.4668 25.5418C86.4668 27.1711 87.757 28.4919 89.3486 28.4919Z" fill="#FFB6B6"/>
<path d="M92.69 24.5494C91.8974 24.0518 91.999 22.7506 91.2352 22.2963C90.8556 22.0723 90.4288 21.9455 89.9911 21.9266C89.5533 21.9078 89.1176 21.9976 88.721 22.1882C88.1831 21.9526 87.5386 22.1406 87.1083 22.566C86.6779 22.9914 86.445 23.619 86.3763 24.2502C86.3267 24.8843 86.3712 25.5225 86.5082 26.143C86.551 25.8937 86.5937 25.6444 86.6365 25.3951L88.9083 24.8868C88.7072 25.0718 88.5061 25.2568 88.305 25.4417C89.3339 25.6815 90.4135 25.5087 91.3217 24.9588C92.3107 25.4127 92.1315 26.432 91.2633 27.7848C91.5997 28.3586 93.5932 25.1164 92.69 24.5494Z" fill="#2F2E41"/>
<path d="M91.4752 29.7198C91.4688 29.7251 91.462 29.7301 91.4551 29.7347C91.2175 29.8797 90.9457 29.9551 90.6692 29.9527C90.3072 29.9836 89.9479 29.8683 89.668 29.6314C89.5211 29.4891 88.937 29.7898 88.5536 29.9562C88.1515 30.1268 87.7005 30.1321 87.2946 29.9711L88.0121 29.0472L89.1947 28.7788H89.4899L90.8149 28.9324L91.4752 29.7198Z" fill="#E6E6E6"/>
<path d="M110.825 83.9536L70.7105 84C70.6874 84.0002 70.6645 83.9956 70.6432 83.9867C70.6218 83.9778 70.6023 83.9646 70.5859 83.948C70.5695 83.9314 70.5565 83.9116 70.5475 83.8898C70.5386 83.8681 70.5339 83.8447 70.5338 83.8211C70.5337 83.7974 70.5381 83.774 70.5468 83.7521C70.5556 83.7302 70.5684 83.7104 70.5846 83.6936C70.6009 83.6768 70.6202 83.6634 70.6415 83.6542C70.6627 83.6451 70.6856 83.6403 70.7087 83.6402H70.7105L110.825 83.5938C110.872 83.594 110.916 83.613 110.949 83.6468C110.982 83.6805 111 83.7261 111 83.7737C111 83.8212 110.982 83.8669 110.949 83.9006C110.916 83.9343 110.872 83.9534 110.825 83.9536Z" fill="#CACACA"/>
<path d="M62.7934 23.5277H62.4981V1.91174H74.1092V2.21397H62.7934V23.5277Z" fill="#3F3D56"/>
<path d="M83.1392 0H75.3156C74.8066 0 74.3185 0.206974 73.9586 0.575388C73.5988 0.943802 73.3966 1.44348 73.3966 1.96449C73.3966 2.48551 73.5988 2.98519 73.9586 3.3536C74.3185 3.72202 74.8066 3.92899 75.3156 3.92899H83.1392C83.6482 3.92899 84.1363 3.72202 84.4962 3.3536C84.8561 2.98519 85.0582 2.48551 85.0582 1.96449C85.0582 1.44348 84.8561 0.943802 84.4962 0.575388C84.1363 0.206974 83.6482 0 83.1392 0Z" fill="#FF5757"/>
<path d="M62.4745 25.5052C63.4484 25.5052 64.2379 24.697 64.2379 23.7C64.2379 22.703 63.4484 21.8948 62.4745 21.8948C61.5006 21.8948 60.7111 22.703 60.7111 23.7C60.7111 24.697 61.5006 25.5052 62.4745 25.5052Z" fill="#FF5757"/>
<path d="M41.225 30.4833L48.961 28.6507L51.1815 28.1246C51.4593 28.0588 51.3439 27.6211 51.066 27.6869L43.33 29.5195L41.1095 30.0455C40.8317 30.1113 40.9471 30.5491 41.225 30.4833Z" fill="#F2F2F2"/>
<path d="M49.2134 25.7107L53.3548 27.6609C53.4961 27.7109 53.6285 27.7843 53.7467 27.8781C53.861 27.9927 53.7778 28.1029 53.6845 28.2028C53.4058 28.4692 53.1114 28.7179 52.803 28.9476L51.0386 30.416C50.8172 30.6003 51.1297 30.922 51.3491 30.7394L52.8858 29.4604L53.6542 28.8209C53.8718 28.6398 54.1368 28.4549 54.2243 28.1663C54.4081 27.5599 53.6828 27.3188 53.2797 27.129L51.4762 26.2797L49.4389 25.3204C49.1822 25.1994 48.9547 25.5888 49.2134 25.7107Z" fill="#F2F2F2"/>
<path d="M106.363 40.5568C105.626 40.0447 104.729 39.8544 103.853 39.7899C102.857 39.7344 101.859 39.7356 100.864 39.7935C99.8295 39.8354 98.7973 39.912 97.7673 40.0233C96.7387 40.1348 95.7144 40.2808 94.6944 40.4614C93.7812 40.6069 92.8775 40.8094 91.9885 41.0677C91.1469 41.3061 90.3542 41.698 89.6485 42.2245C89.029 42.7014 88.5526 43.3467 88.2734 44.087C87.9993 44.7812 87.9527 45.5478 88.1406 46.2715C88.2407 46.623 88.4121 46.949 88.6436 47.2281C88.9112 47.5343 89.2282 47.7913 89.5807 47.9876C90.3126 48.4155 91.1419 48.6727 91.8038 49.2204C91.9784 49.3637 92.1375 49.5257 92.2785 49.7035C92.3742 49.8411 92.5065 49.9477 92.6597 50.0105C92.8049 50.0625 92.9618 50.0692 93.1107 50.03C93.2596 49.9907 93.3939 49.9072 93.4965 49.79C93.6291 49.6043 93.7396 49.4031 93.8258 49.1906L94.175 48.5009C94.1983 48.4406 94.2276 48.3828 94.2623 48.3285C94.2885 48.2966 94.2417 48.3292 94.2506 48.3208C94.2555 48.3161 94.2656 48.3163 94.2712 48.3126C94.3001 48.2979 94.3303 48.286 94.3614 48.2772C94.6844 48.1511 95.0089 48.029 95.3348 47.9108C96.5378 47.4719 97.7552 47.0674 98.9919 46.7397C99.6283 46.565 100.274 46.4268 100.925 46.3257C101.769 46.2027 102.625 46.217 103.473 46.1329C104.385 46.0423 105.327 45.8533 106.11 45.3389C106.757 44.9363 107.255 44.3256 107.527 43.6021C107.645 43.2574 107.685 42.8898 107.645 42.5269C107.544 41.7056 107.019 41.012 106.363 40.5568Z" fill="#E6E6E6"/>
<path d="M104.853 41.0183C104.187 40.5555 103.377 40.3836 102.585 40.3253C101.685 40.2751 100.783 40.2762 99.8836 40.3285C98.9489 40.3664 98.0162 40.4356 97.0853 40.5362C96.1558 40.6369 95.2302 40.7689 94.3085 40.9321C93.4832 41.0636 92.6666 41.2466 91.8632 41.48C91.1026 41.6955 90.3863 42.0496 89.7486 42.5253C89.1888 42.9563 88.7582 43.5394 88.506 44.2084C88.2583 44.8358 88.2162 45.5285 88.386 46.1825C88.4764 46.5002 88.6313 46.7947 88.8405 47.047C89.0823 47.3237 89.3688 47.5559 89.6874 47.7334C90.3488 48.12 91.0981 48.3524 91.6963 48.8474C91.8541 48.9769 91.9979 49.1232 92.1253 49.2839C92.2118 49.4083 92.3313 49.5046 92.4698 49.5614C92.601 49.6083 92.7428 49.6144 92.8773 49.579C93.0119 49.5435 93.1332 49.468 93.2259 49.3621C93.3458 49.1943 93.4457 49.0124 93.5235 48.8205L93.8391 48.1972C93.8602 48.1427 93.8866 48.0905 93.918 48.0414C93.9416 48.0125 93.8994 48.042 93.9074 48.0344C93.9119 48.0302 93.921 48.0303 93.9261 48.027C93.9522 48.0137 93.9795 48.003 94.0076 47.995C94.2995 47.8811 94.5927 47.7707 94.8872 47.6639C95.9743 47.2673 97.0745 46.9017 98.192 46.6056C98.7671 46.4477 99.3503 46.3228 99.939 46.2315C100.701 46.1203 101.475 46.1332 102.241 46.0572C103.066 45.9754 103.917 45.8045 104.624 45.3397C105.209 44.9759 105.659 44.424 105.905 43.7703C106.011 43.4587 106.048 43.1266 106.012 42.7986C105.92 42.0564 105.446 41.4297 104.853 41.0183Z" fill="white"/>
<path d="M103.457 41.8538L92.5923 43.9051C92.5613 43.9112 92.5293 43.9109 92.4984 43.9044C92.4674 43.8978 92.438 43.885 92.4119 43.8667C92.3857 43.8485 92.3634 43.8252 92.3461 43.7981C92.3288 43.7709 92.3169 43.7406 92.311 43.7088C92.3052 43.677 92.3056 43.6443 92.3121 43.6126C92.3186 43.5809 92.3312 43.5509 92.3491 43.5242C92.367 43.4975 92.3899 43.4747 92.4164 43.457C92.4429 43.4394 92.4726 43.4273 92.5037 43.4214L92.5051 43.4212L103.37 41.3698C103.401 41.3639 103.433 41.3644 103.464 41.3711C103.494 41.3779 103.524 41.3908 103.55 41.4091C103.576 41.4274 103.598 41.4508 103.615 41.478C103.632 41.5051 103.644 41.5354 103.65 41.5672C103.656 41.5989 103.655 41.6316 103.649 41.6632C103.642 41.6948 103.629 41.7247 103.611 41.7514C103.594 41.778 103.571 41.8007 103.544 41.8183C103.518 41.8359 103.488 41.8479 103.457 41.8538Z" fill="#E6E6E6"/>
<path d="M103.725 43.3393L92.86 45.3906C92.8289 45.3967 92.797 45.3964 92.766 45.3898C92.735 45.3832 92.7056 45.3704 92.6795 45.3522C92.6534 45.334 92.631 45.3106 92.6137 45.2835C92.5964 45.2564 92.5845 45.2261 92.5787 45.1943C92.5729 45.1624 92.5732 45.1297 92.5798 45.0981C92.5863 45.0664 92.5989 45.0363 92.6168 45.0096C92.6347 44.983 92.6575 44.9601 92.684 44.9425C92.7106 44.9249 92.7402 44.9128 92.7713 44.9069L92.7728 44.9066L103.637 42.8553C103.669 42.8494 103.7 42.8499 103.731 42.8566C103.762 42.8634 103.791 42.8763 103.817 42.8946C103.843 42.9129 103.866 42.9363 103.883 42.9634C103.9 42.9905 103.912 43.0209 103.917 43.0526C103.923 43.0844 103.923 43.117 103.916 43.1486C103.91 43.1802 103.897 43.2102 103.879 43.2368C103.861 43.2634 103.838 43.2862 103.812 43.3038C103.785 43.3213 103.756 43.3334 103.725 43.3393Z" fill="#E6E6E6"/>
<path d="M94.3937 46.6369L93.1276 46.8759C93.065 46.8875 93.0005 46.8732 92.9481 46.8362C92.8958 46.7992 92.86 46.7424 92.8484 46.6784C92.8369 46.6144 92.8506 46.5483 92.8866 46.4946C92.9226 46.4409 92.9779 46.404 93.0404 46.392L94.3065 46.1529C94.3691 46.1412 94.4337 46.1555 94.486 46.1925C94.5384 46.2295 94.5743 46.2863 94.5859 46.3504C94.5974 46.4144 94.5836 46.4806 94.5476 46.5343C94.5116 46.588 94.4562 46.6249 94.3937 46.6369Z" fill="#E6E6E6"/>
<path d="M93.4765 52.8121C94.0314 52.7074 94.3982 52.1619 94.2959 51.5938C94.1935 51.0258 93.6607 50.6502 93.1058 50.755C92.5509 50.8598 92.184 51.4052 92.2864 51.9733C92.3887 52.5413 92.9215 52.9169 93.4765 52.8121Z" fill="#D1D3D4"/>
<path d="M37.2496 30.0148H27.9695C27.5387 30.0143 27.1257 29.8389 26.8211 29.5271C26.5165 29.2152 26.3451 28.7924 26.3446 28.3514V22.0903C26.3451 21.6493 26.5165 21.2265 26.8211 20.9147C27.1257 20.6028 27.5387 20.4274 27.9695 20.4269H37.2496C37.6804 20.4274 38.0934 20.6028 38.398 20.9147C38.7027 21.2265 38.874 21.6493 38.8745 22.0903V28.3514C38.874 28.7924 38.7027 29.2152 38.398 29.5271C38.0934 29.8389 37.6804 30.0143 37.2496 30.0148Z" fill="#E6E6E6"/>
<path d="M36.2298 29.6776H28.1532C27.7783 29.6771 27.4188 29.5245 27.1537 29.253C26.8886 28.9816 26.7395 28.6137 26.739 28.2298V22.7807C26.7395 22.3969 26.8886 22.0289 27.1537 21.7575C27.4188 21.4861 27.7783 21.3335 28.1532 21.333H36.2298C36.6047 21.3335 36.9642 21.4861 37.2293 21.7575C37.4944 22.0289 37.6436 22.3969 37.644 22.7807V28.2299C37.6436 28.6137 37.4944 28.9816 37.2293 29.253C36.9642 29.5245 36.6047 29.6771 36.2298 29.6776Z" fill="white"/>
<path d="M38.5567 35.6556H26.6492C26.5756 35.6555 26.5051 35.6254 26.4531 35.5721C26.4011 35.5188 26.3719 35.4465 26.3719 35.3712C26.3719 35.2959 26.4011 35.2237 26.4531 35.1703C26.5051 35.117 26.5756 35.087 26.6492 35.0868H38.5567C38.6303 35.087 38.7008 35.117 38.7528 35.1703C38.8047 35.2237 38.8339 35.2959 38.8339 35.3712C38.8339 35.4465 38.8047 35.5188 38.7528 35.5721C38.7008 35.6254 38.6303 35.6555 38.5567 35.6556Z" fill="#E6E6E6"/>
<path d="M38.5567 34.0304H26.6492C26.5756 34.0302 26.5051 34.0002 26.4531 33.9469C26.4011 33.8935 26.3719 33.8213 26.3719 33.746C26.3719 33.6707 26.4011 33.5984 26.4531 33.5451C26.5051 33.4918 26.5756 33.4617 26.6492 33.4615H38.5567C38.6303 33.4617 38.7008 33.4918 38.7528 33.5451C38.8047 33.5984 38.8339 33.6707 38.8339 33.746C38.8339 33.8213 38.8047 33.8935 38.7528 33.9469C38.7008 34.0002 38.6303 34.0302 38.5567 34.0304Z" fill="#E6E6E6"/>
<path d="M38.5567 37.281H26.6492C26.5755 37.281 26.5048 37.2511 26.4527 37.1977C26.4006 37.1444 26.3713 37.072 26.3713 36.9966C26.3713 36.9212 26.4006 36.8488 26.4527 36.7955C26.5048 36.7421 26.5755 36.7122 26.6492 36.7122H38.5567C38.6304 36.7122 38.7011 36.7421 38.7532 36.7955C38.8053 36.8488 38.8345 36.9212 38.8345 36.9966C38.8345 37.072 38.8053 37.1444 38.7532 37.1977C38.7011 37.2511 38.6304 37.281 38.5567 37.281Z" fill="#E6E6E6"/>
<path d="M38.5567 38.9063H26.6492C26.5755 38.9063 26.5048 38.8763 26.4527 38.823C26.4006 38.7696 26.3713 38.6973 26.3713 38.6218C26.3713 38.5464 26.4006 38.4741 26.4527 38.4207C26.5048 38.3674 26.5755 38.3374 26.6492 38.3374H38.5567C38.6304 38.3374 38.7011 38.3674 38.7532 38.4207C38.8053 38.4741 38.8345 38.5464 38.8345 38.6218C38.8345 38.6973 38.8053 38.7696 38.7532 38.823C38.7011 38.8763 38.6304 38.9063 38.5567 38.9063Z" fill="#E6E6E6"/>
<path d="M38.5567 40.5316H26.6492C26.5755 40.5316 26.5048 40.5017 26.4527 40.4483C26.4006 40.395 26.3713 40.3226 26.3713 40.2472C26.3713 40.1718 26.4006 40.0994 26.4527 40.0461C26.5048 39.9927 26.5755 39.9628 26.6492 39.9628H38.5567C38.6304 39.9628 38.7011 39.9927 38.7532 40.0461C38.8053 40.0994 38.8345 40.1718 38.8345 40.2472C38.8345 40.3226 38.8053 40.395 38.7532 40.4483C38.7011 40.5017 38.6304 40.5316 38.5567 40.5316Z" fill="#E6E6E6"/>
<path d="M38.5567 42.1569H26.6492C26.5756 42.1567 26.5051 42.1267 26.4531 42.0733C26.4011 42.02 26.3719 41.9478 26.3719 41.8724C26.3719 41.7971 26.4011 41.7249 26.4531 41.6716C26.5051 41.6182 26.5756 41.5882 26.6492 41.588H38.5567C38.6303 41.5882 38.7008 41.6182 38.7528 41.6716C38.8047 41.7249 38.8339 41.7971 38.8339 41.8724C38.8339 41.9478 38.8047 42.02 38.7528 42.0733C38.7008 42.1267 38.6303 42.1567 38.5567 42.1569Z" fill="#E6E6E6"/>
<path d="M32.0076 38.4294H32.3028V50.0718H10.9491V49.7696H32.0076V38.4294Z" fill="#3F3D56"/>
<path d="M1.91901 51.9836H9.74266C10.2516 51.9836 10.7397 51.7766 11.0996 51.4082C11.4595 51.0398 11.6617 50.5401 11.6617 50.0191C11.6617 49.498 11.4595 48.9984 11.0996 48.63C10.7397 48.2615 10.2516 48.0546 9.74266 48.0546H1.91901C1.41006 48.0546 0.92195 48.2615 0.562066 48.63C0.202182 48.9984 0 49.498 0 50.0191C0 50.5401 0.202182 51.0398 0.562066 51.4082C0.92195 51.7766 1.41006 51.9836 1.91901 51.9836Z" fill="#FF5757"/>
<path d="M32.3608 39.3067C33.3347 39.3067 34.1242 38.4985 34.1242 37.5015C34.1242 36.5045 33.3347 35.6963 32.3608 35.6963C31.3869 35.6963 30.5974 36.5045 30.5974 37.5015C30.5974 38.4985 31.3869 39.3067 32.3608 39.3067Z" fill="#FF5757"/>
<path d="M41.4754 38.0032C44.0643 38.5665 43.4058 38.6764 45.9947 39.2397L48.2241 39.7248C48.503 39.7854 48.5794 39.3388 48.3004 39.2781C45.7114 38.7148 46.37 38.6049 43.781 38.0416L41.5516 37.5566C41.2727 37.4959 41.1964 37.9425 41.4754 38.0032Z" fill="#F2F2F2"/>
<path d="M47.4385 36.6851L50.385 40.2458C50.4924 40.3523 50.582 40.4761 50.6503 40.6123C50.7065 40.7657 50.5856 40.8295 50.4598 40.8796C50.0971 41.0003 49.7276 41.0982 49.3533 41.1727L47.1477 41.7391C46.8708 41.8102 47.0211 42.237 47.2954 42.1666L49.2163 41.6733L50.1768 41.4266C50.4489 41.3567 50.7654 41.3039 50.964 41.0803C51.3811 40.6105 50.8235 40.0779 50.5368 39.7314L49.2536 38.1808L47.8041 36.4292C47.6214 36.2084 47.2544 36.4627 47.4385 36.6851Z" fill="#F2F2F2"/>
<path d="M56.7809 52.2064C59.0457 52.2064 60.8817 50.3269 60.8817 48.0084C60.8817 45.6899 59.0457 43.8104 56.7809 43.8104C54.5161 43.8104 52.6801 45.6899 52.6801 48.0084C52.6801 50.3269 54.5161 52.2064 56.7809 52.2064Z" fill="#E6E6E6"/>
<path d="M56.3812 51.6712C58.103 51.6712 59.4988 50.2424 59.4988 48.4798C59.4988 46.7172 58.103 45.2883 56.3812 45.2883C54.6594 45.2883 53.2636 46.7172 53.2636 48.4798C53.2636 50.2424 54.6594 51.6712 56.3812 51.6712Z" fill="white"/>
<path d="M55.8218 50.6647C55.751 50.6647 55.6812 50.6478 55.6178 50.6154C55.5545 50.583 55.4994 50.5359 55.4569 50.4779L54.3382 48.9508C54.3022 48.9018 54.276 48.846 54.2611 48.7866C54.2463 48.7272 54.2429 48.6654 54.2514 48.6047C54.2598 48.544 54.2799 48.4855 54.3104 48.4328C54.3409 48.38 54.3812 48.3339 54.4291 48.2971C54.477 48.2602 54.5315 48.2334 54.5896 48.2182C54.6476 48.203 54.708 48.1996 54.7673 48.2082C54.8266 48.2168 54.8836 48.2374 54.9352 48.2686C54.9867 48.2998 55.0318 48.3411 55.0678 48.3901L55.068 48.3905L55.8 49.3895L57.6798 46.5029C57.713 46.4518 57.7557 46.4079 57.8055 46.3737C57.8553 46.3395 57.9112 46.3156 57.9699 46.3036C58.0287 46.2915 58.0893 46.2914 58.1481 46.3033C58.2069 46.3152 58.2628 46.3388 58.3127 46.3729C58.3626 46.4069 58.4055 46.4507 58.4388 46.5017C58.4722 46.5527 58.4953 46.6099 58.5071 46.6701C58.5188 46.7303 58.5188 46.7923 58.5071 46.8525C58.4954 46.9127 58.4722 46.9699 58.4389 47.021L56.2014 50.4568C56.1609 50.5189 56.1065 50.5702 56.0427 50.6064C55.9788 50.6425 55.9075 50.6625 55.8345 50.6646C55.8303 50.6646 55.8261 50.6647 55.8218 50.6647Z" fill="#E6E6E6"/>
<path d="M95.0722 52.333C95.2043 52.2535 95.3177 52.1454 95.4045 52.0162C95.4913 51.887 95.5493 51.7398 95.5746 51.5852C95.5998 51.4305 95.5916 51.2721 95.5506 51.121C95.5096 50.97 95.4367 50.8299 95.337 50.7108L98.6297 44.8207L96.6978 44.9281L93.7959 50.636C93.6115 50.8206 93.4997 51.068 93.4817 51.3313C93.4636 51.5947 93.5405 51.8557 93.6978 52.0648C93.8551 52.274 94.0819 52.4168 94.3353 52.4663C94.5886 52.5157 94.8508 52.4683 95.0722 52.333Z" fill="#FFB8B8"/>
<path d="M91.3635 31.687C91.3635 31.687 94.8509 30.5393 95.7478 33.2937C96.6446 36.0481 99.6597 43.508 99.6597 43.508L96.4204 50.2793L94.963 48.6726L96.5206 43.9671L92.0362 37.081L91.3635 31.687Z" fill="#3F3D56"/>
<path d="M96.5315 49.5878C96.4265 49.4059 96.2934 49.2428 96.1373 49.1047L95.0245 48.0084L94.9626 48.1497C94.8486 48.3336 94.7738 48.5401 94.7431 48.7556C94.7125 48.9712 94.7266 49.1909 94.7847 49.4005C94.8428 49.61 94.9435 49.8046 95.0802 49.9716C95.2169 50.1385 95.3865 50.274 95.5779 50.3691C95.7413 50.4569 95.9256 50.4959 96.1096 50.4815C96.2013 50.4734 96.2897 50.4431 96.3677 50.3932C96.4458 50.3433 96.5111 50.2752 96.5585 50.1945C96.6018 50.0986 96.622 49.9934 96.6173 49.8878C96.6126 49.7822 96.5832 49.6793 96.5315 49.5878Z" fill="#E6E6E6"/>
<path d="M56.7454 53.6561H56.4502V65.2985H66.4374V64.9962H56.7454V53.6561Z" fill="#3F3D56"/>
<path d="M77.3865 65.2457C77.386 64.7249 77.1837 64.2255 76.8239 63.8572C76.4641 63.4889 75.9763 63.2817 75.4675 63.2812H67.6439C67.1349 63.2812 66.6468 63.4882 66.2869 63.8566C65.927 64.2251 65.7249 64.7247 65.7249 65.2457C65.7249 65.7668 65.927 66.2664 66.2869 66.6349C66.6468 67.0033 67.1349 67.2102 67.6439 67.2102H75.4675C75.9763 67.2097 76.4641 67.0026 76.8239 66.6343C77.1837 66.266 77.386 65.7666 77.3865 65.2457Z" fill="#FF5757"/>
<path d="M56.3922 54.5334C57.3661 54.5334 58.1556 53.7252 58.1556 52.7282C58.1556 51.7312 57.3661 50.923 56.3922 50.923C55.4183 50.923 54.6288 51.7312 54.6288 52.7282C54.6288 53.7252 55.4183 54.5334 56.3922 54.5334Z" fill="#FF5757"/>
</g>
<defs>
<clipPath id="clip0_64_1016">
<rect width="111" height="84" fill="white"/>
</clipPath>
</defs>
</svg>
