<svg width="225" height="184" viewBox="0 0 225 184" fill="none" xmlns="http://www.w3.org/2000/svg">
<g clip-path="url(#clip0_169_2347)">
<path d="M62.6829 108.023H18.5378V149.148H62.6829V108.023Z" fill="#3F3D56"/>
<path d="M80.7206 163.447H0.5V93.7231H80.7206V163.447ZM0.974677 162.975H80.246V94.1959H0.974677V162.975Z" fill="#3F3D56"/>
<path d="M190.709 67.302C184.025 67.302 177.492 65.3284 171.935 61.6308C166.378 57.9332 162.047 52.6776 159.49 46.5287C156.932 40.3798 156.263 33.6137 157.567 27.086C158.871 20.5584 162.089 14.5623 166.815 9.85616C171.54 5.14999 177.561 1.94504 184.116 0.646609C190.671 -0.651822 197.466 0.0145826 203.64 2.56155C209.815 5.10852 215.092 9.42165 218.805 14.9555C222.518 20.4894 224.5 26.9955 224.5 33.651C224.49 42.5728 220.927 51.1262 214.592 57.4348C208.257 63.7434 199.668 67.292 190.709 67.302ZM190.709 0.498549C184.124 0.498549 177.688 2.44291 172.213 6.08575C166.739 9.72859 162.472 14.9063 159.952 20.9641C157.432 27.0219 156.773 33.6878 158.058 40.1188C159.342 46.5497 162.513 52.4569 167.169 57.0934C171.824 61.7298 177.756 64.8873 184.214 66.1665C190.672 67.4457 197.365 66.7892 203.448 64.2799C209.532 61.7707 214.731 57.5215 218.389 52.0696C222.047 46.6177 223.999 40.208 223.999 33.651C223.989 24.8615 220.479 16.4348 214.238 10.2196C207.997 4.00448 199.535 0.508448 190.709 0.498549Z" fill="#3F3D56"/>
<path d="M189.707 49.8534C198.693 49.8534 205.977 42.5994 205.977 33.6511C205.977 24.7028 198.693 17.4487 189.707 17.4487C180.722 17.4487 173.438 24.7028 173.438 33.6511C173.438 42.5994 180.722 49.8534 189.707 49.8534Z" fill="#3F3D56"/>
<path d="M216.824 82.7809L207.159 88.3376L212.739 97.9622L222.404 92.4055L216.824 82.7809Z" fill="#FF6584"/>
<path d="M69.3268 28.8419L59.6621 34.3987L65.242 44.0232L74.9067 38.4665L69.3268 28.8419Z" fill="#3F3D56"/>
<path d="M203.36 143.424L193.695 148.981L199.275 158.605L208.939 153.049L203.36 143.424Z" fill="#E5E5E5"/>
<path d="M44.6451 124.567H36.5756V132.603H44.6451V124.567Z" fill="#FF5757"/>
<path d="M189.707 37.6394C191.919 37.6394 193.712 35.8538 193.712 33.6511C193.712 31.4485 191.919 29.6628 189.707 29.6628C187.496 29.6628 185.703 31.4485 185.703 33.6511C185.703 35.8538 187.496 37.6394 189.707 37.6394Z" fill="#FF5757"/>
<path d="M176.015 87.8022L155.284 99.7219L167.253 120.367L187.985 108.448L176.015 87.8022Z" fill="#FF5757"/>
<path d="M183.801 183.391H55.2759V184H183.801V183.391Z" fill="#CBCBCB"/>
<path d="M104.051 101.187C103.678 100.71 103.416 100.158 103.281 99.5696C103.146 98.9809 103.142 98.3698 103.27 97.7796C103.398 97.1893 103.654 96.6341 104.02 96.1531C104.387 95.6721 104.855 95.277 105.391 94.9956L104.525 85.5962L110.133 83.679L111.169 96.9698C111.584 97.8986 111.642 98.9468 111.333 99.9157C111.023 100.885 110.368 101.707 109.491 102.227C108.613 102.746 107.575 102.928 106.572 102.736C105.57 102.544 104.673 101.993 104.051 101.187Z" fill="#FFB8B8"/>
<path d="M110.071 47.24C110.071 47.24 113.919 39.198 117.338 42.0269C120.757 44.8558 112.65 68.6344 112.65 68.6344L111.417 91.7181L104.919 91.0712L103.081 68.5814L110.071 47.24Z" fill="#CCCCCC"/>
<path d="M58.4554 166.218L63.2793 170.107L80.6366 153.428L73.5169 147.689L58.4554 166.218Z" fill="#FFB8B8"/>
<path d="M58.4999 163.658L68 171.316L68.0004 171.316C69.6059 172.611 70.6293 174.487 70.8456 176.533C71.0618 178.579 70.4531 180.627 69.1535 182.226L68.9942 182.422L53.4399 169.883L58.4999 163.658Z" fill="#2F2E41"/>
<path d="M125.497 177.013L131.703 177.013L134.655 153.173L125.496 153.174L125.497 177.013Z" fill="#FFB8B8"/>
<path d="M123.914 174.995L136.136 174.995H136.137C138.202 174.995 140.183 175.812 141.644 177.267C143.105 178.721 143.926 180.694 143.926 182.751V183.003L123.914 183.004L123.914 174.995Z" fill="#2F2E41"/>
<path d="M136.387 65.2522C136.387 65.2522 148.03 79.3678 145.499 93.4835C142.968 107.599 140.943 118.186 140.943 118.186L136.893 149.946C136.893 149.946 138.412 158.596 136.387 160.825C136.387 160.825 139.424 166.078 133.856 168.095C128.287 170.111 125.283 167.398 125.283 167.398C125.283 167.398 121.2 161.541 123.731 160.029L124.797 97.7L84.2451 150.45C84.2451 150.45 83.4997 156.867 78.3039 156.935L72.0956 161.541L65.0083 157.508L68.5519 152.971C68.5519 152.971 66.527 147.93 71.0831 146.921L97.4071 112.64L103.988 94.9959C103.988 94.9959 107.532 81.3843 117.15 75.8389V69.9382L136.387 65.2522Z" fill="#2F2E41"/>
<path d="M116.391 40.8019C117.924 38.998 120.069 37.8185 122.419 37.4881C124.768 37.1577 127.158 37.6996 129.132 39.0104L129.553 39.2896C134.046 44.357 137.066 50.5493 138.288 57.1993L140.184 67.5208L116.391 72.6534L110.813 53.4964C110.105 51.0648 110.275 48.4631 111.295 46.1437C112.314 43.8243 114.117 41.9341 116.391 40.8019Z" fill="#CCCCCC"/>
<path d="M155.481 103.381C154.822 103.167 154.217 102.81 153.711 102.338C153.204 101.865 152.808 101.288 152.55 100.647C152.292 100.005 152.178 99.3151 152.216 98.6251C152.255 97.9351 152.445 97.2619 152.773 96.6529L145.91 88.2878L149.997 82.8943L159.523 94.8431C160.514 95.4598 161.243 96.417 161.572 97.5334C161.902 98.6497 161.809 99.8476 161.31 100.9C160.812 101.952 159.944 102.786 158.869 103.244C157.795 103.701 156.589 103.75 155.481 103.381Z" fill="#FFB8B8"/>
<path d="M126.516 48.3639C126.516 48.3639 124.997 38.2813 130.059 38.7854C135.121 39.2895 142.715 67.0167 142.715 67.0167L156.383 89.7025L149.802 93.2314L133.603 73.0662L126.516 48.3639Z" fill="#CCCCCC"/>
<path d="M135.786 33.6235H111.679C111.183 33.6229 110.708 33.4265 110.357 33.0773C110.007 32.7281 109.81 32.2547 109.809 31.7609V21.4133C109.809 17.7359 111.276 14.2091 113.887 11.6088C116.498 9.00846 120.04 7.54761 123.733 7.54761C127.425 7.54761 130.967 9.00846 133.578 11.6088C136.189 14.2091 137.656 17.7359 137.656 21.4133V31.7609C137.656 32.2547 137.458 32.7281 137.108 33.0773C136.757 33.4265 136.282 33.6229 135.786 33.6235Z" fill="#2F2E41"/>
<path d="M135.551 28.093C138.255 23.1665 136.437 16.9898 131.49 14.2967C126.543 11.6037 120.341 13.4142 117.636 18.3407C114.932 23.2671 116.75 29.4439 121.697 32.1369C126.644 34.8299 132.847 33.0194 135.551 28.093Z" fill="#FFB8B8"/>
<path d="M140.95 22.4481H128.103L127.971 20.3406L127.313 22.4481H125.335L125.074 18.271L123.768 22.4481H119.94V22.2411C119.94 16.193 124.247 11.2727 129.54 11.2727H131.351C136.644 11.2727 140.95 16.193 140.95 22.2411L140.95 22.4481Z" fill="#2F2E41"/>
<path d="M128.635 35.5551C128.478 35.555 128.321 35.543 128.166 35.5191L112.875 33.1737V17.313C112.875 16.5107 113.033 15.7163 113.342 14.9751C113.65 14.2339 114.102 13.5605 114.671 12.9932C115.241 12.4259 115.917 11.9759 116.662 11.6689C117.406 11.3619 118.204 11.2039 119.009 11.2039H129.707L129.291 11.6263C123.492 17.5049 127.861 27.0371 130.981 32.1959C131.21 32.5667 131.313 33.001 131.276 33.4347C131.238 33.8684 131.062 34.2788 130.773 34.6054C130.508 34.9091 130.179 35.1515 129.809 35.3156C129.44 35.4796 129.039 35.5614 128.635 35.5551Z" fill="#2F2E41"/>
</g>
<defs>
<clipPath id="clip0_169_2347">
<rect width="224" height="184" fill="white" transform="translate(0.5)"/>
</clipPath>
</defs>
</svg>
