<svg width="321" height="152" viewBox="0 0 321 152" fill="none" xmlns="http://www.w3.org/2000/svg">
<rect width="321" height="152" rx="5" fill="#040505"/>
<path d="M77.9239 48.7841V44.7273H97.0375V48.7841H89.9125V68H85.0489V48.7841H77.9239ZM104.615 57.9091V68H99.7743V44.7273H104.479V53.625H104.683C105.077 52.5947 105.714 51.7879 106.592 51.2045C107.471 50.6136 108.574 50.3182 109.899 50.3182C111.111 50.3182 112.168 50.5833 113.07 51.1136C113.979 51.6364 114.683 52.3902 115.183 53.375C115.691 54.3523 115.941 55.5227 115.933 56.8864V68H111.092V57.75C111.1 56.6742 110.827 55.8371 110.274 55.2386C109.729 54.6402 108.964 54.3409 107.979 54.3409C107.32 54.3409 106.736 54.4811 106.229 54.7614C105.729 55.0417 105.335 55.4508 105.047 55.9886C104.767 56.5189 104.623 57.1591 104.615 57.9091ZM127.378 68.3409C125.582 68.3409 124.037 67.9773 122.741 67.25C121.453 66.5152 120.461 65.4773 119.764 64.1364C119.067 62.7879 118.719 61.1932 118.719 59.3523C118.719 57.5568 119.067 55.9811 119.764 54.625C120.461 53.2689 121.442 52.2121 122.707 51.4545C123.98 50.697 125.472 50.3182 127.184 50.3182C128.336 50.3182 129.408 50.5038 130.4 50.875C131.4 51.2386 132.272 51.7879 133.014 52.5227C133.764 53.2576 134.347 54.1818 134.764 55.2955C135.181 56.4015 135.389 57.697 135.389 59.1818V60.5114H120.65V57.5114H130.832C130.832 56.8144 130.681 56.197 130.378 55.6591C130.075 55.1212 129.654 54.7008 129.116 54.3977C128.586 54.0871 127.969 53.9318 127.264 53.9318C126.529 53.9318 125.878 54.1023 125.309 54.4432C124.749 54.7765 124.309 55.2273 123.991 55.7955C123.673 56.3561 123.51 56.9811 123.503 57.6705V60.5227C123.503 61.3864 123.662 62.1326 123.98 62.7614C124.306 63.3902 124.764 63.875 125.355 64.2159C125.946 64.5568 126.647 64.7273 127.457 64.7273C127.995 64.7273 128.487 64.6515 128.934 64.5C129.381 64.3485 129.764 64.1212 130.082 63.8182C130.4 63.5152 130.643 63.1439 130.809 62.7045L135.287 63C135.059 64.0758 134.594 65.0152 133.889 65.8182C133.192 66.6136 132.29 67.2348 131.184 67.6818C130.086 68.1212 128.817 68.3409 127.378 68.3409ZM145.405 68V44.7273H154.723C156.436 44.7273 157.864 44.9811 159.007 45.4886C160.151 45.9962 161.011 46.7008 161.587 47.6023C162.163 48.4962 162.451 49.5265 162.451 50.6932C162.451 51.6023 162.269 52.4015 161.905 53.0909C161.542 53.7727 161.042 54.3333 160.405 54.7727C159.776 55.2045 159.057 55.5114 158.246 55.6932V55.9205C159.133 55.9583 159.962 56.2083 160.735 56.6705C161.515 57.1326 162.148 57.7803 162.632 58.6136C163.117 59.4394 163.36 60.4242 163.36 61.5682C163.36 62.803 163.053 63.9053 162.439 64.875C161.833 65.8371 160.936 66.5985 159.746 67.1591C158.557 67.7197 157.091 68 155.348 68H145.405ZM150.326 63.9773H154.337C155.708 63.9773 156.708 63.7159 157.337 63.1932C157.966 62.6629 158.28 61.9583 158.28 61.0795C158.28 60.4356 158.125 59.8674 157.814 59.375C157.504 58.8826 157.061 58.4962 156.485 58.2159C155.917 57.9356 155.239 57.7955 154.451 57.7955H150.326V63.9773ZM150.326 54.4659H153.973C154.648 54.4659 155.246 54.3485 155.769 54.1136C156.299 53.8712 156.716 53.5303 157.019 53.0909C157.329 52.6515 157.485 52.125 157.485 51.5114C157.485 50.6705 157.186 49.9924 156.587 49.4773C155.996 48.9621 155.155 48.7045 154.064 48.7045H150.326V54.4659ZM174.037 68.3409C172.272 68.3409 170.745 67.9659 169.457 67.2159C168.177 66.4583 167.188 65.4053 166.491 64.0568C165.795 62.7008 165.446 61.1288 165.446 59.3409C165.446 57.5379 165.795 55.9621 166.491 54.6136C167.188 53.2576 168.177 52.2045 169.457 51.4545C170.745 50.697 172.272 50.3182 174.037 50.3182C175.802 50.3182 177.325 50.697 178.605 51.4545C179.893 52.2045 180.885 53.2576 181.582 54.6136C182.279 55.9621 182.628 57.5379 182.628 59.3409C182.628 61.1288 182.279 62.7008 181.582 64.0568C180.885 65.4053 179.893 66.4583 178.605 67.2159C177.325 67.9659 175.802 68.3409 174.037 68.3409ZM174.06 64.5909C174.863 64.5909 175.533 64.3636 176.071 63.9091C176.609 63.447 177.014 62.8182 177.287 62.0227C177.567 61.2273 177.707 60.322 177.707 59.3068C177.707 58.2917 177.567 57.3864 177.287 56.5909C177.014 55.7955 176.609 55.1667 176.071 54.7045C175.533 54.2424 174.863 54.0114 174.06 54.0114C173.249 54.0114 172.567 54.2424 172.014 54.7045C171.469 55.1667 171.056 55.7955 170.776 56.5909C170.503 57.3864 170.366 58.2917 170.366 59.3068C170.366 60.322 170.503 61.2273 170.776 62.0227C171.056 62.8182 171.469 63.447 172.014 63.9091C172.567 64.3636 173.249 64.5909 174.06 64.5909ZM185.456 68V50.5455H190.149V53.5909H190.331C190.649 52.5076 191.183 51.6894 191.933 51.1364C192.683 50.5758 193.546 50.2955 194.524 50.2955C194.766 50.2955 195.028 50.3106 195.308 50.3409C195.588 50.3712 195.834 50.4129 196.046 50.4659V54.7614C195.819 54.6932 195.505 54.6326 195.103 54.5795C194.702 54.5265 194.334 54.5 194.001 54.5C193.289 54.5 192.653 54.6553 192.092 54.9659C191.539 55.2689 191.1 55.6932 190.774 56.2386C190.456 56.7841 190.296 57.4129 190.296 58.125V68H185.456ZM198.229 68V50.5455H203.07V68H198.229ZM200.661 48.2955C199.941 48.2955 199.324 48.0568 198.809 47.5795C198.301 47.0947 198.048 46.5152 198.048 45.8409C198.048 45.1742 198.301 44.6023 198.809 44.125C199.324 43.6402 199.941 43.3977 200.661 43.3977C201.381 43.3977 201.994 43.6402 202.502 44.125C203.017 44.6023 203.275 45.1742 203.275 45.8409C203.275 46.5152 203.017 47.0947 202.502 47.5795C201.994 48.0568 201.381 48.2955 200.661 48.2955ZM211.469 57.9091V68H206.628V50.5455H211.242V53.625H211.446C211.833 52.6098 212.48 51.8068 213.389 51.2159C214.299 50.6174 215.401 50.3182 216.696 50.3182C217.908 50.3182 218.965 50.5833 219.867 51.1136C220.768 51.6439 221.469 52.4015 221.969 53.3864C222.469 54.3636 222.719 55.5303 222.719 56.8864V68H217.878V57.75C217.886 56.6818 217.613 55.8485 217.06 55.25C216.507 54.6439 215.746 54.3409 214.776 54.3409C214.124 54.3409 213.549 54.4811 213.049 54.7614C212.556 55.0417 212.17 55.4508 211.889 55.9886C211.617 56.5189 211.477 57.1591 211.469 57.9091ZM234.078 74.9091C232.51 74.9091 231.165 74.6932 230.044 74.2614C228.93 73.8371 228.044 73.2576 227.385 72.5227C226.726 71.7879 226.298 70.9621 226.101 70.0455L230.578 69.4432C230.714 69.7917 230.93 70.1174 231.226 70.4205C231.521 70.7235 231.911 70.9659 232.396 71.1477C232.889 71.3371 233.487 71.4318 234.192 71.4318C235.245 71.4318 236.112 71.1742 236.794 70.6591C237.483 70.1515 237.828 69.2992 237.828 68.1023V64.9091H237.623C237.411 65.3939 237.093 65.8523 236.669 66.2841C236.245 66.7159 235.699 67.0682 235.033 67.3409C234.366 67.6136 233.57 67.75 232.646 67.75C231.336 67.75 230.142 67.447 229.067 66.8409C227.998 66.2273 227.146 65.2917 226.51 64.0341C225.881 62.7689 225.567 61.1705 225.567 59.2386C225.567 57.2614 225.889 55.6098 226.533 54.2841C227.176 52.9583 228.033 51.9659 229.101 51.3068C230.176 50.6477 231.354 50.3182 232.635 50.3182C233.612 50.3182 234.43 50.4848 235.089 50.8182C235.748 51.1439 236.279 51.553 236.68 52.0455C237.089 52.5303 237.404 53.0076 237.623 53.4773H237.805V50.5455H242.612V68.1705C242.612 69.6553 242.248 70.8977 241.521 71.8977C240.794 72.8977 239.786 73.6477 238.498 74.1477C237.218 74.6553 235.745 74.9091 234.078 74.9091ZM234.18 64.1136C234.961 64.1136 235.62 63.9205 236.158 63.5341C236.703 63.1402 237.12 62.5795 237.408 61.8523C237.703 61.1174 237.851 60.2386 237.851 59.2159C237.851 58.1932 237.707 57.3068 237.419 56.5568C237.131 55.7992 236.714 55.2121 236.169 54.7955C235.623 54.3788 234.961 54.1705 234.18 54.1705C233.385 54.1705 232.714 54.3864 232.169 54.8182C231.623 55.2424 231.211 55.8333 230.93 56.5909C230.65 57.3485 230.51 58.2235 230.51 59.2159C230.51 60.2235 230.65 61.0947 230.93 61.8295C231.218 62.5568 231.631 63.1212 232.169 63.5227C232.714 63.9167 233.385 64.1136 234.18 64.1136Z" fill="#FDFDFD"/>
<path d="M88.6626 107L82.0035 83.7273H87.3785L91.2308 99.8977H91.424L95.674 83.7273H100.276L104.515 99.9318H104.719L108.572 83.7273H113.947L107.288 107H102.492L98.0603 91.7841H97.8785L93.4581 107H88.6626ZM122.181 107.341C120.416 107.341 118.889 106.966 117.601 106.216C116.321 105.458 115.332 104.405 114.635 103.057C113.938 101.701 113.59 100.129 113.59 98.3409C113.59 96.5379 113.938 94.9621 114.635 93.6136C115.332 92.2576 116.321 91.2045 117.601 90.4545C118.889 89.697 120.416 89.3182 122.181 89.3182C123.946 89.3182 125.469 89.697 126.749 90.4545C128.037 91.2045 129.029 92.2576 129.726 93.6136C130.423 94.9621 130.772 96.5379 130.772 98.3409C130.772 100.129 130.423 101.701 129.726 103.057C129.029 104.405 128.037 105.458 126.749 106.216C125.469 106.966 123.946 107.341 122.181 107.341ZM122.203 103.591C123.006 103.591 123.677 103.364 124.215 102.909C124.753 102.447 125.158 101.818 125.431 101.023C125.711 100.227 125.851 99.322 125.851 98.3068C125.851 97.2917 125.711 96.3864 125.431 95.5909C125.158 94.7955 124.753 94.1667 124.215 93.7045C123.677 93.2424 123.006 93.0114 122.203 93.0114C121.393 93.0114 120.711 93.2424 120.158 93.7045C119.613 94.1667 119.2 94.7955 118.919 95.5909C118.647 96.3864 118.51 97.2917 118.51 98.3068C118.51 99.322 118.647 100.227 118.919 101.023C119.2 101.818 119.613 102.447 120.158 102.909C120.711 103.364 121.393 103.591 122.203 103.591ZM133.599 107V89.5455H138.293V92.5909H138.474C138.793 91.5076 139.327 90.6894 140.077 90.1364C140.827 89.5758 141.69 89.2955 142.668 89.2955C142.91 89.2955 143.171 89.3106 143.452 89.3409C143.732 89.3712 143.978 89.4129 144.19 89.4659V93.7614C143.963 93.6932 143.649 93.6326 143.247 93.5795C142.846 93.5265 142.478 93.5 142.145 93.5C141.433 93.5 140.796 93.6553 140.236 93.9659C139.683 94.2689 139.243 94.6932 138.918 95.2386C138.599 95.7841 138.44 96.4129 138.44 97.125V107H133.599ZM150.759 101.977L150.771 96.1705H151.475L157.066 89.5455H162.623L155.112 98.3182H153.964L150.759 101.977ZM146.373 107V83.7273H151.214V107H146.373ZM157.282 107L152.146 99.3977L155.373 95.9773L162.953 107H157.282ZM179.201 94.5227L174.769 94.7955C174.693 94.4167 174.53 94.0758 174.28 93.7727C174.03 93.4621 173.701 93.2159 173.292 93.0341C172.89 92.8447 172.409 92.75 171.849 92.75C171.099 92.75 170.466 92.9091 169.951 93.2273C169.436 93.5379 169.178 93.9545 169.178 94.4773C169.178 94.8939 169.345 95.2462 169.678 95.5341C170.011 95.822 170.583 96.053 171.394 96.2273L174.553 96.8636C176.25 97.2121 177.515 97.7727 178.349 98.5455C179.182 99.3182 179.599 100.333 179.599 101.591C179.599 102.735 179.261 103.739 178.587 104.602C177.92 105.466 177.004 106.14 175.837 106.625C174.678 107.102 173.341 107.341 171.826 107.341C169.515 107.341 167.674 106.86 166.303 105.898C164.939 104.928 164.14 103.61 163.905 101.943L168.667 101.693C168.811 102.398 169.159 102.936 169.712 103.307C170.265 103.67 170.974 103.852 171.837 103.852C172.686 103.852 173.367 103.689 173.883 103.364C174.405 103.03 174.67 102.602 174.678 102.08C174.67 101.64 174.485 101.28 174.121 101C173.758 100.712 173.197 100.492 172.439 100.341L169.417 99.7386C167.712 99.3977 166.443 98.8068 165.61 97.9659C164.784 97.125 164.371 96.053 164.371 94.75C164.371 93.6288 164.674 92.6629 165.28 91.8523C165.894 91.0417 166.754 90.4167 167.86 89.9773C168.974 89.5379 170.277 89.3182 171.769 89.3182C173.974 89.3182 175.708 89.7841 176.974 90.7159C178.246 91.6477 178.989 92.9167 179.201 94.5227ZM187.168 96.9091V107H182.327V83.7273H187.031V92.625H187.236C187.63 91.5947 188.266 90.7879 189.145 90.2045C190.024 89.6136 191.126 89.3182 192.452 89.3182C193.664 89.3182 194.721 89.5833 195.622 90.1136C196.531 90.6364 197.236 91.3902 197.736 92.375C198.243 93.3523 198.493 94.5227 198.486 95.8864V107H193.645V96.75C193.653 95.6742 193.38 94.8371 192.827 94.2386C192.281 93.6402 191.516 93.3409 190.531 93.3409C189.872 93.3409 189.289 93.4811 188.781 93.7614C188.281 94.0417 187.887 94.4508 187.6 94.9886C187.319 95.5189 187.175 96.1591 187.168 96.9091ZM209.862 107.341C208.097 107.341 206.57 106.966 205.282 106.216C204.002 105.458 203.013 104.405 202.316 103.057C201.62 101.701 201.271 100.129 201.271 98.3409C201.271 96.5379 201.62 94.9621 202.316 93.6136C203.013 92.2576 204.002 91.2045 205.282 90.4545C206.57 89.697 208.097 89.3182 209.862 89.3182C211.627 89.3182 213.15 89.697 214.43 90.4545C215.718 91.2045 216.71 92.2576 217.407 93.6136C218.104 94.9621 218.453 96.5379 218.453 98.3409C218.453 100.129 218.104 101.701 217.407 103.057C216.71 104.405 215.718 105.458 214.43 106.216C213.15 106.966 211.627 107.341 209.862 107.341ZM209.885 103.591C210.688 103.591 211.358 103.364 211.896 102.909C212.434 102.447 212.839 101.818 213.112 101.023C213.392 100.227 213.532 99.322 213.532 98.3068C213.532 97.2917 213.392 96.3864 213.112 95.5909C212.839 94.7955 212.434 94.1667 211.896 93.7045C211.358 93.2424 210.688 93.0114 209.885 93.0114C209.074 93.0114 208.392 93.2424 207.839 93.7045C207.294 94.1667 206.881 94.7955 206.601 95.5909C206.328 96.3864 206.191 97.2917 206.191 98.3068C206.191 99.322 206.328 100.227 206.601 101.023C206.881 101.818 207.294 102.447 207.839 102.909C208.392 103.364 209.074 103.591 209.885 103.591ZM221.281 113.545V89.5455H226.053V92.4773H226.269C226.481 92.0076 226.788 91.5303 227.19 91.0455C227.599 90.553 228.129 90.1439 228.781 89.8182C229.44 89.4848 230.258 89.3182 231.235 89.3182C232.508 89.3182 233.682 89.6515 234.758 90.3182C235.834 90.9773 236.693 91.9735 237.337 93.3068C237.981 94.6326 238.303 96.2955 238.303 98.2955C238.303 100.242 237.989 101.886 237.36 103.227C236.739 104.561 235.89 105.572 234.815 106.261C233.746 106.943 232.55 107.284 231.224 107.284C230.284 107.284 229.485 107.129 228.826 106.818C228.175 106.508 227.64 106.117 227.224 105.648C226.807 105.17 226.489 104.689 226.269 104.205H226.121V113.545H221.281ZM226.019 98.2727C226.019 99.3106 226.163 100.216 226.451 100.989C226.739 101.761 227.156 102.364 227.701 102.795C228.246 103.22 228.909 103.432 229.69 103.432C230.478 103.432 231.144 103.216 231.69 102.784C232.235 102.345 232.648 101.739 232.928 100.966C233.216 100.186 233.36 99.2879 233.36 98.2727C233.36 97.2652 233.22 96.3788 232.94 95.6136C232.659 94.8485 232.246 94.25 231.701 93.8182C231.156 93.3864 230.485 93.1705 229.69 93.1705C228.902 93.1705 228.235 93.3788 227.69 93.7955C227.152 94.2121 226.739 94.803 226.451 95.5682C226.163 96.3333 226.019 97.2348 226.019 98.2727Z" fill="#FF5757"/>
</svg>
