<svg width="133" height="38" viewBox="0 0 133 38" fill="none" xmlns="http://www.w3.org/2000/svg">
<g clip-path="url(#clip0_34_2260)">
<path d="M129.399 34.0386H124.51C124.4 34.0384 124.291 34.0595 124.191 34.1005C124.091 34.1415 124.002 34.2013 123.931 34.2759C123.751 34.2465 123.565 34.2555 123.39 34.302C123.214 34.3485 123.053 34.4312 122.921 34.5434C122.788 34.6556 122.687 34.794 122.627 34.9473C122.567 35.1006 122.548 35.2644 122.573 35.4253C122.598 35.5862 122.665 35.7395 122.77 35.8728C122.875 36.006 123.014 36.1153 123.176 36.1918C123.337 36.2682 123.517 36.3096 123.701 36.3126C123.884 36.3155 124.065 36.2799 124.23 36.2086L124.635 37.3756C124.684 37.5139 124.78 37.6349 124.912 37.7209C125.043 37.8069 125.202 37.8533 125.366 37.8532H128.544C128.707 37.8532 128.866 37.8069 128.997 37.7209C129.129 37.6349 129.226 37.5139 129.274 37.3756L130.129 34.9141C130.164 34.813 130.172 34.7059 130.152 34.6015C130.131 34.4971 130.084 34.3984 130.013 34.3132C129.942 34.2281 129.849 34.1588 129.743 34.1111C129.636 34.0634 129.518 34.0386 129.399 34.0386ZM123.725 36.0193C123.505 36.0193 123.295 35.942 123.139 35.8044C122.984 35.6668 122.897 35.4802 122.897 35.2857C122.897 35.0911 122.984 34.9045 123.139 34.767C123.295 34.6294 123.505 34.5521 123.725 34.5521C123.74 34.5521 123.754 34.5553 123.769 34.556C123.736 34.6741 123.74 34.7979 123.781 34.9141L124.13 35.9213C124.007 35.9847 123.867 36.0185 123.725 36.0193Z" fill="#F0F0F0"/>
<path d="M10.3114 30.9575H5.42329C5.31302 30.9573 5.20403 30.9784 5.10394 31.0194C5.00385 31.0604 4.91508 31.1203 4.84383 31.1948C4.66354 31.1655 4.47796 31.1744 4.30232 31.2209C4.12669 31.2674 3.966 31.3502 3.83346 31.4623C3.70092 31.5745 3.60031 31.7129 3.53987 31.8662C3.47943 32.0195 3.4609 32.1834 3.4858 32.3442C3.51069 32.5051 3.5783 32.6585 3.68308 32.7917C3.78786 32.925 3.92681 33.0343 4.08854 33.1107C4.25027 33.1872 4.43015 33.2286 4.61344 33.2315C4.79672 33.2344 4.97818 33.1988 5.1429 33.1276L5.71395 37.3757C5.76198 37.514 5.8588 37.635 5.9902 37.7209C6.1216 37.8069 6.28065 37.8533 6.444 37.8533H9.62208C9.78542 37.8533 9.94446 37.8069 10.0758 37.7209C10.2072 37.635 10.304 37.5139 10.352 37.3757L11.0415 31.8331C11.0766 31.7319 11.0845 31.6248 11.0644 31.5204C11.0443 31.4161 10.9968 31.3173 10.9258 31.2322C10.8548 31.147 10.7622 31.0778 10.6555 31.0301C10.5488 30.9824 10.431 30.9575 10.3114 30.9575ZM4.63761 32.9382C4.41797 32.9382 4.20733 32.8609 4.05202 32.7234C3.89671 32.5858 3.80946 32.3992 3.80946 32.2046C3.80946 32.0101 3.89671 31.8235 4.05202 31.6859C4.20733 31.5483 4.41797 31.471 4.63761 31.471C4.65273 31.471 4.6668 31.4743 4.68176 31.475C4.64883 31.5931 4.65282 31.7169 4.69333 31.8331L5.04311 32.8403C4.91988 32.9037 4.7801 32.9374 4.63761 32.9382Z" fill="#F0F0F0"/>
<path d="M68.0592 27.4362C68.0592 27.2041 67.9815 26.9771 67.8359 26.7841C67.6903 26.5911 67.4834 26.4406 67.2413 26.3518C66.9991 26.263 66.7327 26.2397 66.4757 26.285C66.2187 26.3303 65.9826 26.4421 65.7972 26.6062C65.6119 26.7704 65.4857 26.9795 65.4346 27.2072C65.3835 27.4349 65.4097 27.6709 65.51 27.8854C65.6103 28.0998 65.7801 28.2832 65.998 28.4121C66.2159 28.5411 66.4721 28.6099 66.7342 28.6099C66.7507 28.6099 66.7667 28.6083 66.783 28.6078C67.1107 29.5512 67.2858 30.531 67.303 31.5179C67.3156 32.0099 67.2838 32.502 67.208 32.9896C67.1504 33.3355 67.0427 33.7324 66.655 33.894C66.3659 34.0145 66.6178 34.3941 66.9058 34.2741C67.3431 34.0918 67.5558 33.6833 67.6511 33.2841C67.7599 32.7693 67.81 32.2462 67.8007 31.7226C67.8059 30.6341 67.6264 29.5511 67.2683 28.5099C67.5035 28.4182 67.7035 28.2678 67.8439 28.0772C67.9843 27.8865 68.0592 27.6638 68.0592 27.4362Z" fill="#E6E6E6"/>
<path d="M67.6544 34.5092C67.6544 34.5092 65.8777 30.6352 71.2077 27.7297L67.6544 34.5092Z" fill="#E6E6E6"/>
<path d="M67.5591 34.4386C67.5591 34.4386 67.0172 31.6774 62.8224 31.7011L67.5591 34.4386Z" fill="#E6E6E6"/>
<path d="M70.5314 37.8297H63.247C63.1073 37.8297 62.9704 37.7949 62.8519 37.7292C62.7334 37.6636 62.6382 37.5697 62.5771 37.4584L60.9911 34.5706C60.9358 34.4699 60.9103 34.3585 60.9171 34.2468C60.9238 34.135 60.9624 34.0267 61.0294 33.9318C61.0964 33.8369 61.1895 33.7587 61.3 33.7045C61.4105 33.6503 61.5348 33.6218 61.6611 33.6218H72.1174C72.2437 33.6218 72.3679 33.6503 72.4784 33.7045C72.5889 33.7587 72.682 33.8369 72.749 33.9318C72.816 34.0267 72.8547 34.135 72.8614 34.2468C72.8681 34.3585 72.8426 34.4699 72.7874 34.5705L71.2014 37.4584C71.1403 37.5697 71.045 37.6635 70.9266 37.7292C70.8081 37.7949 70.6712 37.8297 70.5314 37.8297Z" fill="#F0F0F0"/>
<path d="M132.834 38H0.165629C0.121701 38 0.0795729 37.9845 0.0485115 37.957C0.01745 37.9295 0 37.8922 0 37.8533C0 37.8143 0.01745 37.777 0.0485115 37.7495C0.0795729 37.722 0.121701 37.7065 0.165629 37.7065H132.834C132.878 37.7065 132.92 37.722 132.951 37.7495C132.983 37.777 133 37.8143 133 37.8533C133 37.8922 132.983 37.9295 132.951 37.957C132.92 37.9845 132.878 38 132.834 38Z" fill="#3F3D56"/>
<path d="M27.6724 29.4797L24.4534 18.6981L24.0808 17.4535L24.4303 17.1661L30.4297 14.5332L39.0026 14.7223L44.0356 17.0111L44.0627 18.6981L44.3112 33.8968L45.3152 37.6274H26.9013L28.331 31.6859L27.6724 29.4797Z" fill="#FF5757"/>
<path d="M48.8487 37.6273H44.0499L42.725 29.1529L43.0717 18.6981L43.1196 17.2757L44.0356 17.011C44.726 17.4577 45.2968 18.0337 45.7072 18.6981C46.296 19.6058 46.785 20.9066 46.6634 22.6556C46.6634 22.6556 46.7721 24.7209 46.6686 26.0962C46.5974 27.036 47.8356 32.9764 48.8487 37.6273Z" fill="#FF5757"/>
<path d="M27.6893 29.3719L27.6724 29.4797L26.3993 37.6274H20.8811C21.3235 33.0108 21.8437 27.239 21.7738 26.3141C21.6703 24.9399 21.779 22.8734 21.779 22.8734C21.647 20.9789 22.2331 19.6128 22.8839 18.6982C23.2113 18.2332 23.6146 17.8138 24.0807 17.4535C24.1841 17.3731 24.293 17.2985 24.4068 17.23L25.3228 17.4936L25.5622 18.6982L27.6893 29.3719Z" fill="#FF5757"/>
<path d="M28.3253 7.44827C28.3253 8.48943 28.6739 9.5072 29.3268 10.3729C29.9798 11.2386 30.908 11.9133 31.9938 12.3117C33.0797 12.7102 34.2746 12.8144 35.4274 12.6113C36.5801 12.4082 37.639 11.9068 38.4701 11.1706C39.3012 10.4344 39.8672 9.49642 40.0965 8.47527C40.3258 7.45412 40.2081 6.39566 39.7583 5.43376C39.3085 4.47186 38.5469 3.64971 37.5696 3.07127C36.5923 2.49284 35.4434 2.1841 34.268 2.1841C32.6958 2.18062 31.1865 2.73052 30.072 3.71282C28.9576 4.69513 28.3293 6.02937 28.3253 7.42204C28.3253 7.43078 28.3253 7.43953 28.3253 7.44827Z" fill="#FFB7B7"/>
<path d="M53.2497 36.7878C53.2497 37.0882 53.1149 37.3764 52.8751 37.5889C52.6352 37.8013 52.3099 37.9207 51.9707 37.9207H17.759C17.4198 37.9207 17.0945 37.8013 16.8547 37.5889C16.6148 37.3764 16.4801 37.0882 16.4801 36.7878C16.4801 36.4873 16.6148 36.1991 16.8547 35.9866C17.0945 35.7742 17.4198 35.6548 17.759 35.6548H18.1388C18.117 35.5873 18.1057 35.5175 18.1051 35.4474V19.9754C18.1051 19.7144 18.2222 19.4642 18.4305 19.2796C18.6388 19.0951 18.9213 18.9915 19.2159 18.9915H50.5139C50.8085 18.9915 51.091 19.0951 51.2993 19.2796C51.5076 19.4642 51.6246 19.7144 51.6246 19.9754V35.4474C51.6247 35.5176 51.6134 35.5875 51.591 35.6548H51.9707C52.1387 35.6548 52.305 35.6841 52.4602 35.7411C52.6153 35.798 52.7563 35.8814 52.8751 35.9866C52.9939 36.0919 53.0881 36.2167 53.1523 36.3542C53.2166 36.4917 53.2497 36.639 53.2497 36.7878Z" fill="#3F3D56"/>
<path d="M35.5275 27.8282C35.1365 27.8282 34.7542 27.7255 34.4291 27.5331C34.104 27.3407 33.8506 27.0671 33.701 26.7471C33.5513 26.4271 33.5122 26.075 33.5885 25.7353C33.6647 25.3956 33.853 25.0836 34.1295 24.8386C34.406 24.5937 34.7583 24.4269 35.1418 24.3593C35.5253 24.2918 35.9228 24.3264 36.284 24.459C36.6453 24.5915 36.954 24.816 37.1713 25.104C37.3885 25.392 37.5045 25.7306 37.5045 26.0769C37.5039 26.5412 37.2954 26.9864 36.9248 27.3147C36.5541 27.643 36.0516 27.8277 35.5275 27.8282ZM35.5275 24.6191C35.202 24.6191 34.8838 24.7046 34.6132 24.8648C34.3425 25.025 34.1316 25.2527 34.007 25.5191C33.8824 25.7855 33.8499 26.0786 33.9134 26.3614C33.9769 26.6442 34.1336 26.9039 34.3638 27.1078C34.5939 27.3117 34.8872 27.4505 35.2064 27.5068C35.5257 27.563 35.8566 27.5341 36.1573 27.4238C36.458 27.3135 36.715 27.1266 36.8959 26.8869C37.0767 26.6471 37.1732 26.3652 37.1732 26.0769C37.1727 25.6904 36.9992 25.3199 36.6906 25.0466C36.3821 24.7733 35.9638 24.6196 35.5275 24.6191Z" fill="white"/>
<path d="M34.8649 27.0946C35.8653 27.0946 36.6763 26.3762 36.6763 25.4901C36.6763 24.6039 35.8653 23.8855 34.8649 23.8855C33.8645 23.8855 33.0536 24.6039 33.0536 25.4901C33.0536 26.3762 33.8645 27.0946 34.8649 27.0946Z" fill="white"/>
<path d="M90.4334 11.9841V8.87646C90.4334 7.00868 91.271 5.2174 92.7619 3.89668C94.2529 2.57596 96.275 1.83398 98.3836 1.83398C100.492 1.83398 102.514 2.57596 104.005 3.89668C105.496 5.2174 106.334 7.00868 106.334 8.87646V11.9841C106.333 12.405 106.144 12.8084 105.808 13.106C105.472 13.4036 105.017 13.571 104.542 13.5714H93.7957L92.9178 11.9189V13.5714H92.2253C91.7502 13.571 91.2947 13.4036 90.9588 13.106C90.6229 12.8084 90.4339 12.405 90.4334 11.9841Z" fill="#2F2E41"/>
<path d="M104.182 21.931L104.524 25.2179L104.68 26.7113L104.928 29.0892L104.959 29.3959L105.161 31.3271L105.166 31.3482C105.294 31.7095 105.549 32.0248 105.895 32.2472C106.241 32.4696 106.658 32.5873 107.086 32.5828L116.308 32.4416L118.911 32.4016C118.961 32.4683 119.01 32.5283 119.059 32.5816C119.287 32.8275 119.572 33.0281 119.894 33.1703C120.215 33.3126 120.567 33.3933 120.927 33.4072C121.288 33.4219 121.648 33.3682 121.984 33.2496C122.32 33.1309 122.623 32.9502 122.873 32.7194C122.924 32.6739 122.973 32.6261 123.018 32.5761C123.359 32.2044 123.558 31.7468 123.588 31.2687C123.618 30.7905 123.476 30.3163 123.183 29.9137C122.988 29.6442 122.73 29.4147 122.427 29.2407C122.124 29.0667 121.782 28.9521 121.425 28.9048C121.069 28.8565 120.707 28.875 120.36 28.959C120.013 29.0431 119.691 29.1908 119.413 29.3926C119.324 29.4569 119.242 29.5272 119.165 29.6026L116.308 29.2337L109.111 28.3058L108.804 24.6278C108.803 24.6112 108.802 24.5945 108.8 24.5767L108.552 21.6088C108.511 21.1149 108.258 20.6537 107.845 20.3193C107.433 19.985 106.892 19.8027 106.333 19.8098C106.149 19.8114 105.966 19.8342 105.789 19.8776C105.59 19.9252 105.4 19.9978 105.224 20.0931C104.873 20.282 104.589 20.5545 104.405 20.8795C104.221 21.2045 104.143 21.5689 104.182 21.931Z" fill="#9E616A"/>
<path d="M98.7053 13.7418C101.584 13.7418 103.918 11.6745 103.918 9.12431C103.918 6.57415 101.584 4.50684 98.7053 4.50684C95.8264 4.50684 93.4926 6.57415 93.4926 9.12431C93.4926 11.6745 95.8264 13.7418 98.7053 13.7418Z" fill="#9E616A"/>
<path d="M105.655 16.8201L106.603 16.5403C106.603 16.5403 108.499 17.2399 108.499 18.4992C108.499 19.7585 108.815 24.7958 108.815 24.7958L104.55 25.2155L105.655 16.8201Z" fill="#FF5757"/>
<path d="M85.4924 37.7741H89.2506L90.5364 28.2302L91.0018 24.7833L91.0657 24.3077L91.4094 21.7565C91.4279 21.4361 91.3472 21.1174 91.1761 20.8347C91.0049 20.552 90.7498 20.3162 90.4383 20.1526C90.1269 19.989 89.7708 19.9039 89.4087 19.9066C89.0466 19.9092 88.6922 19.9994 88.3838 20.1675C88.3062 20.2099 88.232 20.257 88.1618 20.3086C87.9461 20.4657 87.7704 20.6615 87.6463 20.8831C87.5222 21.1047 87.4524 21.3471 87.4417 21.5943L87.1031 24.4L85.4924 37.7741Z" fill="#9E616A"/>
<path d="M91.1291 24.7959L86.8643 24.3761C86.8643 24.3761 87.1802 19.3388 87.1802 18.0795C87.1802 16.8202 89.0757 16.1206 89.0757 16.1206L90.0234 16.4005L91.1291 24.7959Z" fill="#FF5757"/>
<path d="M89.7461 37.7742H107.575C107.01 35.8616 106.239 34.0015 105.273 32.2194C105.116 31.936 105.023 31.7849 105.023 31.7849C105.023 31.7849 97.4418 31.6527 92.7027 33.3317C92.4004 33.4473 92.1293 33.6185 91.9074 33.8339C91.087 34.5851 90.3695 35.9952 89.7461 37.7742Z" fill="#2F2E41"/>
<path d="M93.4926 15.281C93.4926 15.281 93.3422 15.2095 102.338 15.4997L106.103 16.4182L106.603 16.5403C106.603 16.5403 106.129 24.9357 104.866 26.4749C103.602 28.014 103.918 28.8536 104.234 28.9935C104.55 29.1334 105.34 28.8536 104.866 29.5532C104.392 30.2528 103.76 29.833 104.392 30.2528C105.024 30.6726 105.339 32.2117 105.339 32.2117L91.4392 33.8908C91.4392 33.8908 90.9653 28.4338 89.7016 25.6353C88.438 22.8369 88.122 21.7175 88.122 21.7175L89.0698 16.1205L93.4926 15.281Z" fill="#FF5757"/>
<path d="M93.0834 6.52898C93.0834 5.3227 93.6244 4.16583 94.5873 3.31287C95.5502 2.4599 96.8562 1.98071 98.2179 1.98071C99.5797 1.98071 100.886 2.4599 101.849 3.31287C102.811 4.16583 103.352 5.3227 103.352 6.52898V8.58303H93.0834V6.52898Z" fill="#2F2E41"/>
<path d="M115.692 36.6196V37.0252C115.692 37.2627 115.585 37.4905 115.396 37.6584C115.206 37.8264 114.949 37.9207 114.681 37.9208H81.0541C80.786 37.9207 80.5289 37.8264 80.3393 37.6584C80.1497 37.4905 80.0431 37.2627 80.0431 37.0252V36.6196C80.0431 36.3821 80.1497 36.1543 80.3393 35.9864C80.5289 35.8184 80.786 35.7241 81.0541 35.724H81.6512C81.6301 35.6586 81.6192 35.5909 81.6186 35.5229V20.3198C81.6187 20.1206 81.7081 19.9296 81.8671 19.7888C82.0261 19.6479 82.2417 19.5687 82.4665 19.5686H113.268C113.493 19.5687 113.709 19.6479 113.868 19.7888C114.027 19.9296 114.116 20.1206 114.116 20.3198V35.5229C114.116 35.591 114.105 35.6587 114.084 35.724H114.681C114.949 35.7241 115.206 35.8184 115.396 35.9864C115.585 36.1543 115.692 36.3821 115.692 36.6196Z" fill="#3F3D56"/>
<path d="M98.53 28.1582C98.1499 28.1582 97.7783 28.0583 97.4623 27.8713C97.1463 27.6842 96.8999 27.4183 96.7545 27.1073C96.609 26.7962 96.571 26.4539 96.6451 26.1237C96.7193 25.7934 96.9023 25.4901 97.1711 25.252C97.4398 25.014 97.7823 24.8518 98.1551 24.7861C98.5278 24.7204 98.9143 24.7542 99.2654 24.883C99.6166 25.0119 99.9167 25.2301 100.128 25.51C100.339 25.79 100.452 26.1191 100.452 26.4558C100.451 26.9071 100.249 27.3398 99.8883 27.659C99.528 27.9781 99.0395 28.1577 98.53 28.1582ZM98.53 25.0469C98.2154 25.0469 97.9079 25.1295 97.6463 25.2843C97.3848 25.4391 97.1809 25.6592 97.0605 25.9166C96.9401 26.1741 96.9086 26.4574 96.97 26.7307C97.0314 27.004 97.1829 27.255 97.4053 27.4521C97.6277 27.6491 97.9112 27.7833 98.2197 27.8377C98.5282 27.892 98.848 27.8641 99.1387 27.7575C99.4293 27.6508 99.6777 27.4703 99.8525 27.2386C100.027 27.0069 100.121 26.7345 100.121 26.4558C100.12 26.0822 99.9523 25.7241 99.6541 25.46C99.356 25.1959 98.9517 25.0473 98.53 25.0469Z" fill="white"/>
<path d="M97.8675 27.4245C98.8374 27.4245 99.6236 26.728 99.6236 25.8689C99.6236 25.0097 98.8374 24.3132 97.8675 24.3132C96.8976 24.3132 96.1113 25.0097 96.1113 25.8689C96.1113 26.728 96.8976 27.4245 97.8675 27.4245Z" fill="white"/>
<path d="M40.9995 3.07555C40.5205 2.74787 40.1311 2.32867 39.8603 1.84918C39.7636 1.66694 39.6302 1.50182 39.4667 1.36191L38.3431 2.12741L39.0298 1.06793C37.271 0.126203 33.8367 0.626365 33.8367 0.626365C30.264 -1.05885 28.9521 1.04478 28.4948 2.37885C28.3136 2.86164 27.9941 3.29452 27.5676 3.63519C26.6863 4.37956 28.0741 5.82745 28.0741 5.82745V5.92978L28.4054 7.92278C28.4054 7.92278 28.7366 6.60232 29.6108 5.67441C30.1619 5.08939 31.0589 4.74155 31.4756 4.74876C36.8524 4.8417 37.8704 5.0303 37.8704 5.0303C37.8704 5.0303 38.7807 5.46351 39.1827 5.64548C40.4819 6.23354 40.165 8.36294 40.165 8.36294L41.1358 4.58362C41.3599 3.6675 41.2354 3.24717 40.9995 3.07555Z" fill="#2F2E41"/>
</g>
<defs>
<clipPath id="clip0_34_2260">
<rect width="133" height="38" fill="white"/>
</clipPath>
</defs>
</svg>
