<?xml version="1.0" standalone="no"?>
<!DOCTYPE svg PUBLIC "-//W3C//DTD SVG 20010904//EN"
 "http://www.w3.org/TR/2001/REC-SVG-20010904/DTD/svg10.dtd">
<svg version="1.0" xmlns="http://www.w3.org/2000/svg"
 width="960.000000pt" height="960.000000pt" viewBox="0 0 960.000000 960.000000"
 preserveAspectRatio="xMidYMid meet">
<metadata>
Created by potrace 1.14, written by Peter Selinger 2001-2017
</metadata>
<g transform="translate(0.000000,960.000000) scale(0.100000,-0.100000)"
fill="#000000" stroke="none">
<path d="M0 4800 l0 -3840 3839 0 3840 0 3 48 c2 26 0 71 -3 100 -3 29 -2 55
1 57 3 2 3 29 0 60 -3 31 -3 58 0 60 3 2 3 29 0 60 -3 31 -3 58 0 60 3 2 3 29
0 60 -3 31 -3 58 0 60 3 2 3 29 0 60 -3 31 -2 58 2 61 5 3 6 9 3 13 -4 7 -6
57 -5 136 1 27 1 226 1 245 0 8 0 40 0 70 0 30 0 62 0 70 0 8 0 49 0 90 0 41
0 82 0 90 0 8 0 40 0 70 0 30 0 62 0 70 0 8 0 49 0 90 0 41 0 82 0 90 0 8 0
40 0 70 0 30 0 62 0 70 0 8 0 49 0 90 0 41 0 82 0 90 0 8 0 40 0 70 0 30 0 62
0 70 0 8 0 49 0 90 0 41 0 89 -1 105 -1 17 -2 36 -2 43 1 6 1 41 1 77 0 68 0
87 2 108 1 6 1 44 0 82 -1 39 -1 98 -1 133 0 34 -1 68 -1 75 0 6 0 41 0 77 1
36 1 72 0 80 0 8 0 44 0 80 1 36 1 72 0 80 0 8 0 44 0 80 1 36 0 72 0 80 0 8
1 85 1 170 1 85 1 158 0 163 -2 10 -1 136 0 142 1 3 1 25 1 50 0 25 0 47 -1
50 -1 3 -1 34 -1 70 0 36 0 67 1 70 1 3 1 25 1 50 0 25 0 47 -1 50 -1 3 -1 34
-1 70 0 36 0 67 1 70 1 3 1 25 1 50 0 25 0 47 -1 50 -1 3 -1 34 -1 70 0 36 0
67 1 70 1 3 1 25 1 50 0 25 0 47 -1 50 -1 3 -1 34 -1 70 0 36 0 67 1 70 2 8 2
94 0 103 -2 4 -2 10 -1 14 3 25 3 219 -1 223 -2 2 -1 30 2 60 3 31 3 58 0 60
-3 2 -3 29 0 60 3 31 3 58 0 60 -3 2 -3 29 0 60 3 31 3 58 0 60 -3 2 -3 29 0
60 3 31 3 58 0 60 -3 2 -3 29 0 60 3 31 3 58 0 60 -3 2 -3 29 0 60 3 31 3 58
0 60 -3 2 -3 29 0 60 3 31 3 58 0 60 -3 2 -3 29 0 60 3 31 2 58 -2 61 -5 3 -6
9 -3 14 3 5 5 37 5 72 0 35 -1 71 -1 81 0 9 0 37 0 62 0 25 0 52 0 60 0 8 0
35 0 60 0 25 0 52 0 60 0 8 0 35 0 60 0 25 0 52 0 60 0 8 0 35 0 60 0 25 0 52
0 60 0 8 0 35 0 60 0 25 0 52 0 60 0 8 0 35 0 60 0 25 0 52 0 60 0 8 0 35 0
60 0 25 0 52 0 60 0 8 0 35 0 60 0 25 0 52 0 60 0 8 0 36 0 63 0 26 1 61 1 77
1 17 2 37 1 45 0 8 0 42 0 75 0 33 0 67 0 75 -1 8 -1 36 -1 63 l1 47 -3841 0
-3840 0 0 -3840z m552 3356 c3 2 41 5 84 4 97 -1 193 -1 346 0 65 1 122 -2
128 -5 5 -3 10 -2 10 2 0 5 30 6 68 3 37 -3 83 -3 102 0 19 3 61 3 93 0 31 -3
57 -2 57 3 0 4 4 5 10 2 8 -5 107 -6 320 -4 25 0 65 0 90 0 25 -1 54 -1 65 0
35 0 287 0 374 -1 46 0 87 -3 92 -6 5 -3 9 0 9 6 0 6 4 8 10 5 5 -3 67 -5 137
-5 71 1 135 1 143 1 8 0 80 0 160 0 80 0 152 0 160 0 8 0 80 0 160 0 80 0 152
0 160 0 8 0 80 0 160 0 80 0 150 0 155 0 50 0 330 0 365 0 25 0 65 0 90 0 25
-1 54 -1 65 0 35 0 287 0 374 -1 46 0 87 -3 92 -6 5 -3 9 0 9 6 0 6 4 8 10 5
8 -5 107 -6 320 -4 25 0 65 0 90 0 25 -1 54 -1 65 0 35 0 287 0 374 -1 46 0
87 -3 92 -6 5 -3 9 0 9 6 0 6 4 8 10 5 8 -5 107 -6 320 -4 25 0 65 0 90 0 25
-1 52 -1 60 0 8 0 60 0 115 -1 55 0 181 -1 280 -1 99 0 185 0 190 0 6 0 75 0
155 0 299 1 385 -3 382 -19 -2 -8 -3 -84 -2 -170 1 -85 1 -159 1 -165 0 -5 0
-67 -1 -138 0 -70 2 -132 5 -137 3 -6 2 -10 -2 -10 -5 0 -6 -26 -3 -57 3 -32
3 -74 0 -93 -3 -19 -3 -65 0 -102 3 -38 3 -68 0 -68 -3 0 -3 -26 0 -57 3 -32
3 -74 0 -93 -3 -19 -3 -65 0 -102 3 -38 3 -68 0 -68 -3 0 -3 -26 0 -57 3 -32
3 -74 0 -93 -3 -19 -3 -65 0 -102 3 -38 2 -68 -3 -68 -4 0 -5 -4 -2 -10 5 -8
6 -74 4 -200 -1 -8 0 -78 0 -155 2 -251 1 -365 -5 -365 -2 0 -14 9 -26 20 -12
11 -28 20 -35 20 -7 0 -13 5 -13 10 0 6 -7 10 -15 10 -8 0 -15 5 -15 12 0 6
-3 8 -7 5 -3 -4 -13 -1 -22 6 -19 17 -117 52 -186 67 -27 6 -61 13 -75 17 -46
11 -1119 13 -1125 2 -5 -7 -10 -2033 -6 -2280 1 -31 5 -37 26 -41 14 -3 28 -2
31 3 2 4 15 4 27 0 12 -5 32 -5 45 0 13 5 22 5 22 -1 0 -5 6 -7 13 -4 21 8
147 10 147 2 0 -4 13 -3 30 2 19 5 30 5 30 -1 0 -6 5 -7 11 -4 10 7 108 8 197
3 23 -2 42 0 42 3 0 4 16 3 35 -1 19 -4 35 -5 35 -1 0 6 29 5 123 -2 20 -1 37
0 37 3 0 3 18 5 40 5 22 0 40 -3 40 -7 0 -4 13 -3 30 2 17 5 30 5 30 0 0 -5 6
-7 13 -4 7 2 44 6 82 8 85 5 161 16 195 28 8 3 35 11 60 18 51 13 121 45 163
73 l27 18 1 -138 c0 -76 0 -147 0 -158 -1 -11 -1 -40 0 -65 1 -46 1 -75 0
-190 0 -36 0 -72 0 -80 0 -25 0 -283 0 -305 -1 -11 -1 -40 0 -65 1 -46 1 -75
0 -190 0 -36 0 -73 0 -82 0 -34 0 -288 0 -305 -1 -10 -1 -38 0 -63 1 -56 1
-99 -1 -225 -1 -117 -2 -447 0 -488 0 -26 -2 -28 -37 -27 -21 1 -89 1 -151 0
-61 0 -117 2 -122 5 -6 3 -10 1 -10 -5 0 -6 -4 -8 -10 -5 -8 5 -107 6 -320 4
-25 0 -65 0 -90 0 -25 1 -54 1 -65 0 -35 0 -287 0 -374 1 -46 0 -87 3 -92 6
-5 3 -9 2 -9 -3 0 -4 -30 -6 -67 -3 -38 3 -102 3 -143 0 -41 -3 -106 -3 -145
0 -38 3 -110 3 -160 0 -49 -3 -121 -3 -160 0 -38 3 -110 3 -160 0 -49 -3 -121
-3 -160 0 -38 3 -110 3 -160 0 -49 -3 -121 -3 -160 0 -38 3 -92 3 -120 0 -27
-3 -76 -3 -107 0 -32 3 -58 2 -58 -3 0 -4 -4 -5 -10 -2 -8 5 -107 6 -320 4
-25 0 -65 0 -90 0 -25 1 -54 1 -65 0 -35 0 -287 0 -374 1 -46 0 -87 3 -92 6
-5 3 -9 2 -9 -3 0 -4 -30 -6 -67 -3 -38 3 -102 3 -143 0 -41 -3 -106 -3 -145
0 -38 3 -110 3 -160 0 -49 -3 -121 -3 -160 0 -38 3 -110 3 -160 0 -49 -3 -121
-3 -160 0 -38 3 -110 3 -160 0 -49 -3 -121 -3 -160 0 -38 3 -92 3 -120 0 -27
-3 -76 -3 -107 0 -32 3 -58 2 -58 -3 0 -4 -4 -5 -10 -2 -8 5 -107 6 -320 4
-25 0 -65 0 -90 0 -25 1 -54 1 -65 0 -35 0 -287 0 -374 1 -46 0 -87 3 -92 6
-5 3 -9 1 -9 -4 0 -5 -10 -7 -22 -5 -13 2 -86 5 -163 6 -117 2 -139 4 -137 17
2 8 3 84 2 170 -1 85 -1 160 -1 165 0 6 0 67 1 138 0 70 -2 132 -5 137 -3 6
-2 10 2 10 5 0 6 26 3 57 -3 32 -3 74 0 93 3 19 3 65 0 103 -3 37 -2 67 3 67
4 0 5 4 2 10 -3 5 -5 49 -5 97 1 116 1 94 1 298 0 99 -1 225 -1 280 -1 55 -1
107 -1 115 1 8 1 35 0 60 0 25 0 65 0 90 0 35 0 308 0 365 0 6 0 67 1 138 0
70 -2 132 -5 137 -3 6 -2 10 2 10 5 0 6 26 3 58 -3 31 -3 73 0 92 3 19 3 65 0
103 -3 37 -2 67 3 67 4 0 5 4 2 10 -3 5 -5 49 -5 97 1 116 1 94 1 298 0 99 -1
225 -1 280 -1 55 -1 107 -1 115 1 8 1 35 0 60 0 25 0 65 0 90 0 35 0 308 0
365 0 6 0 67 1 138 0 70 -2 132 -5 137 -3 6 -2 10 2 10 5 0 6 26 3 58 -3 31
-3 73 0 92 3 19 3 65 0 103 -3 37 -2 67 3 67 4 0 5 4 2 10 -3 5 -5 49 -5 97 1
116 1 94 1 298 0 99 -1 225 -1 280 -1 55 -1 107 -1 115 1 8 1 35 0 60 0 25 0
65 0 90 0 35 0 308 0 365 0 6 0 67 1 138 0 70 -2 132 -5 137 -3 6 -2 10 2 10
5 0 6 26 3 58 -3 31 -3 77 0 102 3 25 3 71 0 102 -5 55 -5 57 20 60 14 2 30 0
36 -4 6 -4 13 -5 16 -2z m6115 -2565 c69 -21 96 -36 136 -76 70 -71 92 -203
48 -300 -26 -58 -51 -88 -103 -121 -81 -51 -117 -57 -360 -59 l-227 -2 1 27
c1 15 -2 32 -6 38 -3 6 -2 13 4 17 6 4 8 11 4 16 -5 9 -8 90 -4 114 4 24 2 86
-3 92 -4 3 -2 13 3 22 5 10 5 23 1 30 -5 7 -5 27 -1 45 3 17 3 43 -1 58 -4 16
-3 30 1 33 5 3 5 18 1 33 -15 53 -17 53 224 52 183 -1 234 -5 282 -19z m530
-749 c-4 -2 -5 -8 -1 -13 8 -14 -5 -11 -62 16 -30 14 -66 27 -81 30 -16 2 -37
6 -48 9 -11 2 -28 5 -37 5 -34 2 -17 19 35 36 67 22 117 45 140 63 9 8 17 12
17 8 0 -4 8 0 18 10 16 17 17 13 22 -72 3 -49 2 -91 -3 -92z m-756 -144 c38 1
72 2 77 2 4 1 33 1 65 0 222 -6 368 -134 370 -323 1 -147 -77 -241 -233 -279
-64 -15 -562 -19 -557 -4 2 6 0 21 -4 33 -5 13 -4 25 2 28 5 4 7 11 3 16 -5 9
-8 90 -4 114 4 24 2 86 -3 92 -4 3 -2 13 3 22 5 10 5 23 1 30 -5 7 -5 27 -1
45 3 17 3 43 -1 58 -4 16 -4 30 1 33 5 3 5 17 1 31 -3 14 -5 43 -3 64 l4 39
97 3 c53 2 100 1 104 -1 5 -2 40 -3 78 -3z"/>
<path d="M3477 6002 c-2 -4 -4 -95 -3 -202 l1 -195 168 -1 c92 -1 170 -4 173
-7 3 -3 18 -2 32 2 15 3 38 5 52 4 37 -3 55 -3 167 -2 56 0 106 -1 110 -4 5
-3 8 -432 8 -953 0 -1004 -1 -988 44 -964 10 5 21 7 24 3 8 -8 117 -9 117 -2
0 4 16 3 35 -1 19 -4 35 -4 35 0 0 5 8 6 18 4 28 -7 142 -10 142 -4 0 4 16 4
35 2 35 -4 35 -4 36 34 0 22 1 454 1 962 1 670 4 922 12 923 6 0 58 0 116 -1
58 0 110 0 115 0 221 3 273 2 282 -3 6 -4 13 -4 16 0 4 3 43 6 87 6 44 0 81 2
81 6 4 18 5 378 1 388 -2 8 -245 11 -953 11 -522 1 -950 -2 -952 -6z"/>
<path d="M7756 6001 c-3 -4 -4 -531 -4 -1172 0 -640 3 -1159 5 -1152 2 7 10
10 17 7 21 -8 116 -10 116 -3 0 4 16 3 35 -1 19 -4 35 -5 35 -1 0 3 23 6 50 6
28 0 50 -3 50 -7 0 -4 14 -3 30 2 17 5 30 5 30 0 0 -5 13 -5 30 0 17 5 30 5
30 0 0 -5 13 -5 29 0 15 4 34 4 42 -1 7 -4 18 -4 24 1 6 5 17 5 25 0 7 -4 23
-4 36 0 12 5 24 6 27 3 7 -7 77 -10 77 -3 0 3 18 5 40 5 22 0 40 -3 40 -7 0
-4 14 -3 30 2 19 5 30 5 30 -1 0 -6 4 -8 8 -5 10 6 83 8 135 4 20 -2 37 -1 37
2 0 3 18 5 40 5 22 0 40 -3 40 -7 0 -4 14 -3 30 2 17 5 30 6 30 2 0 -8 83 -7
105 2 8 3 15 2 15 -2 0 -7 110 -6 143 2 9 2 17 0 17 -4 0 -5 14 -5 30 0 17 5
30 5 30 1 0 -4 19 -5 42 -2 l43 6 0 200 -1 200 -529 1 c-292 1 -535 2 -540 3
-8 1 -11 91 -11 276 0 220 3 274 13 271 7 -3 13 -2 13 2 0 8 272 7 294 -1 8
-3 17 -3 20 0 3 3 41 5 83 4 94 -2 70 -2 231 1 72 2 132 0 132 -4 0 -4 7 -5
15 -2 8 4 54 7 102 8 l88 1 1 201 2 201 -497 0 -496 0 -1 273 c0 233 2 273 15
278 20 8 235 7 248 -1 6 -4 13 -4 16 0 4 3 55 5 114 4 60 -1 113 -1 118 -1
103 1 331 1 335 0 16 -5 51 -6 54 -1 2 3 43 6 90 5 59 -1 85 3 83 10 -2 6 0
21 4 33 5 12 4 25 0 28 -5 3 -6 20 -2 37 4 18 6 47 4 63 -8 71 -8 91 -2 110 3
11 3 29 -1 40 -4 11 -4 29 0 41 5 11 5 25 2 31 -8 12 -1559 16 -1566 4z"/>
</g>
</svg>
